<?xml version="1.0" encoding="UTF-8"?>
<svg xmlns="http://www.w3.org/2000/svg" xmlns:xlink="http://www.w3.org/1999/xlink" width="23pt" height="23pt" viewBox="0 0 23 23" version="1.1">
<g id="surface1">
<path style=" stroke:none;fill-rule:nonzero;fill:rgb(0%,0%,0%);fill-opacity:1;" d="M 7.011719 4.441406 L 7.011719 4.863281 L 7.433594 4.863281 L 7.433594 4.46875 L 14.113281 4.46875 L 14.113281 4.863281 L 14.527344 4.863281 L 14.527344 4.023438 L 7.011719 4.023438 Z M 7.011719 4.441406 "/>
<path style=" stroke:none;fill-rule:nonzero;fill:rgb(0%,0%,0%);fill-opacity:1;" d="M 6.648438 5.550781 L 6.648438 5.976562 L 7.070312 5.976562 L 7.070312 5.566406 L 14.503906 5.566406 L 14.503906 5.976562 L 14.921875 5.976562 L 14.921875 5.117188 L 6.648438 5.117188 Z M 6.648438 5.550781 "/>
<path style=" stroke:none;fill-rule:nonzero;fill:rgb(0%,0%,0%);fill-opacity:1;" d="M 6.171875 12.28125 L 6.171875 18.332031 L 15.371094 18.332031 L 15.371094 15.445312 L 15.171875 15.230469 C 15.058594 15.109375 14.964844 15.015625 14.945312 15.011719 C 14.933594 15.003906 14.925781 15.027344 14.925781 15.0625 C 14.925781 15.105469 14.925781 15.75 14.925781 16.503906 L 14.921875 17.882812 L 6.597656 17.882812 L 6.597656 6.675781 L 14.933594 6.675781 L 14.921875 8.855469 L 15.011719 8.9375 C 15.058594 8.976562 15.160156 9.0625 15.230469 9.136719 L 15.371094 9.257812 L 15.371094 6.226562 L 6.171875 6.226562 Z M 6.171875 12.28125 "/>
<path style=" stroke:none;fill-rule:nonzero;fill:rgb(0%,0%,0%);fill-opacity:1;" d="M 7.515625 7.921875 L 7.515625 8.128906 L 13.886719 8.128906 L 13.886719 7.710938 L 7.515625 7.710938 Z M 7.515625 7.921875 "/>
<path style=" stroke:none;fill-rule:nonzero;fill:rgb(0%,0%,0%);fill-opacity:1;" d="M 12.402344 8.542969 C 11.988281 8.609375 11.453125 8.828125 11.117188 9.050781 C 10.890625 9.207031 10.535156 9.550781 10.359375 9.78125 C 10.164062 10.035156 9.933594 10.519531 9.84375 10.851562 C 9.753906 11.203125 9.730469 11.71875 9.773438 12.085938 C 9.921875 13.15625 10.703125 14.164062 11.6875 14.542969 C 12.128906 14.707031 12.394531 14.761719 12.851562 14.761719 C 13.460938 14.769531 13.929688 14.648438 14.429688 14.359375 C 14.648438 14.234375 14.679688 14.222656 14.722656 14.257812 C 14.761719 14.300781 14.804688 14.273438 15.160156 13.917969 C 15.523438 13.546875 15.542969 13.527344 15.5 13.476562 C 15.460938 13.433594 15.460938 13.421875 15.507812 13.34375 C 15.835938 12.863281 16.03125 12.125 16.003906 11.511719 C 15.921875 10.050781 14.914062 8.867188 13.492188 8.578125 C 13.238281 8.527344 12.621094 8.507812 12.402344 8.542969 Z M 13.433594 9.027344 C 13.917969 9.125 14.328125 9.34375 14.703125 9.691406 C 15.816406 10.75 15.851562 12.460938 14.769531 13.542969 C 13.894531 14.417969 12.570312 14.578125 11.480469 13.9375 C 11.199219 13.769531 10.753906 13.324219 10.582031 13.03125 C 10.421875 12.765625 10.269531 12.359375 10.230469 12.0625 C 10.175781 11.738281 10.203125 11.222656 10.292969 10.921875 C 10.582031 9.9375 11.347656 9.230469 12.351562 9.011719 C 12.617188 8.953125 13.125 8.957031 13.433594 9.027344 Z M 13.433594 9.027344 "/>
<path style=" stroke:none;fill-rule:nonzero;fill:rgb(0%,0%,0%);fill-opacity:1;" d="M 13.863281 10.523438 C 13.628906 10.886719 13.085938 11.757812 12.78125 12.253906 C 12.710938 12.378906 12.628906 12.503906 12.609375 12.546875 C 12.570312 12.609375 12.570312 12.597656 12.355469 12.292969 C 12.054688 11.835938 11.773438 11.386719 11.695312 11.234375 L 11.625 11.097656 L 11.4375 11.171875 C 11.332031 11.214844 11.246094 11.261719 11.242188 11.277344 C 11.210938 11.367188 12.199219 12.886719 12.492188 13.195312 L 12.644531 13.367188 L 12.714844 13.246094 C 12.898438 12.875 13.804688 11.398438 14.285156 10.683594 C 14.382812 10.523438 14.472656 10.386719 14.472656 10.375 C 14.46875 10.347656 14.175781 10.144531 14.148438 10.144531 C 14.128906 10.144531 14.003906 10.316406 13.863281 10.523438 Z M 13.863281 10.523438 "/>
<path style=" stroke:none;fill-rule:nonzero;fill:rgb(0%,0%,0%);fill-opacity:1;" d="M 7.515625 9.402344 L 7.515625 9.609375 L 10.070312 9.609375 L 10.25 9.402344 L 10.425781 9.1875 L 7.515625 9.1875 Z M 7.515625 9.402344 "/>
<path style=" stroke:none;fill-rule:nonzero;fill:rgb(0%,0%,0%);fill-opacity:1;" d="M 7.515625 10.871094 L 7.515625 11.089844 L 9.46875 11.089844 L 9.5 10.933594 C 9.519531 10.84375 9.539062 10.742188 9.550781 10.707031 L 9.5625 10.648438 L 7.515625 10.648438 Z M 7.515625 10.871094 "/>
<path style=" stroke:none;fill-rule:nonzero;fill:rgb(0%,0%,0%);fill-opacity:1;" d="M 7.515625 12.339844 L 7.515625 12.546875 L 9.550781 12.546875 L 9.503906 12.339844 L 9.464844 12.128906 L 7.515625 12.128906 Z M 7.515625 12.339844 "/>
<path style=" stroke:none;fill-rule:nonzero;fill:rgb(0%,0%,0%);fill-opacity:1;" d="M 7.515625 13.816406 L 7.515625 14.027344 L 10.394531 14.027344 L 10.230469 13.816406 L 10.054688 13.609375 L 7.515625 13.609375 Z M 7.515625 13.816406 "/>
<path style=" stroke:none;fill-rule:nonzero;fill:rgb(0%,0%,0%);fill-opacity:1;" d="M 15.304688 14.046875 L 14.894531 14.460938 L 15.304688 14.933594 C 15.976562 15.71875 16.332031 16.109375 16.878906 16.660156 C 17.550781 17.332031 17.769531 17.464844 18.105469 17.378906 C 18.210938 17.355469 18.285156 17.308594 18.402344 17.210938 C 18.691406 16.9375 18.738281 16.683594 18.5625 16.335938 C 18.386719 15.996094 17.609375 15.257812 15.980469 13.867188 L 15.710938 13.640625 Z M 15.304688 14.046875 "/>
<path style=" stroke:none;fill-rule:nonzero;fill:rgb(0%,0%,0%);fill-opacity:1;" d="M 7.535156 15.082031 C 7.527344 15.089844 7.515625 15.195312 7.515625 15.304688 L 7.515625 15.507812 L 13.886719 15.507812 L 13.886719 15.058594 L 10.71875 15.058594 C 8.976562 15.058594 7.546875 15.070312 7.535156 15.082031 Z M 7.535156 15.082031 "/>
<path style=" stroke:none;fill-rule:nonzero;fill:rgb(0%,0%,0%);fill-opacity:1;" d="M 7.519531 16.757812 L 7.527344 16.972656 L 10.710938 16.984375 L 13.886719 16.992188 L 13.886719 16.542969 L 7.515625 16.542969 Z M 7.519531 16.757812 "/>
</g>
</svg>
