<?xml version="1.0" standalone="no"?>
<!DOCTYPE svg PUBLIC "-//W3C//DTD SVG 20010904//EN"
 "http://www.w3.org/TR/2001/REC-SVG-20010904/DTD/svg10.dtd">
<svg version="1.0" xmlns="http://www.w3.org/2000/svg"
 width="512.000000pt" height="512.000000pt" viewBox="0 0 512.000000 512.000000"
 preserveAspectRatio="xMidYMid meet">
<metadata>
Created by potrace 1.15, written by Peter Selinger 2001-2017
</metadata>
<g transform="translate(0.000000,512.000000) scale(0.100000,-0.100000)"
fill="#000000" stroke="none">
<path d="M2300 5109 c-36 -4 -80 -5 -98 -2 -18 3 -38 0 -45 -6 -10 -8 -150
-41 -175 -41 -1 0 5 11 14 25 16 24 16 25 -8 25 -15 0 -44 -16 -70 -40 -33
-29 -69 -47 -137 -69 l-93 -29 61 63 c34 35 61 66 61 69 0 3 -11 6 -25 6 -19
0 -51 -25 -119 -90 -82 -80 -107 -97 -217 -151 l-124 -61 143 145 c78 79 142
147 142 150 0 4 -12 7 -27 7 -21 0 -69 -43 -237 -209 -116 -115 -238 -228
-271 -251 -208 -144 -475 -410 -605 -605 -18 -27 -129 -147 -247 -266 -169
-171 -213 -222 -213 -243 0 -14 3 -26 7 -26 3 0 71 64 149 142 l143 141 -61
-124 c-53 -109 -71 -135 -149 -216 -65 -67 -89 -99 -89 -118 0 -14 3 -25 6
-25 3 0 33 26 66 58 34 31 58 49 55 39 -4 -10 -16 -50 -28 -90 -15 -49 -34
-86 -61 -116 -22 -25 -38 -54 -38 -69 0 -24 1 -24 25 -8 14 9 25 15 25 12 0
-17 -34 -163 -39 -171 -21 -29 -20 -862 1 -849 7 5 14 -14 23 -68 6 -29 2 -44
-15 -68 -12 -16 -20 -39 -18 -51 l3 -21 27 21 26 21 12 -50 12 -50 -41 -46
c-23 -27 -41 -57 -41 -70 0 -13 2 -24 5 -24 3 0 25 18 49 40 24 23 46 37 49
33 2 -4 10 -25 17 -46 l12 -38 -66 -70 c-45 -47 -66 -77 -66 -94 0 -14 3 -25
6 -25 3 0 37 30 75 67 38 36 71 64 72 62 2 -2 11 -22 19 -44 l16 -40 -94 -97
c-69 -71 -94 -104 -94 -122 0 -15 3 -26 6 -26 4 0 51 43 105 96 l97 96 22 -42
21 -42 -125 -128 c-97 -98 -126 -134 -126 -154 0 -38 15 -27 154 113 l120 120
24 -40 24 -41 -161 -163 c-126 -127 -161 -168 -161 -189 0 -14 3 -26 7 -26 4
0 82 75 174 166 l166 166 22 -35 c11 -19 21 -38 21 -43 0 -4 -88 -96 -195
-205 -155 -155 -195 -202 -195 -223 0 -14 3 -26 7 -26 4 0 100 92 213 206
l207 205 25 -38 26 -38 -239 -241 c-194 -195 -239 -246 -239 -268 0 -22 3 -25
18 -17 9 5 123 116 252 245 129 130 237 236 240 236 3 0 16 -16 29 -36 l24
-35 -281 -283 c-230 -231 -282 -287 -282 -310 0 -22 3 -25 18 -17 9 5 143 136
297 290 l279 281 33 -32 33 -32 -330 -331 c-271 -273 -330 -336 -330 -358 0
-23 3 -26 18 -18 9 5 165 158 346 339 l329 330 30 -35 30 -34 -351 -353 c-194
-193 -352 -355 -352 -359 0 -4 12 -7 27 -7 22 0 90 63 373 345 l346 345 32
-33 32 -33 -296 -294 c-162 -162 -300 -303 -305 -312 -8 -15 -5 -18 17 -18 23
0 81 54 325 296 l297 296 37 -27 36 -28 -260 -262 c-144 -143 -261 -264 -261
-268 0 -4 12 -7 27 -7 21 0 75 49 279 252 l253 251 35 -24 c20 -13 36 -26 36
-29 0 -3 -93 -97 -206 -210 -113 -113 -210 -213 -215 -222 -8 -15 -5 -18 17
-18 22 0 69 41 239 211 l212 210 37 -21 c20 -12 36 -25 36 -29 0 -3 -75 -80
-166 -171 -91 -91 -170 -173 -175 -183 -8 -14 -5 -17 17 -17 21 0 62 35 198
170 95 94 175 170 179 170 3 0 22 -10 42 -21 l36 -22 -140 -142 c-78 -78 -141
-145 -141 -148 0 -4 12 -7 26 -7 20 0 58 32 165 137 l139 136 40 -18 c22 -10
40 -21 40 -24 0 -4 -43 -49 -96 -101 -114 -114 -125 -130 -89 -130 20 0 53 26
135 105 l108 106 38 -18 c22 -9 41 -19 43 -20 3 -2 -30 -39 -72 -82 -42 -43
-77 -81 -77 -85 0 -3 11 -6 25 -6 18 0 49 23 105 76 l79 76 46 -17 45 -18 -50
-53 c-27 -29 -50 -55 -50 -58 0 -3 11 -6 24 -6 15 0 45 19 79 50 l56 51 45
-12 c25 -6 46 -14 46 -16 0 -3 -12 -19 -27 -37 l-26 -31 23 -3 c13 -2 37 8 60
27 38 30 40 31 89 19 44 -10 49 -13 40 -30 -8 -15 -6 -18 13 -18 13 0 31 7 40
14 14 10 29 11 65 3 64 -14 702 -19 728 -7 11 6 54 16 96 23 l77 13 -15 -23
c-15 -22 -14 -23 9 -23 13 0 42 15 64 34 26 22 65 41 114 55 41 12 81 24 89
27 8 3 -9 -20 -37 -50 -29 -30 -52 -57 -52 -60 0 -3 11 -6 25 -6 18 0 49 23
108 79 72 69 95 85 196 129 l114 51 -121 -123 c-67 -67 -122 -126 -122 -129 0
-4 12 -7 26 -7 21 0 65 37 203 173 133 131 201 190 276 239 296 191 583 483
765 778 18 30 114 136 212 236 140 143 178 187 178 208 0 14 -3 26 -7 26 -3 0
-61 -55 -129 -121 l-123 -122 49 112 c43 100 56 120 129 196 58 60 81 92 81
110 0 14 -3 25 -6 25 -3 0 -30 -24 -61 -52 -34 -32 -53 -45 -49 -33 4 11 16
50 26 88 13 45 31 81 54 109 20 23 36 53 36 66 0 24 0 24 -26 7 -25 -16 -26
-16 -20 2 3 10 10 47 16 83 7 36 15 70 20 75 12 16 5 651 -8 715 -10 45 -9 58
3 77 8 12 15 32 15 43 0 17 -3 19 -19 10 -21 -11 -23 -8 -36 57 -5 27 -1 39
25 72 20 24 30 47 28 62 -3 23 -3 23 -39 -9 l-35 -31 -13 50 -13 49 51 56 c32
35 51 65 51 80 0 13 -3 24 -6 24 -3 0 -29 -23 -59 -51 -29 -27 -55 -46 -58
-42 -2 4 -10 25 -17 46 l-12 38 76 79 c54 57 76 87 76 105 0 35 -17 24 -100
-59 -35 -36 -67 -66 -71 -66 -3 0 -13 19 -22 42 l-17 41 105 108 c78 80 105
114 105 133 0 14 -3 26 -7 26 -3 0 -56 -49 -117 -110 l-111 -109 -19 45 -18
45 136 138 c104 107 136 145 136 165 0 14 -3 26 -7 26 -3 0 -71 -64 -151 -142
-79 -79 -146 -138 -148 -133 -2 6 -13 24 -23 40 l-18 30 173 176 c138 140 174
182 174 203 0 22 -3 25 -17 17 -10 -5 -94 -86 -187 -180 l-170 -170 -24 40
-24 41 211 212 c168 170 211 218 211 239 0 15 -3 27 -7 27 -4 0 -105 -98 -226
-217 l-218 -218 -29 35 -29 35 255 256 c206 208 254 261 254 283 0 22 -3 25
-17 17 -10 -5 -130 -122 -268 -260 -239 -240 -250 -250 -268 -233 -51 46 -60
33 257 351 242 244 296 302 296 325 0 22 -3 25 -17 17 -10 -5 -151 -143 -313
-305 l-294 -296 -33 32 -33 32 345 346 c282 283 345 351 345 373 0 15 -3 27
-7 27 -4 0 -167 -160 -363 -355 l-356 -355 -32 33 -32 33 331 329 c182 182
335 338 340 348 8 14 5 17 -18 17 -22 0 -85 -59 -357 -329 l-331 -330 -35 29
-35 29 293 293 c160 162 292 297 292 301 0 4 -12 7 -27 7 -21 0 -81 -54 -312
-284 l-286 -284 -35 29 -34 29 247 248 c136 136 247 251 247 255 0 4 -12 7
-27 7 -21 0 -74 -47 -267 -240 l-242 -240 -37 27 -38 27 206 206 c113 113 205
209 205 213 0 4 -12 7 -26 7 -22 0 -68 -41 -228 -199 l-201 -199 -39 25 -38
25 166 167 c91 92 166 170 166 174 0 4 -12 7 -26 7 -21 0 -62 -35 -189 -161
l-163 -161 -42 22 -42 22 131 132 c72 73 131 136 131 139 0 4 -12 7 -26 7 -20
0 -57 -30 -155 -127 l-129 -126 -40 18 c-22 10 -40 21 -40 24 0 4 39 45 86 91
104 103 115 120 79 120 -19 0 -51 -25 -124 -95 l-98 -95 -41 17 c-23 9 -42 19
-42 22 0 4 25 31 56 61 73 72 83 90 50 90 -18 0 -48 -21 -96 -66 l-70 -67 -45
13 c-25 7 -45 16 -45 19 0 4 14 20 31 37 17 16 35 37 40 47 19 34 -36 19 -84
-23 -49 -44 -54 -45 -110 -29 l-38 10 22 27 21 27 -21 3 c-12 2 -34 -6 -51
-18 -26 -18 -38 -20 -86 -14 -41 5 -54 10 -50 20 6 15 -39 21 -48 6 -3 -5 -51
-2 -108 5 -112 13 -444 15 -548 2z m-815 -1469 l-990 -990 -3 37 c-8 86 -45
46 925 1015 622 621 926 918 943 921 14 2 45 5 70 6 l45 1 -990 -990z m100
-100 c-599 -599 -1090 -1088 -1091 -1087 -2 1 -4 29 -5 60 l-2 58 1029 1030
1029 1029 65 0 65 0 -1090 -1090z m1250 1074 c13 -5 -259 -283 -1151 -1175
-643 -643 -1172 -1169 -1175 -1169 -4 0 -9 24 -12 53 l-5 52 1121 1123 1122
1122 42 0 c23 0 49 -3 58 -6z m-1450 -874 c-479 -479 -871 -866 -873 -862 -1
5 4 39 12 77 l14 68 779 779 778 778 65 14 c36 8 72 15 80 15 8 1 -377 -391
-855 -869z m1619 843 c15 -4 -90 -114 -510 -534 -350 -350 -543 -536 -570
-549 -49 -24 -298 -274 -308 -310 -9 -28 -1065 -1092 -1077 -1084 -4 2 -11 25
-15 50 l-7 46 1199 1200 1199 1199 35 -6 c19 -3 43 -9 54 -12z m135 -33 l44
-12 -533 -533 -533 -533 -42 22 -43 21 526 527 c289 290 528 525 531 523 3 -1
26 -8 50 -15z m-1149 -3 c0 -1 -322 -324 -715 -717 l-715 -715 32 97 32 97
591 591 592 592 79 28 c71 26 104 35 104 27z m1303 -48 l38 -13 -558 -558
-557 -558 -34 32 -33 32 543 543 c299 299 548 542 553 539 6 -2 27 -9 48 -17z
m130 -55 c18 -9 34 -18 37 -21 2 -2 -254 -262 -570 -578 l-574 -575 -34 32
-33 32 563 563 c310 310 567 563 571 563 4 0 22 -7 40 -16z m-1753 -17 c0 -1
-223 -225 -496 -497 l-496 -495 42 80 c95 179 129 220 407 496 272 270 296
290 473 387 51 28 70 36 70 29z m1920 -75 c0 -4 -264 -271 -587 -594 l-587
-588 -34 32 -33 32 583 583 582 582 38 -20 c21 -11 38 -23 38 -27z m-472 -679
l-602 -603 -34 32 -33 32 597 597 597 597 39 -26 39 -26 -603 -603z m712 518
c0 -3 -151 -157 -335 -341 -242 -242 -341 -334 -355 -332 -10 2 -38 -2 -62 -8
-37 -10 -76 -45 -278 -246 -130 -129 -240 -234 -245 -234 -6 0 264 274 599
609 l609 609 34 -25 c18 -14 33 -28 33 -32z m95 -71 l19 -21 -331 -331 -331
-331 -35 29 -35 29 331 332 c350 351 338 342 382 293z m86 -81 c16 -11 29 -26
29 -32 0 -7 -148 -161 -330 -342 l-330 -330 -32 33 -33 32 330 330 c181 182
331 330 333 330 2 0 17 -9 33 -21z m104 -109 l29 -31 -332 -332 -332 -332 -32
33 -33 32 330 330 c181 182 332 330 336 330 3 0 18 -14 34 -30z m105 -131 c7
-12 -66 -90 -348 -372 l-357 -357 0 65 0 65 330 330 330 330 18 -22 c10 -13
22 -30 27 -39z m69 -96 l23 -36 -598 -598 -598 -599 -34 32 -33 32 603 603
c332 332 605 603 608 603 3 0 16 -17 29 -37z m82 -134 l12 -31 -584 -584 -583
-584 -34 32 -33 32 593 593 c426 426 595 589 604 582 6 -5 18 -23 25 -40z m63
-121 l16 -43 -567 -567 -567 -568 -34 32 -33 32 578 578 c318 318 581 578 584
578 3 0 13 -19 23 -42z m-471 -730 l-547 -548 -34 32 -33 32 563 563 562 562
18 -47 18 -47 -547 -547z m581 445 l16 -48 -526 -526 -527 -527 -28 36 -27 37
536 538 c296 295 538 537 539 537 0 0 8 -21 17 -47z m-2906 -136 c15 -17 -12
-46 -520 -554 l-536 -536 -15 49 -15 49 526 527 c474 475 527 526 535 506 4
-13 15 -31 25 -41z m2949 -26 l10 -49 -1216 -1216 -1217 -1217 -52 13 -53 12
528 528 c376 376 534 528 550 528 47 0 83 26 217 158 134 133 166 176 166 224
0 17 138 161 522 545 288 288 526 523 529 523 4 0 11 -22 16 -49z m-2869 -64
l32 -33 -559 -558 -558 -558 -18 47 -18 47 544 544 c299 299 544 544 545 544
0 0 14 -15 32 -33z m2901 -132 c1 -27 -112 -143 -1137 -1168 -1078 -1078
-1139 -1137 -1172 -1137 -19 0 -46 3 -59 7 -20 5 108 137 1165 1195 1122 1122
1189 1187 1195 1161 4 -16 7 -42 8 -58z m-2801 32 l32 -33 -579 -578 -578
-578 -18 47 -18 47 564 564 c310 310 564 564 565 564 0 0 14 -15 32 -33z
m-460 -724 c-404 -404 -595 -588 -600 -580 -5 7 -16 25 -24 41 l-16 29 583
583 583 584 34 -32 33 -32 -593 -593z m2220 -580 l-1053 -1052 -58 6 -59 6
1109 1109 1108 1108 3 -62 3 -62 -1053 -1053z m-1560 1104 l32 -33 -604 -603
-604 -604 -26 39 -26 39 597 597 c329 329 598 598 599 598 0 0 14 -15 32 -33z
m-155 -310 c-127 -127 -236 -242 -242 -255 -7 -12 -13 -43 -15 -68 -2 -45 -3
-46 -341 -384 l-339 -339 -27 37 -28 37 606 607 c334 334 609 605 612 602 3
-2 -99 -109 -226 -237z m1820 -888 l-948 -947 -69 -5 -69 -5 1014 1014 1014
1014 3 -62 3 -62 -948 -947z m925 786 l-10 -70 -815 -816 c-766 -767 -818
-817 -857 -823 -23 -4 -57 -9 -76 -12 -31 -5 66 95 865 895 494 495 900 899
901 898 1 -1 -3 -33 -8 -72z m-2557 -819 l-599 -599 -36 22 c-20 13 -36 26
-36 29 0 4 271 278 602 609 l602 603 34 -32 33 -32 -600 -600z m2495 553 l-26
-84 -638 -638 -638 -638 -77 -24 c-43 -14 -83 -25 -90 -25 -7 0 325 337 738
750 412 412 751 748 753 746 2 -2 -8 -42 -22 -87z m-2383 -641 l-587 -587 -36
21 c-19 12 -37 23 -40 25 -2 2 263 271 590 598 l594 595 34 -32 33 -32 -588
-588z m-809 191 l-337 -337 -30 35 -30 34 334 335 333 334 33 -32 33 -32 -336
-337z m927 -273 l-570 -570 -40 19 c-23 10 -41 21 -41 24 0 3 260 266 577 583
l577 578 34 -32 33 -32 -570 -570z m-828 172 l-337 -338 -33 32 -33 32 337
338 337 338 33 -32 33 -32 -337 -338z m948 -252 l-549 -549 -47 18 -47 18 563
563 563 564 34 -32 33 -32 -550 -550z m2054 557 c-9 -21 -36 -76 -61 -123 -43
-80 -69 -109 -412 -452 l-366 -367 -117 -61 c-64 -33 -121 -60 -125 -60 -5 0
239 248 541 550 302 303 551 550 553 550 1 0 -5 -17 -13 -37z m-2575 -67 c0
-6 -148 -159 -329 -340 l-329 -329 -36 29 -36 29 337 337 337 338 28 -27 c15
-15 28 -32 28 -37z m652 -559 c-563 -564 -527 -533 -599 -506 -27 10 -20 17
511 548 l539 539 38 -27 38 -26 -527 -528z m-841 160 l-360 -360 -36 28 -37
28 333 333 332 332 64 -1 64 0 -360 -360z"/>
<path d="M203 4958 c-174 -172 -196 -198 -191 -231 3 -19 32 5 192 163 103
102 192 193 197 203 8 14 5 17 -17 17 -21 0 -60 -33 -181 -152z"/>
<path d="M303 4858 c-140 -139 -264 -265 -275 -281 -10 -15 -18 -37 -16 -50 3
-18 49 23 292 263 158 157 292 293 297 303 8 14 5 17 -17 17 -22 0 -75 -47
-281 -252z"/>
<path d="M402 4758 c-194 -194 -362 -365 -373 -381 -11 -15 -19 -37 -17 -50 4
-18 67 40 392 363 213 212 392 393 397 403 8 14 5 17 -18 17 -22 0 -89 -62
-381 -352z"/>
<path d="M502 4658 c-249 -249 -462 -465 -473 -481 -11 -15 -19 -37 -17 -50 4
-18 84 57 492 463 268 267 492 493 497 503 8 14 5 17 -18 17 -22 0 -104 -76
-481 -452z"/>
<path d="M602 4558 c-304 -304 -562 -565 -573 -581 -11 -15 -19 -37 -17 -50 4
-18 101 75 592 563 323 322 592 593 597 603 8 14 5 17 -18 17 -23 0 -118 -91
-581 -552z"/>
<path d="M702 4458 c-359 -359 -662 -665 -673 -681 -11 -15 -19 -37 -17 -50 4
-18 118 92 692 663 378 377 692 693 697 703 8 14 5 17 -18 17 -23 0 -133 -106
-681 -652z"/>
<path d="M4396 750 c-394 -393 -722 -723 -727 -732 -8 -15 -5 -18 18 -18 23 0
137 110 711 683 376 375 692 694 703 710 11 15 19 37 17 50 -4 18 -124 -97
-722 -693z"/>
<path d="M4496 650 c-339 -338 -622 -623 -627 -632 -8 -15 -5 -18 18 -18 23 0
123 95 611 583 321 320 592 594 603 610 11 15 19 37 17 50 -4 18 -106 -80
-622 -593z"/>
<path d="M4596 550 c-284 -283 -522 -523 -527 -533 -8 -14 -5 -17 18 -17 23 0
108 81 511 483 266 265 492 494 503 510 11 15 19 37 17 50 -4 18 -89 -62 -522
-493z"/>
<path d="M4696 450 c-229 -228 -422 -423 -427 -432 -8 -15 -5 -18 18 -18 22 0
93 66 411 383 211 210 392 394 403 410 11 15 19 37 17 50 -4 18 -72 -45 -422
-393z"/>
<path d="M4796 350 c-174 -173 -322 -323 -327 -332 -8 -15 -5 -18 17 -18 23 0
80 52 312 282 156 156 293 295 303 311 11 15 19 37 17 50 -4 18 -54 -28 -322
-293z"/>
<path d="M4896 250 c-119 -118 -222 -223 -227 -232 -8 -15 -5 -18 17 -18 21 0
65 37 211 183 205 202 226 227 221 260 -3 19 -37 -11 -222 -193z"/>
<path d="M4996 150 c-136 -133 -149 -150 -111 -150 18 0 49 23 111 82 102 98
127 130 122 161 -3 19 -19 7 -122 -93z"/>
</g>
</svg>
