<?xml version="1.0" encoding="UTF-8"?>
<svg xmlns="http://www.w3.org/2000/svg" xmlns:xlink="http://www.w3.org/1999/xlink" width="20pt" height="20pt" viewBox="0 0 20 20" version="1.1">
<g id="surface1">
<path style=" stroke:none;fill-rule:nonzero;fill:rgb(0%,0%,0%);fill-opacity:1;" d="M 8.796875 0.0429688 C 8.65625 0.0585938 8.492188 0.0625 8.421875 0.0507812 C 8.351562 0.0390625 8.273438 0.0507812 8.25 0.0742188 C 8.210938 0.101562 7.675781 0.230469 7.578125 0.230469 C 7.574219 0.230469 7.597656 0.1875 7.632812 0.132812 C 7.695312 0.0429688 7.695312 0.0390625 7.601562 0.0390625 C 7.546875 0.0390625 7.433594 0.101562 7.335938 0.191406 C 7.207031 0.304688 7.070312 0.371094 6.808594 0.453125 L 6.457031 0.566406 L 6.6875 0.324219 C 6.820312 0.191406 6.921875 0.0742188 6.921875 0.0625 C 6.921875 0.0507812 6.878906 0.0390625 6.824219 0.0390625 C 6.753906 0.0390625 6.628906 0.132812 6.371094 0.382812 C 6.058594 0.6875 5.960938 0.753906 5.539062 0.960938 L 5.066406 1.191406 L 5.613281 0.640625 C 5.914062 0.335938 6.15625 0.078125 6.15625 0.0625 C 6.15625 0.0507812 6.109375 0.0390625 6.054688 0.0390625 C 5.972656 0.0390625 5.789062 0.203125 5.148438 0.835938 C 4.703125 1.277344 4.238281 1.707031 4.113281 1.796875 C 3.316406 2.347656 2.292969 3.367188 1.796875 4.113281 C 1.730469 4.214844 1.304688 4.671875 0.851562 5.128906 C 0.207031 5.78125 0.0390625 5.976562 0.0390625 6.058594 C 0.0390625 6.109375 0.0507812 6.15625 0.0625 6.15625 C 0.078125 6.15625 0.335938 5.914062 0.636719 5.613281 L 1.183594 5.074219 L 0.949219 5.550781 C 0.746094 5.964844 0.675781 6.066406 0.378906 6.375 C 0.132812 6.628906 0.0390625 6.753906 0.0390625 6.824219 C 0.0390625 6.878906 0.0507812 6.921875 0.0625 6.921875 C 0.0742188 6.921875 0.1875 6.824219 0.3125 6.699219 C 0.445312 6.582031 0.535156 6.515625 0.523438 6.550781 C 0.507812 6.589844 0.460938 6.742188 0.417969 6.894531 C 0.359375 7.082031 0.289062 7.222656 0.183594 7.339844 C 0.101562 7.433594 0.0390625 7.546875 0.0390625 7.601562 C 0.0390625 7.695312 0.0429688 7.695312 0.132812 7.632812 C 0.1875 7.597656 0.230469 7.574219 0.230469 7.585938 C 0.230469 7.652344 0.101562 8.210938 0.078125 8.242188 C 0 8.351562 0.00390625 11.535156 0.0859375 11.488281 C 0.109375 11.46875 0.140625 11.542969 0.171875 11.746094 C 0.195312 11.859375 0.179688 11.917969 0.117188 12.007812 C 0.0703125 12.066406 0.0390625 12.160156 0.046875 12.203125 L 0.0585938 12.285156 L 0.160156 12.203125 L 0.257812 12.121094 L 0.351562 12.503906 L 0.195312 12.683594 C 0.109375 12.785156 0.0390625 12.898438 0.0390625 12.949219 C 0.0390625 13 0.046875 13.039062 0.0585938 13.039062 C 0.0703125 13.039062 0.152344 12.972656 0.246094 12.886719 C 0.335938 12.800781 0.421875 12.746094 0.433594 12.757812 C 0.441406 12.773438 0.46875 12.855469 0.496094 12.941406 L 0.542969 13.082031 L 0.289062 13.351562 C 0.117188 13.53125 0.0390625 13.644531 0.0390625 13.710938 C 0.0390625 13.765625 0.0507812 13.804688 0.0625 13.804688 C 0.0742188 13.804688 0.203125 13.691406 0.347656 13.550781 C 0.492188 13.414062 0.621094 13.304688 0.625 13.3125 C 0.628906 13.320312 0.664062 13.398438 0.695312 13.480469 L 0.757812 13.632812 L 0.398438 14.003906 C 0.132812 14.277344 0.0390625 14.402344 0.0390625 14.472656 C 0.0390625 14.53125 0.0507812 14.570312 0.0625 14.570312 C 0.078125 14.570312 0.257812 14.40625 0.460938 14.203125 L 0.832031 13.835938 L 0.917969 13.996094 L 0.996094 14.15625 L 0.519531 14.644531 C 0.148438 15.019531 0.0390625 15.160156 0.0390625 15.238281 C 0.0390625 15.378906 0.09375 15.339844 0.628906 14.804688 L 1.085938 14.34375 L 1.175781 14.5 L 1.269531 14.652344 L 0.65625 15.277344 C 0.171875 15.765625 0.0390625 15.921875 0.0390625 16 C 0.0390625 16.054688 0.0507812 16.101562 0.0625 16.101562 C 0.078125 16.101562 0.378906 15.816406 0.730469 15.464844 L 1.363281 14.832031 L 1.449219 14.964844 C 1.492188 15.035156 1.527344 15.109375 1.527344 15.128906 C 1.527344 15.144531 1.191406 15.496094 0.785156 15.914062 C 0.191406 16.507812 0.0390625 16.6875 0.0390625 16.765625 C 0.0390625 16.820312 0.0507812 16.863281 0.0625 16.863281 C 0.078125 16.863281 0.445312 16.515625 0.878906 16.078125 L 1.671875 15.292969 L 1.867188 15.582031 L 0.949219 16.507812 C 0.210938 17.25 0.0390625 17.445312 0.0390625 17.527344 C 0.0390625 17.613281 0.0507812 17.625 0.109375 17.59375 C 0.140625 17.574219 0.578125 17.152344 1.070312 16.65625 C 1.5625 16.160156 1.976562 15.757812 1.988281 15.757812 C 2.003906 15.757812 2.050781 15.816406 2.097656 15.894531 L 2.191406 16.027344 L 1.117188 17.109375 C 0.238281 17.992188 0.0390625 18.207031 0.0390625 18.296875 C 0.0390625 18.378906 0.0507812 18.390625 0.109375 18.359375 C 0.140625 18.339844 0.65625 17.839844 1.242188 17.25 L 2.308594 16.175781 L 2.5625 16.421875 L 1.300781 17.6875 C 0.261719 18.730469 0.0390625 18.972656 0.0390625 19.054688 C 0.0390625 19.144531 0.0507812 19.15625 0.109375 19.125 C 0.140625 19.105469 0.738281 18.519531 1.429688 17.828125 L 2.6875 16.566406 L 2.800781 16.703125 L 2.917969 16.832031 L 1.574219 18.179688 C 0.832031 18.917969 0.230469 19.535156 0.230469 19.550781 C 0.230469 19.566406 0.273438 19.582031 0.335938 19.582031 C 0.417969 19.582031 0.675781 19.339844 1.761719 18.261719 L 3.082031 16.941406 L 3.328125 17.191406 L 2.195312 18.316406 C 1.574219 18.9375 1.046875 19.476562 1.027344 19.511719 C 0.996094 19.566406 1.011719 19.582031 1.09375 19.582031 C 1.183594 19.582031 1.402344 19.375 2.339844 18.449219 L 3.472656 17.316406 L 3.753906 17.527344 L 2.757812 18.527344 C 2.203125 19.078125 1.761719 19.535156 1.761719 19.550781 C 1.761719 19.566406 1.804688 19.582031 1.863281 19.582031 C 1.941406 19.582031 2.148438 19.390625 2.929688 18.617188 L 3.898438 17.65625 L 4.03125 17.746094 C 4.105469 17.800781 4.167969 17.847656 4.167969 17.859375 C 4.167969 17.871094 3.8125 18.230469 3.378906 18.664062 C 2.949219 19.09375 2.578125 19.476562 2.558594 19.511719 C 2.527344 19.566406 2.539062 19.582031 2.625 19.582031 C 2.707031 19.582031 2.886719 19.421875 3.535156 18.773438 L 4.347656 17.972656 L 4.488281 18.050781 C 4.566406 18.097656 4.628906 18.144531 4.628906 18.160156 C 4.628906 18.171875 4.339844 18.46875 3.992188 18.8125 C 3.644531 19.164062 3.34375 19.476562 3.324219 19.515625 C 3.292969 19.566406 3.304688 19.582031 3.386719 19.582031 C 3.46875 19.582031 3.625 19.445312 4.144531 18.929688 C 4.511719 18.570312 4.816406 18.28125 4.832031 18.28125 C 4.839844 18.28125 4.914062 18.316406 4.992188 18.359375 L 5.128906 18.445312 L 4.59375 18.988281 C 4.292969 19.285156 4.050781 19.542969 4.050781 19.550781 C 4.050781 19.566406 4.097656 19.582031 4.152344 19.582031 C 4.230469 19.582031 4.375 19.457031 4.785156 19.054688 L 5.316406 18.535156 L 5.46875 18.605469 C 5.554688 18.644531 5.621094 18.6875 5.621094 18.695312 C 5.621094 18.710938 5.457031 18.882812 5.253906 19.085938 C 4.820312 19.519531 4.773438 19.582031 4.914062 19.582031 C 4.992188 19.582031 5.117188 19.480469 5.429688 19.179688 L 5.84375 18.773438 L 5.988281 18.84375 C 6.074219 18.875 6.148438 18.914062 6.152344 18.917969 C 6.164062 18.925781 6.039062 19.070312 5.878906 19.230469 C 5.71875 19.398438 5.585938 19.542969 5.585938 19.558594 C 5.585938 19.566406 5.625 19.582031 5.679688 19.582031 C 5.75 19.582031 5.867188 19.492188 6.082031 19.289062 L 6.382812 19 L 6.558594 19.0625 L 6.730469 19.132812 L 6.539062 19.335938 C 6.4375 19.445312 6.347656 19.546875 6.347656 19.558594 C 6.347656 19.566406 6.390625 19.582031 6.441406 19.582031 C 6.5 19.582031 6.613281 19.503906 6.742188 19.390625 L 6.957031 19.195312 L 7.128906 19.242188 C 7.222656 19.261719 7.304688 19.292969 7.304688 19.300781 C 7.304688 19.3125 7.257812 19.375 7.199219 19.441406 L 7.101562 19.5625 L 7.191406 19.574219 C 7.238281 19.582031 7.328125 19.542969 7.417969 19.46875 C 7.5625 19.355469 7.570312 19.351562 7.757812 19.398438 C 7.929688 19.433594 7.945312 19.445312 7.914062 19.511719 C 7.882812 19.566406 7.890625 19.582031 7.960938 19.582031 C 8.011719 19.582031 8.078125 19.550781 8.117188 19.527344 C 8.167969 19.488281 8.226562 19.484375 8.363281 19.515625 C 8.609375 19.566406 11.046875 19.585938 11.148438 19.542969 C 11.1875 19.519531 11.355469 19.480469 11.515625 19.453125 L 11.808594 19.40625 L 11.753906 19.492188 C 11.695312 19.578125 11.699219 19.582031 11.785156 19.582031 C 11.835938 19.582031 11.949219 19.519531 12.03125 19.449219 C 12.128906 19.367188 12.28125 19.292969 12.464844 19.242188 C 12.625 19.195312 12.773438 19.148438 12.804688 19.136719 C 12.835938 19.125 12.773438 19.210938 12.667969 19.328125 C 12.554688 19.441406 12.464844 19.546875 12.464844 19.558594 C 12.464844 19.566406 12.511719 19.582031 12.5625 19.582031 C 12.632812 19.582031 12.75 19.492188 12.976562 19.277344 C 13.25 19.015625 13.335938 18.953125 13.722656 18.785156 L 14.164062 18.589844 L 13.699219 19.0625 C 13.441406 19.316406 13.230469 19.542969 13.230469 19.550781 C 13.230469 19.566406 13.277344 19.582031 13.332031 19.582031 C 13.414062 19.582031 13.582031 19.4375 14.105469 18.917969 C 14.617188 18.417969 14.878906 18.191406 15.164062 18.003906 C 16.292969 17.273438 17.394531 16.15625 18.089844 15.027344 C 18.15625 14.914062 18.523438 14.507812 18.898438 14.125 C 19.433594 13.582031 19.582031 13.414062 19.582031 13.332031 C 19.582031 13.277344 19.566406 13.230469 19.550781 13.230469 C 19.542969 13.230469 19.320312 13.441406 19.0625 13.695312 L 18.589844 14.164062 L 18.777344 13.734375 C 18.941406 13.351562 18.992188 13.273438 19.273438 12.984375 C 19.492188 12.753906 19.582031 12.632812 19.582031 12.5625 C 19.582031 12.511719 19.566406 12.464844 19.558594 12.464844 C 19.546875 12.464844 19.441406 12.558594 19.324219 12.667969 C 19.195312 12.789062 19.121094 12.835938 19.136719 12.789062 C 19.152344 12.75 19.195312 12.601562 19.234375 12.453125 C 19.285156 12.285156 19.355469 12.144531 19.441406 12.039062 C 19.519531 11.949219 19.582031 11.835938 19.582031 11.785156 C 19.582031 11.695312 19.582031 11.695312 19.480469 11.761719 C 19.386719 11.820312 19.382812 11.820312 19.40625 11.753906 C 19.414062 11.714844 19.441406 11.574219 19.464844 11.433594 C 19.492188 11.296875 19.519531 11.167969 19.542969 11.148438 C 19.585938 11.085938 19.5625 8.65625 19.511719 8.414062 C 19.472656 8.242188 19.476562 8.191406 19.519531 8.121094 C 19.550781 8.074219 19.582031 7.996094 19.582031 7.953125 C 19.582031 7.890625 19.566406 7.882812 19.503906 7.914062 C 19.429688 7.957031 19.421875 7.945312 19.371094 7.695312 C 19.351562 7.59375 19.367188 7.550781 19.464844 7.421875 C 19.542969 7.328125 19.582031 7.242188 19.574219 7.183594 C 19.5625 7.097656 19.5625 7.097656 19.421875 7.222656 L 19.289062 7.339844 L 19.242188 7.148438 L 19.191406 6.960938 L 19.386719 6.746094 C 19.503906 6.613281 19.582031 6.5 19.582031 6.441406 C 19.582031 6.390625 19.566406 6.347656 19.558594 6.347656 C 19.546875 6.347656 19.445312 6.4375 19.332031 6.542969 C 19.21875 6.644531 19.121094 6.71875 19.109375 6.703125 C 19.101562 6.6875 19.070312 6.605469 19.046875 6.527344 L 19 6.382812 L 19.289062 6.082031 C 19.496094 5.863281 19.582031 5.75 19.582031 5.679688 C 19.582031 5.546875 19.515625 5.585938 19.195312 5.90625 C 19.0625 6.042969 18.941406 6.15625 18.925781 6.15625 C 18.914062 6.15625 18.875 6.085938 18.84375 5.996094 L 18.777344 5.839844 L 19.179688 5.425781 C 19.476562 5.121094 19.582031 4.992188 19.582031 4.917969 C 19.582031 4.863281 19.566406 4.820312 19.550781 4.820312 C 19.542969 4.820312 19.339844 5.007812 19.105469 5.238281 L 18.679688 5.65625 L 18.539062 5.3125 L 19.0625 4.785156 C 19.457031 4.375 19.582031 4.230469 19.582031 4.152344 C 19.582031 4.097656 19.566406 4.050781 19.550781 4.050781 C 19.542969 4.050781 19.28125 4.300781 18.976562 4.597656 C 18.675781 4.898438 18.417969 5.125 18.410156 5.105469 C 18.402344 5.082031 18.359375 5.015625 18.324219 4.953125 L 18.25 4.835938 L 18.914062 4.164062 C 19.441406 3.628906 19.582031 3.46875 19.582031 3.386719 C 19.582031 3.304688 19.566406 3.292969 19.515625 3.324219 C 19.476562 3.34375 19.15625 3.652344 18.800781 4.011719 L 18.148438 4.660156 L 18.058594 4.511719 L 17.964844 4.351562 L 18.773438 3.542969 C 19.414062 2.890625 19.582031 2.707031 19.582031 2.628906 C 19.582031 2.570312 19.566406 2.523438 19.550781 2.523438 C 19.535156 2.523438 19.152344 2.898438 18.691406 3.355469 L 17.855469 4.1875 L 17.632812 3.917969 L 18.609375 2.941406 C 19.398438 2.144531 19.582031 1.941406 19.582031 1.859375 C 19.582031 1.773438 19.566406 1.761719 19.515625 1.792969 C 19.476562 1.8125 19.015625 2.261719 18.492188 2.789062 C 17.574219 3.707031 17.535156 3.746094 17.464844 3.679688 C 17.269531 3.503906 17.238281 3.550781 18.449219 2.339844 C 19.375 1.402344 19.582031 1.183594 19.582031 1.09375 C 19.582031 1.011719 19.566406 0.996094 19.515625 1.027344 C 19.476562 1.046875 18.9375 1.574219 18.316406 2.195312 L 17.191406 3.328125 L 16.941406 3.082031 L 18.261719 1.761719 C 19.339844 0.675781 19.582031 0.417969 19.582031 0.335938 C 19.582031 0.273438 19.566406 0.230469 19.550781 0.230469 C 19.535156 0.230469 18.914062 0.839844 18.164062 1.589844 L 16.804688 2.945312 L 16.558594 2.691406 L 17.824219 1.433594 C 18.519531 0.738281 19.105469 0.140625 19.125 0.101562 C 19.15625 0.0507812 19.144531 0.0390625 19.054688 0.0390625 C 18.972656 0.0390625 18.730469 0.261719 17.691406 1.296875 L 16.425781 2.558594 L 16.15625 2.339844 L 17.277344 1.214844 C 17.890625 0.597656 18.394531 0.078125 18.394531 0.0625 C 18.394531 0.0507812 18.347656 0.0390625 18.292969 0.0390625 C 18.210938 0.0390625 17.980469 0.246094 17.101562 1.125 L 16.003906 2.210938 L 15.742188 1.988281 L 16.6875 1.039062 C 17.207031 0.519531 17.628906 0.078125 17.628906 0.0625 C 17.628906 0.0507812 17.582031 0.0390625 17.527344 0.0390625 C 17.445312 0.0390625 17.242188 0.21875 16.507812 0.957031 L 15.578125 1.875 L 15.4375 1.769531 L 15.292969 1.667969 L 16.078125 0.878906 C 16.515625 0.445312 16.863281 0.078125 16.863281 0.0625 C 16.863281 0.0507812 16.820312 0.0390625 16.765625 0.0390625 C 16.679688 0.0390625 16.507812 0.195312 15.894531 0.800781 L 15.125 1.558594 L 14.976562 1.464844 L 14.832031 1.371094 L 15.464844 0.730469 C 15.816406 0.378906 16.101562 0.078125 16.101562 0.0625 C 16.101562 0.0507812 16.054688 0.0390625 16 0.0390625 C 15.921875 0.0390625 15.765625 0.171875 15.277344 0.65625 L 14.652344 1.269531 L 14.332031 1.101562 L 14.835938 0.597656 C 15.109375 0.320312 15.335938 0.078125 15.335938 0.0625 C 15.335938 0.0507812 15.289062 0.0390625 15.238281 0.0390625 C 15.160156 0.0390625 15.019531 0.152344 14.644531 0.523438 L 14.148438 1.007812 L 13.996094 0.933594 C 13.914062 0.898438 13.84375 0.855469 13.84375 0.84375 C 13.84375 0.832031 13.992188 0.671875 14.171875 0.496094 C 14.570312 0.101562 14.613281 0.0390625 14.472656 0.0390625 C 14.402344 0.0390625 14.28125 0.132812 14 0.402344 L 13.625 0.765625 L 13.46875 0.703125 C 13.382812 0.664062 13.308594 0.628906 13.308594 0.613281 C 13.308594 0.597656 13.402344 0.496094 13.523438 0.382812 C 13.800781 0.109375 13.839844 0.0390625 13.714844 0.0390625 C 13.644531 0.0390625 13.53125 0.117188 13.34375 0.289062 L 13.078125 0.546875 L 12.910156 0.496094 C 12.8125 0.46875 12.734375 0.4375 12.734375 0.425781 C 12.734375 0.410156 12.789062 0.347656 12.851562 0.28125 C 12.917969 0.222656 12.988281 0.140625 13.007812 0.101562 C 13.078125 -0.0273438 12.867188 0.03125 12.683594 0.191406 C 12.496094 0.359375 12.480469 0.363281 12.265625 0.304688 L 12.117188 0.261719 L 12.203125 0.160156 L 12.285156 0.0585938 L 12.203125 0.046875 C 12.160156 0.0390625 12.074219 0.0703125 12.007812 0.117188 C 11.910156 0.183594 11.863281 0.191406 11.679688 0.167969 C 11.519531 0.148438 11.472656 0.132812 11.488281 0.09375 C 11.511719 0.0351562 11.339844 0.0117188 11.304688 0.0703125 C 11.292969 0.0898438 11.109375 0.078125 10.890625 0.0507812 C 10.460938 0 9.191406 -0.0078125 8.796875 0.0429688 Z M 5.679688 5.660156 L 1.894531 9.445312 L 1.882812 9.304688 C 1.851562 8.976562 1.707031 9.128906 5.417969 5.421875 C 7.800781 3.046875 8.960938 1.910156 9.027344 1.898438 C 9.078125 1.894531 9.199219 1.882812 9.292969 1.878906 L 9.464844 1.875 Z M 6.058594 6.042969 C 3.769531 8.335938 1.894531 10.203125 1.890625 10.199219 C 1.882812 10.195312 1.875 10.089844 1.867188 9.972656 L 1.863281 9.746094 L 9.730469 1.875 L 10.230469 1.875 Z M 10.84375 1.933594 C 10.890625 1.957031 9.851562 3.015625 6.441406 6.425781 C 3.980469 8.886719 1.957031 10.898438 1.945312 10.898438 C 1.929688 10.898438 1.910156 10.804688 1.898438 10.695312 L 1.882812 10.496094 L 6.167969 6.203125 L 10.460938 1.910156 L 10.617188 1.910156 C 10.707031 1.910156 10.804688 1.925781 10.84375 1.933594 Z M 5.296875 5.277344 C 3.464844 7.109375 1.964844 8.589844 1.957031 8.574219 C 1.957031 8.554688 1.972656 8.425781 2.003906 8.277344 L 2.058594 8.019531 L 8.011719 2.066406 L 8.257812 2.011719 C 8.398438 1.980469 8.535156 1.957031 8.566406 1.957031 C 8.597656 1.949219 7.125 3.449219 5.296875 5.277344 Z M 11.488281 2.054688 C 11.546875 2.070312 11.144531 2.488281 9.535156 4.097656 C 8.199219 5.433594 7.464844 6.148438 7.359375 6.195312 C 7.171875 6.285156 6.21875 7.242188 6.179688 7.378906 C 6.148438 7.488281 2.105469 11.558594 2.0625 11.527344 C 2.046875 11.519531 2.019531 11.429688 2.003906 11.335938 L 1.976562 11.160156 L 11.148438 1.988281 L 11.28125 2.007812 C 11.355469 2.019531 11.445312 2.042969 11.488281 2.054688 Z M 12.003906 2.179688 L 12.171875 2.226562 L 8.09375 6.300781 L 7.9375 6.21875 L 7.769531 6.136719 L 9.785156 4.121094 C 10.886719 3.015625 11.800781 2.113281 11.8125 2.121094 C 11.824219 2.125 11.914062 2.152344 12.003906 2.179688 Z M 7.609375 2.191406 C 7.609375 2.195312 6.378906 3.429688 4.878906 4.933594 L 2.140625 7.667969 L 2.386719 6.925781 L 6.910156 2.402344 L 7.214844 2.292969 C 7.484375 2.195312 7.609375 2.160156 7.609375 2.191406 Z M 12.59375 2.375 L 12.738281 2.421875 L 10.601562 4.558594 L 8.476562 6.691406 L 8.34375 6.570312 L 8.21875 6.449219 L 10.296875 4.371094 C 11.4375 3.226562 12.390625 2.296875 12.410156 2.308594 C 12.433594 2.316406 12.511719 2.34375 12.59375 2.375 Z M 13.089844 2.585938 C 13.15625 2.617188 13.21875 2.65625 13.230469 2.664062 C 13.238281 2.671875 12.261719 3.667969 11.054688 4.878906 L 8.855469 7.074219 L 8.597656 6.832031 L 10.753906 4.675781 C 11.941406 3.488281 12.925781 2.523438 12.941406 2.523438 C 12.953125 2.523438 13.023438 2.550781 13.089844 2.585938 Z M 6.386719 2.648438 C 6.386719 2.65625 5.535156 3.511719 4.488281 4.550781 L 2.59375 6.441406 L 2.753906 6.136719 C 3.117188 5.453125 3.246094 5.296875 4.308594 4.242188 C 5.351562 3.210938 5.441406 3.132812 6.117188 2.761719 C 6.3125 2.65625 6.386719 2.625 6.386719 2.648438 Z M 13.726562 2.9375 C 13.726562 2.953125 12.71875 3.972656 11.484375 5.210938 L 9.238281 7.457031 L 8.980469 7.214844 L 13.4375 2.757812 L 13.585938 2.832031 C 13.664062 2.875 13.726562 2.921875 13.726562 2.9375 Z M 11.925781 5.535156 L 9.621094 7.839844 L 9.492188 7.71875 L 9.363281 7.59375 L 13.929688 3.03125 L 14.230469 3.226562 Z M 14.644531 3.550781 C 14.644531 3.566406 14.070312 4.152344 13.367188 4.855469 C 12.4375 5.78125 12.058594 6.132812 12.007812 6.125 C 11.96875 6.117188 11.863281 6.132812 11.769531 6.15625 C 11.628906 6.195312 11.480469 6.328125 10.707031 7.097656 C 10.210938 7.589844 9.792969 7.992188 9.769531 7.992188 C 9.746094 7.992188 10.78125 6.945312 12.058594 5.664062 L 14.390625 3.335938 L 14.519531 3.429688 C 14.589844 3.484375 14.644531 3.535156 14.644531 3.550781 Z M 15.007812 3.824219 L 15.082031 3.902344 L 12.550781 6.4375 L 12.285156 6.214844 L 13.550781 4.945312 C 14.886719 3.601562 14.839844 3.636719 15.007812 3.824219 Z M 15.339844 4.132812 C 15.402344 4.175781 15.449219 4.234375 15.449219 4.253906 C 15.449219 4.285156 14.886719 4.871094 14.1875 5.5625 L 12.925781 6.824219 L 12.804688 6.699219 L 12.675781 6.578125 L 13.9375 5.316406 C 14.628906 4.621094 15.207031 4.050781 15.214844 4.050781 C 15.222656 4.050781 15.277344 4.085938 15.339844 4.132812 Z M 15.738281 4.550781 L 15.847656 4.667969 L 13.308594 7.207031 L 13.1875 7.082031 L 13.058594 6.960938 L 14.320312 5.699219 C 15.011719 5 15.589844 4.4375 15.605469 4.4375 C 15.617188 4.4375 15.675781 4.488281 15.738281 4.550781 Z M 16.140625 5.050781 C 16.164062 5.097656 15.886719 5.398438 14.808594 6.472656 L 13.441406 7.839844 L 13.441406 7.34375 L 15.964844 4.820312 L 16.035156 4.902344 C 16.074219 4.953125 16.121094 5.015625 16.140625 5.050781 Z M 16.402344 5.417969 L 16.492188 5.554688 L 14.203125 7.84375 L 11.917969 10.132812 L 11.785156 10.011719 L 11.660156 9.890625 L 13.96875 7.582031 C 15.238281 6.3125 16.28125 5.277344 16.289062 5.277344 C 16.304688 5.277344 16.351562 5.34375 16.402344 5.417969 Z M 16.71875 5.929688 L 16.761719 6.050781 L 14.53125 8.28125 L 12.300781 10.515625 L 12.167969 10.394531 L 12.042969 10.273438 L 14.308594 8.003906 C 15.9375 6.375 16.585938 5.75 16.621094 5.78125 C 16.644531 5.796875 16.6875 5.867188 16.71875 5.929688 Z M 16.957031 6.394531 L 17.019531 6.558594 L 14.851562 8.726562 L 12.683594 10.898438 L 12.550781 10.777344 L 12.425781 10.65625 L 14.636719 8.445312 C 15.851562 7.226562 16.859375 6.234375 16.867188 6.234375 C 16.878906 6.234375 16.917969 6.304688 16.957031 6.394531 Z M 15.15625 9.183594 L 13.0625 11.28125 L 12.804688 11.039062 L 17.109375 6.734375 L 17.246094 7.09375 Z M 17.378906 7.484375 L 17.4375 7.667969 L 13.414062 11.695312 L 13.304688 11.558594 L 13.203125 11.414062 L 15.253906 9.359375 C 16.382812 8.230469 17.308594 7.304688 17.3125 7.304688 C 17.3125 7.304688 17.34375 7.386719 17.378906 7.484375 Z M 6.265625 8.003906 C 6.320312 8.070312 6.21875 8.179688 4.277344 10.121094 L 2.226562 12.171875 L 2.109375 11.796875 L 4.121094 9.785156 C 5.9375 7.964844 6.136719 7.769531 6.167969 7.847656 C 6.183594 7.898438 6.226562 7.964844 6.265625 8.003906 Z M 17.542969 8.105469 L 17.578125 8.289062 L 8.273438 17.59375 L 8.078125 17.542969 L 7.875 17.5 L 9.894531 15.480469 C 11.332031 14.042969 11.933594 13.460938 11.996094 13.460938 C 12.175781 13.460938 12.316406 13.359375 12.828125 12.855469 C 13.335938 12.347656 13.460938 12.183594 13.460938 12 C 13.460938 11.933594 13.988281 11.382812 15.457031 9.914062 C 16.558594 8.816406 17.46875 7.914062 17.480469 7.914062 C 17.496094 7.914062 17.523438 8 17.542969 8.105469 Z M 6.570312 8.347656 L 6.691406 8.476562 L 2.421875 12.742188 L 2.28125 12.382812 L 4.363281 10.300781 C 5.507812 9.160156 6.441406 8.222656 6.449219 8.222656 C 6.449219 8.222656 6.5 8.277344 6.570312 8.347656 Z M 17.664062 8.851562 C 17.667969 8.957031 17.238281 9.402344 13.316406 13.320312 C 9.191406 17.441406 8.960938 17.667969 8.835938 17.667969 C 8.761719 17.667969 8.65625 17.65625 8.609375 17.640625 C 8.53125 17.621094 9.023438 17.117188 13.0625 13.070312 C 17.355469 8.78125 17.609375 8.53125 17.632812 8.628906 C 17.648438 8.691406 17.660156 8.792969 17.664062 8.851562 Z M 6.953125 8.734375 L 7.074219 8.855469 L 4.863281 11.070312 L 2.648438 13.277344 L 2.511719 12.917969 L 4.667969 10.761719 C 5.855469 9.574219 6.824219 8.605469 6.832031 8.605469 C 6.832031 8.605469 6.886719 8.660156 6.953125 8.734375 Z M 5.195312 11.5 C 3.648438 13.042969 2.917969 13.75 2.898438 13.71875 C 2.878906 13.691406 2.835938 13.621094 2.804688 13.5625 L 2.746094 13.449219 L 7.207031 8.988281 L 7.464844 9.230469 Z M 13.683594 13.71875 L 9.65625 17.742188 L 9.433594 17.71875 L 9.207031 17.695312 L 17.6875 9.214844 L 17.710938 9.691406 Z M 7.71875 9.496094 L 7.839844 9.621094 L 3.21875 14.238281 L 3.023438 13.9375 L 5.304688 11.65625 C 6.5625 10.398438 7.589844 9.371094 7.59375 9.371094 C 7.59375 9.371094 7.648438 9.425781 7.71875 9.496094 Z M 7.125 10.679688 C 6.636719 11.167969 6.222656 11.609375 6.199219 11.65625 C 6.171875 11.703125 6.148438 11.820312 6.140625 11.917969 C 6.132812 12.089844 6.132812 12.089844 4.835938 13.382812 L 3.542969 14.683594 L 3.4375 14.539062 L 3.332031 14.398438 L 5.648438 12.074219 C 6.925781 10.796875 7.976562 9.761719 7.988281 9.777344 C 8 9.785156 7.609375 10.191406 7.125 10.679688 Z M 14.085938 14.074219 L 10.460938 17.699219 L 9.929688 17.738281 L 17.6875 9.980469 L 17.710938 10.453125 Z M 17.621094 11.070312 L 17.582031 11.339844 L 14.46875 14.457031 C 11.535156 17.394531 11.339844 17.582031 11.1875 17.605469 C 11.101562 17.621094 10.972656 17.640625 10.898438 17.652344 C 10.78125 17.671875 11.152344 17.289062 14.207031 14.230469 C 16.09375 12.339844 17.648438 10.792969 17.652344 10.796875 C 17.65625 10.796875 17.640625 10.921875 17.621094 11.070312 Z M 7.84375 14.203125 L 5.554688 16.492188 L 5.414062 16.410156 C 5.335938 16.359375 5.277344 16.308594 5.277344 16.296875 C 5.277344 16.28125 6.3125 15.238281 7.578125 13.96875 L 9.882812 11.664062 L 10.011719 11.785156 L 10.136719 11.910156 Z M 17.386719 12.089844 L 17.285156 12.410156 L 12.40625 17.289062 L 12.113281 17.378906 C 11.949219 17.4375 11.792969 17.476562 11.769531 17.476562 C 11.738281 17.476562 13.007812 16.1875 14.589844 14.609375 C 16.164062 13.03125 17.460938 11.746094 17.46875 11.753906 C 17.476562 11.761719 17.4375 11.917969 17.386719 12.089844 Z M 8.273438 14.539062 L 6.027344 16.785156 L 5.890625 16.703125 C 5.816406 16.65625 5.75 16.613281 5.734375 16.609375 C 5.726562 16.601562 6.742188 15.574219 7.992188 14.320312 L 10.265625 12.046875 L 10.394531 12.167969 L 10.519531 12.292969 Z M 5.179688 13.8125 L 3.886719 15.097656 L 3.773438 14.964844 L 3.660156 14.835938 L 4.9375 13.554688 L 6.210938 12.277344 L 6.464844 12.519531 Z M 8.722656 14.855469 L 6.542969 17.035156 L 6.390625 16.960938 C 6.300781 16.921875 6.234375 16.878906 6.234375 16.867188 C 6.234375 16.859375 7.226562 15.851562 8.441406 14.636719 L 10.648438 12.429688 L 10.902344 12.675781 Z M 5.554688 14.195312 L 4.269531 15.488281 L 4.015625 15.246094 L 6.589844 12.660156 L 6.847656 12.902344 Z M 9.183594 15.160156 L 7.082031 17.257812 L 6.722656 17.121094 L 11.03125 12.8125 L 11.160156 12.933594 L 11.285156 13.054688 Z M 17.039062 13.03125 C 17.003906 13.109375 16.898438 13.320312 16.804688 13.5 C 16.640625 13.804688 16.539062 13.917969 15.230469 15.230469 L 13.828125 16.628906 L 13.382812 16.863281 C 13.136719 16.992188 12.917969 17.09375 12.902344 17.09375 C 12.882812 17.09375 13.816406 16.148438 14.972656 14.988281 C 16.125 13.832031 17.078125 12.886719 17.085938 12.886719 C 17.089844 12.886719 17.070312 12.953125 17.039062 13.03125 Z M 7.191406 13.285156 C 7.191406 13.308594 6.621094 13.894531 5.929688 14.585938 L 4.671875 15.84375 L 4.398438 15.621094 L 5.6875 14.332031 L 6.976562 13.039062 L 7.082031 13.140625 C 7.140625 13.203125 7.191406 13.265625 7.191406 13.285156 Z M 9.683594 15.421875 C 7.53125 17.578125 7.667969 17.460938 7.390625 17.359375 C 7.289062 17.320312 7.3125 17.292969 9.347656 15.261719 L 11.40625 13.203125 L 11.550781 13.304688 L 11.699219 13.402344 Z M 6.46875 14.808594 L 5.089844 16.1875 L 4.953125 16.078125 L 4.8125 15.972656 L 7.355469 13.429688 L 7.597656 13.433594 L 7.84375 13.433594 Z M 6.46875 14.808594 "/>
<path style=" stroke:none;fill-rule:nonzero;fill:rgb(0%,0%,0%);fill-opacity:1;" d="M 0.777344 0.621094 C 0.109375 1.277344 0.0273438 1.378906 0.046875 1.503906 C 0.0585938 1.574219 0.167969 1.484375 0.78125 0.878906 C 1.175781 0.488281 1.511719 0.140625 1.53125 0.101562 C 1.5625 0.0507812 1.550781 0.0390625 1.46875 0.0390625 C 1.386719 0.0390625 1.238281 0.164062 0.777344 0.621094 Z M 0.777344 0.621094 "/>
<path style=" stroke:none;fill-rule:nonzero;fill:rgb(0%,0%,0%);fill-opacity:1;" d="M 1.160156 1.003906 C 0.625 1.53125 0.148438 2.015625 0.109375 2.078125 C 0.0703125 2.132812 0.0390625 2.21875 0.046875 2.265625 C 0.0585938 2.339844 0.230469 2.179688 1.160156 1.261719 C 1.769531 0.660156 2.28125 0.140625 2.296875 0.101562 C 2.328125 0.0507812 2.316406 0.0390625 2.234375 0.0390625 C 2.148438 0.0390625 1.945312 0.21875 1.160156 1.003906 Z M 1.160156 1.003906 "/>
<path style=" stroke:none;fill-rule:nonzero;fill:rgb(0%,0%,0%);fill-opacity:1;" d="M 1.535156 1.386719 C 0.796875 2.125 0.152344 2.78125 0.109375 2.84375 C 0.0703125 2.898438 0.0390625 2.984375 0.046875 3.03125 C 0.0625 3.101562 0.304688 2.878906 1.542969 1.644531 C 2.359375 0.832031 3.046875 0.140625 3.0625 0.101562 C 3.09375 0.0507812 3.082031 0.0390625 2.992188 0.0390625 C 2.910156 0.0390625 2.65625 0.273438 1.535156 1.386719 Z M 1.535156 1.386719 "/>
<path style=" stroke:none;fill-rule:nonzero;fill:rgb(0%,0%,0%);fill-opacity:1;" d="M 1.917969 1.769531 C 0.964844 2.71875 0.152344 3.546875 0.109375 3.609375 C 0.0703125 3.664062 0.0390625 3.746094 0.046875 3.796875 C 0.0625 3.867188 0.367188 3.578125 1.925781 2.027344 C 2.953125 1.007812 3.808594 0.140625 3.828125 0.101562 C 3.855469 0.0507812 3.847656 0.0390625 3.761719 0.0390625 C 3.675781 0.0390625 3.363281 0.328125 1.917969 1.769531 Z M 1.917969 1.769531 "/>
<path style=" stroke:none;fill-rule:nonzero;fill:rgb(0%,0%,0%);fill-opacity:1;" d="M 2.300781 2.148438 C 1.136719 3.3125 0.152344 4.308594 0.109375 4.371094 C 0.0703125 4.429688 0.0390625 4.511719 0.046875 4.5625 C 0.0625 4.632812 0.433594 4.277344 2.308594 2.410156 C 3.546875 1.175781 4.574219 0.140625 4.59375 0.101562 C 4.625 0.0507812 4.613281 0.0390625 4.527344 0.0390625 C 4.4375 0.0390625 4.074219 0.386719 2.300781 2.148438 Z M 2.300781 2.148438 "/>
<path style=" stroke:none;fill-rule:nonzero;fill:rgb(0%,0%,0%);fill-opacity:1;" d="M 2.683594 2.53125 C 1.3125 3.902344 0.152344 5.074219 0.109375 5.136719 C 0.0703125 5.195312 0.0390625 5.277344 0.046875 5.328125 C 0.0625 5.398438 0.496094 4.976562 2.691406 2.789062 C 4.136719 1.347656 5.335938 0.140625 5.359375 0.101562 C 5.386719 0.0507812 5.375 0.0390625 5.289062 0.0390625 C 5.203125 0.0390625 4.78125 0.445312 2.683594 2.53125 Z M 2.683594 2.53125 "/>
<path style=" stroke:none;fill-rule:nonzero;fill:rgb(0%,0%,0%);fill-opacity:1;" d="M 16.8125 16.710938 C 15.304688 18.214844 14.050781 19.476562 14.03125 19.511719 C 14 19.566406 14.011719 19.582031 14.101562 19.582031 C 14.1875 19.582031 14.621094 19.160156 16.820312 16.964844 C 18.257812 15.535156 19.464844 14.3125 19.503906 14.253906 C 19.550781 14.195312 19.582031 14.113281 19.574219 14.058594 C 19.558594 13.992188 19.097656 14.433594 16.8125 16.710938 Z M 16.8125 16.710938 "/>
<path style=" stroke:none;fill-rule:nonzero;fill:rgb(0%,0%,0%);fill-opacity:1;" d="M 17.191406 17.09375 C 15.898438 18.386719 14.816406 19.476562 14.792969 19.511719 C 14.765625 19.566406 14.777344 19.582031 14.867188 19.582031 C 14.953125 19.582031 15.335938 19.214844 17.199219 17.347656 C 18.429688 16.125 19.464844 15.082031 19.503906 15.019531 C 19.550781 14.960938 19.582031 14.878906 19.574219 14.824219 C 19.558594 14.757812 19.167969 15.132812 17.191406 17.09375 Z M 17.191406 17.09375 "/>
<path style=" stroke:none;fill-rule:nonzero;fill:rgb(0%,0%,0%);fill-opacity:1;" d="M 17.574219 17.476562 C 16.492188 18.558594 15.578125 19.476562 15.5625 19.515625 C 15.53125 19.566406 15.542969 19.582031 15.628906 19.582031 C 15.71875 19.582031 16.042969 19.273438 17.582031 17.730469 C 18.601562 16.71875 19.464844 15.84375 19.503906 15.785156 C 19.550781 15.726562 19.582031 15.640625 19.574219 15.589844 C 19.558594 15.523438 19.230469 15.832031 17.574219 17.476562 Z M 17.574219 17.476562 "/>
<path style=" stroke:none;fill-rule:nonzero;fill:rgb(0%,0%,0%);fill-opacity:1;" d="M 17.957031 17.859375 C 17.085938 18.730469 16.34375 19.476562 16.324219 19.511719 C 16.292969 19.566406 16.304688 19.582031 16.394531 19.582031 C 16.476562 19.582031 16.75 19.328125 17.964844 18.113281 C 18.773438 17.3125 19.464844 16.609375 19.503906 16.546875 C 19.550781 16.492188 19.582031 16.40625 19.574219 16.355469 C 19.558594 16.289062 19.296875 16.53125 17.957031 17.859375 Z M 17.957031 17.859375 "/>
<path style=" stroke:none;fill-rule:nonzero;fill:rgb(0%,0%,0%);fill-opacity:1;" d="M 18.339844 18.242188 C 17.675781 18.902344 17.109375 19.476562 17.089844 19.511719 C 17.058594 19.566406 17.070312 19.582031 17.15625 19.582031 C 17.242188 19.582031 17.460938 19.382812 18.347656 18.5 C 18.945312 17.90625 19.46875 17.375 19.503906 17.3125 C 19.550781 17.253906 19.582031 17.171875 19.574219 17.121094 C 19.558594 17.054688 19.367188 17.230469 18.339844 18.242188 Z M 18.339844 18.242188 "/>
<path style=" stroke:none;fill-rule:nonzero;fill:rgb(0%,0%,0%);fill-opacity:1;" d="M 18.722656 18.625 C 18.265625 19.078125 17.875 19.476562 17.855469 19.511719 C 17.824219 19.566406 17.835938 19.582031 17.917969 19.582031 C 18.003906 19.582031 18.167969 19.4375 18.726562 18.878906 C 19.511719 18.109375 19.59375 18.011719 19.574219 17.886719 C 19.5625 17.816406 19.429688 17.925781 18.722656 18.625 Z M 18.722656 18.625 "/>
<path style=" stroke:none;fill-rule:nonzero;fill:rgb(0%,0%,0%);fill-opacity:1;" d="M 19.105469 19.007812 C 18.585938 19.515625 18.535156 19.582031 18.679688 19.582031 C 18.75 19.582031 18.867188 19.492188 19.105469 19.265625 C 19.496094 18.890625 19.59375 18.769531 19.574219 18.648438 C 19.5625 18.578125 19.5 18.625 19.105469 19.007812 Z M 19.105469 19.007812 "/>
</g>
</svg>
