<?xml version="1.0" standalone="no"?>
<!DOCTYPE svg PUBLIC "-//W3C//DTD SVG 20010904//EN"
 "http://www.w3.org/TR/2001/REC-SVG-20010904/DTD/svg10.dtd">
<svg version="1.0" xmlns="http://www.w3.org/2000/svg"
 width="900.000000pt" height="900.000000pt" viewBox="0 0 1600.000000 1700.000000"
 preserveAspectRatio="xMidYMid meet">
<metadata>
Created by potrace 1.15, written by Peter Selinger 2001-2017
</metadata>
<g transform="translate(0.000000,1700.000000) scale(0.100000,-0.100000)"
fill="#0062AE" stroke="none">
<path d="M6905 13885 c-95 -21 -171 -53 -245 -103 -67 -46 -145 -120 -635
-601 -211 -207 -586 -575 -1385 -1356 -409 -401 -452 -445 -501 -531 -58 -99
-93 -187 -113 -286 -14 -69 -16 -338 -16 -2584 l0 -2507 36 -43 c43 -53 57
-56 51 -9 -5 40 1 77 13 70 4 -2 12 7 18 20 7 14 20 25 31 25 11 0 23 4 26 10
3 5 13 10 22 10 13 0 15 -11 11 -72 -3 -40 -9 -81 -13 -90 -5 -14 -2 -18 14
-18 14 0 29 12 42 35 17 28 24 33 35 25 7 -7 10 -18 7 -26 -4 -12 -8 -12 -21
-2 -14 12 -14 10 -2 -12 7 -14 9 -22 5 -18 -4 4 -15 -2 -24 -13 -23 -28 -84
-36 -117 -14 l-27 17 7 -41 c7 -48 -18 -116 -40 -107 -8 3 -11 0 -8 -9 3 -7
-3 -16 -14 -19 -19 -6 -19 -9 -5 -74 120 -534 495 -1010 991 -1256 183 -91
316 -137 526 -179 l111 -22 2089 -3 c1690 -2 2087 0 2079 10 -5 7 -26 33 -45
58 -34 42 -100 140 -301 450 l-78 120 -1847 3 -1847 3 -90 21 c-262 62 -452
168 -635 352 -157 158 -265 350 -321 568 -27 102 -31 142 -36 296 -3 98 -9
180 -14 182 -4 3 -5 -3 -2 -13 6 -26 -39 -70 -80 -77 -24 -5 -46 -2 -68 9 -39
19 -36 19 -43 0 -3 -8 -2 -12 3 -9 13 7 23 -27 17 -58 -7 -42 -24 -64 -61 -81
-36 -17 -43 -30 -25 -41 6 -4 8 -16 5 -28 -5 -17 -4 -19 4 -7 8 12 13 12 23 2
10 -10 9 -15 -3 -28 -14 -14 -21 -9 -70 48 -30 35 -57 65 -60 68 -17 14 -30
54 -26 80 7 42 17 55 29 39 7 -10 8 -8 3 7 -6 25 6 36 57 55 35 12 39 11 54
-7 8 -10 12 -13 8 -5 -4 9 -2 12 7 9 8 -3 13 -11 11 -17 -1 -6 2 -11 6 -11 17
0 20 12 10 41 -21 60 34 139 97 139 18 0 24 -4 19 -12 -5 -8 0 -7 11 2 17 13
18 13 13 -1 -5 -13 -2 -16 13 -12 15 4 22 0 26 -16 3 -11 10 -21 15 -21 5 0 6
-4 3 -10 -3 -6 -1 -10 4 -10 22 0 12 70 -14 96 -32 32 -32 58 0 86 19 16 25
31 25 62 0 23 -4 48 -10 56 -5 9 -5 19 1 26 5 7 10 858 11 2197 2 1441 6 2189
13 2195 6 5 242 17 525 26 342 10 542 21 595 31 300 54 563 193 780 409 213
214 336 442 394 735 20 96 21 138 21 601 l0 499 27 21 26 21 1621 -4 c1782 -3
1644 2 1841 -63 247 -81 501 -274 642 -489 62 -93 137 -253 163 -345 52 -188
50 -33 50 -3290 l1 -3025 102 -75 c187 -137 334 -307 413 -475 16 -33 30 -62
31 -64 6 -10 14 10 32 80 35 140 38 124 -25 124 -50 0 -58 3 -80 30 -38 47
-40 80 -9 126 14 22 39 46 55 53 l29 12 -30 34 c-44 51 -51 66 -35 79 11 9 20
4 42 -22 59 -67 89 -109 95 -130 17 -63 20 514 17 3333 -3 3279 -2 3201 -49
3213 -10 3 -17 0 -16 -7 3 -14 -45 -11 -79 6 -15 7 -35 29 -45 48 -16 30 -17
41 -7 73 6 20 14 37 18 37 3 0 15 8 26 18 29 27 47 31 61 13 7 -9 13 -11 13
-4 0 6 -15 26 -32 45 -68 69 -74 78 -58 88 21 13 33 12 24 -2 -4 -7 -3 -8 5
-4 8 6 10 0 6 -21 l-5 -28 11 27 c9 24 5 41 -31 122 -207 472 -618 851 -1105
1019 -113 39 -148 49 -290 79 l-100 22 -1685 2 c-1375 2 -1696 0 -1745 -11z"/>
<path d="M7770 10599 c-760 -56 -1451 -435 -1910 -1048 -225 -301 -389 -668
-464 -1041 -53 -261 -66 -599 -33 -855 23 -176 89 -452 125 -520 9 -16 17 -37
18 -45 5 -68 53 -131 81 -108 22 18 51 -15 33 -36 -7 -9 -18 -16 -26 -16 -29
0 -22 -24 41 -145 159 -309 356 -557 629 -792 468 -402 1070 -623 1696 -623
362 0 710 72 1044 215 88 38 148 68 297 153 l36 20 66 -101 c147 -226 311
-480 405 -627 276 -431 356 -550 404 -600 255 -269 654 -318 963 -118 121 78
226 202 283 333 98 227 79 488 -52 704 -63 103 -155 183 -606 523 -52 40 -97
75 -100 78 -3 3 -39 31 -80 62 -41 31 -129 99 -196 150 -66 51 -171 131 -232
178 -61 47 -111 89 -112 94 0 5 20 39 44 75 220 331 357 670 420 1041 42 245
46 579 11 810 -73 476 -258 904 -551 1270 -132 166 -375 392 -544 507 -45 31
-46 31 -69 12 -26 -21 -90 -26 -122 -9 -28 16 -57 80 -52 116 5 31 3 32 -99
82 -196 95 -318 140 -523 191 -279 69 -543 91 -825 70z m1239 -424 l35 -44 14
30 c24 49 57 48 147 -4 113 -66 116 -68 104 -83 -18 -22 -34 -18 -115 30 -42
25 -82 42 -89 40 -33 -13 -25 -59 17 -104 62 -68 62 -68 45 -85 -9 -8 -19 -15
-24 -15 -4 1 -28 26 -53 56 -25 31 -52 63 -60 72 -85 95 -109 129 -98 140 21
21 42 12 77 -33z m6 -127 c71 -32 85 -138 25 -190 -16 -16 -37 -28 -45 -28
-20 0 -19 -12 3 -32 33 -32 41 -45 31 -55 -6 -6 9 -21 42 -42 142 -88 359
-280 460 -407 28 -35 56 -61 61 -57 7 3 8 1 4 -5 -4 -6 22 -53 58 -104 153
-221 265 -503 322 -805 21 -116 30 -441 15 -558 -40 -314 -131 -582 -281 -830
-29 -47 -48 -90 -44 -96 4 -7 3 -9 -4 -5 -6 3 -21 -8 -33 -26 -39 -57 -161
-201 -219 -258 -108 -109 -295 -255 -405 -317 -224 -128 -431 -205 -680 -253
-154 -31 -454 -38 -621 -16 -508 67 -988 327 -1299 704 -15 17 -32 29 -37 25
-7 -3 -8 -1 -4 6 4 6 -13 37 -41 74 -166 211 -312 542 -367 834 -125 664 89
1351 569 1828 417 416 1012 635 1588 587 165 -14 348 -49 475 -92 50 -16 93
-30 96 -30 3 0 6 9 6 20 0 24 17 26 42 3 16 -15 22 -15 40 -4 17 11 22 10 29
-1 13 -19 11 -29 -8 -43 -15 -11 -7 -18 66 -54 46 -23 86 -41 89 -41 3 0 -8
15 -24 33 -57 60 -74 89 -74 125 0 87 87 146 165 110z m-3207 -2710 c-2 -15
-11 -24 -25 -26 -13 -2 -23 -10 -23 -18 0 -11 12 -14 52 -13 42 2 54 -2 70
-20 10 -13 18 -33 18 -45 0 -33 -36 -66 -70 -66 -25 0 -30 4 -30 23 0 18 5 23
23 23 16 -1 22 5 22 19 0 18 -6 20 -51 17 -58 -4 -77 11 -77 60 0 36 32 68 70
68 20 0 24 -4 21 -22z m-92 -118 c58 -37 69 -123 20 -169 -75 -70 -186 -28
-186 71 0 94 88 146 166 98z"/>
<path d="M7676 8515 c-21 -7 -62 -36 -90 -64 -28 -27 -69 -67 -91 -88 -23 -21
-144 -137 -269 -258 -125 -121 -232 -222 -238 -224 -5 -2 -31 18 -57 43 -26
26 -51 43 -56 39 -4 -5 -5 -3 -2 3 8 14 -76 97 -88 87 -4 -5 -5 -2 -1 5 15 26
-75 83 -134 84 -79 1 -145 -40 -170 -106 -14 -37 -15 -104 -2 -137 15 -38 397
-418 437 -435 43 -18 96 -18 139 0 18 7 127 105 242 217 115 112 263 256 328
319 267 257 286 280 286 352 0 40 -30 106 -58 131 -23 21 -87 46 -117 46 -11
0 -38 -6 -59 -14z"/>
<path d="M8459 8506 c-26 -14 -43 -30 -43 -39 1 -9 -2 -14 -7 -12 -14 9 -39
-51 -39 -94 0 -22 5 -52 11 -68 6 -15 71 -89 145 -163 74 -75 134 -138 134
-141 0 -3 -57 -62 -126 -130 -134 -132 -163 -176 -164 -247 0 -131 150 -211
265 -141 17 10 86 74 155 143 l124 125 141 -138 c114 -113 149 -141 183 -150
105 -29 201 36 218 145 11 73 -7 101 -151 246 -74 75 -135 139 -135 144 0 4
60 69 134 144 112 113 136 142 146 180 22 81 -16 166 -92 206 -32 16 -105 18
-144 4 -14 -6 -89 -72 -165 -147 l-139 -136 -135 134 c-74 74 -147 139 -162
146 -45 20 -106 15 -154 -11z"/>
<path d="M4504 6236 c-12 -9 -23 -14 -25 -11 -2 2 -5 -16 -7 -39 -2 -31 2 -47
15 -58 20 -18 83 -29 83 -16 0 5 10 7 23 4 12 -3 17 -3 10 0 -8 4 -9 13 -3 29
5 14 5 36 0 54 -6 21 -5 31 3 34 7 3 1 5 -13 5 -14 0 -34 3 -45 6 -12 4 -29 0
-41 -8z"/>
</g>
</svg>
