<?xml version="1.0" encoding="UTF-8"?>
<svg xmlns="http://www.w3.org/2000/svg" xmlns:xlink="http://www.w3.org/1999/xlink" width="150pt" height="150pt" viewBox="0 0 150 150" version="1.1">
<g id="surface1">
<path style=" stroke:none;fill-rule:nonzero;fill:rgb(0%,38.431373%,68.235294%);fill-opacity:1;" d="M 132.378906 104.015625 C 156.144531 80.25 156.144531 41.585938 132.378906 17.824219 C 108.617188 -5.941406 69.953125 -5.941406 46.1875 17.824219 C 26.027344 37.980469 22.976562 67.964844 37.019531 91.378906 C 37.019531 91.378906 38.03125 93.070312 36.667969 94.433594 C 28.894531 102.207031 5.574219 125.527344 5.574219 125.527344 C -0.617188 131.71875 -2.089844 140.371094 3.398438 145.859375 L 4.34375 146.804688 C 9.832031 152.292969 18.488281 150.820312 24.675781 144.632812 C 24.675781 144.632812 47.949219 121.359375 55.707031 113.601562 C 57.132812 112.175781 58.824219 113.183594 58.824219 113.183594 C 82.238281 127.226562 112.222656 124.175781 132.378906 104.015625 Z M 57.441406 92.761719 C 39.882812 75.203125 39.882812 46.632812 57.441406 29.074219 C 75 11.519531 103.570312 11.515625 121.128906 29.074219 C 138.6875 46.632812 138.6875 75.203125 121.128906 92.761719 C 103.570312 110.320312 75 110.320312 57.441406 92.761719 Z M 57.441406 92.761719 "/>
<path style=" stroke:none;fill-rule:nonzero;fill:rgb(0%,38.431373%,68.235294%);fill-opacity:1;" d="M 89.472656 39.886719 C 71.074219 39.886719 56.160156 58.234375 56.160156 61.230469 C 56.160156 64.140625 71.074219 82.578125 89.472656 82.578125 C 107.867188 82.578125 122.78125 64.222656 122.78125 61.230469 C 122.78125 58.242188 107.867188 39.886719 89.472656 39.886719 Z M 89.472656 76.421875 C 81.082031 76.421875 74.28125 69.621094 74.28125 61.230469 C 74.28125 52.839844 81.082031 46.039062 89.472656 46.039062 C 97.863281 46.039062 104.664062 52.839844 104.664062 61.230469 C 104.664062 69.621094 97.863281 76.421875 89.472656 76.421875 Z M 89.472656 76.421875 "/>
<path style=" stroke:none;fill-rule:nonzero;fill:rgb(0%,38.431373%,68.235294%);fill-opacity:1;" d="M 97.210938 61.230469 C 97.210938 65.503906 93.746094 68.96875 89.472656 68.96875 C 85.199219 68.96875 81.734375 65.503906 81.734375 61.230469 C 81.734375 56.957031 85.199219 53.492188 89.472656 53.492188 C 93.746094 53.492188 97.210938 56.957031 97.210938 61.230469 Z M 97.210938 61.230469 "/>
</g>
</svg>
