<?xml version="1.0" encoding="UTF-8"?>
<svg xmlns="http://www.w3.org/2000/svg" xmlns:xlink="http://www.w3.org/1999/xlink" width="100pt" height="100pt" viewBox="0 0 100 100" version="1.1">
<g id="surface1">
<path style=" stroke:none;fill-rule:nonzero;fill:rgb(0%,0%,0%);fill-opacity:1;" d="M 71.332031 74.507812 C 66.964844 74.507812 63.40625 70.949219 63.40625 66.578125 C 63.40625 64.933594 63.921875 63.347656 64.878906 61.996094 L 62.300781 60.144531 C 60.949219 62.042969 60.246094 64.269531 60.246094 66.578125 C 60.246094 72.695312 65.21875 77.671875 71.332031 77.671875 C 73.648438 77.671875 75.871094 76.960938 77.761719 75.613281 L 75.921875 73.035156 C 74.570312 73.996094 72.988281 74.507812 71.332031 74.507812 Z M 71.332031 74.507812 "/>
<path style=" stroke:none;fill-rule:nonzero;fill:rgb(0%,0%,0%);fill-opacity:1;" d="M 84.015625 34.878906 L 84.015625 30.121094 C 84.015625 26.625 81.179688 23.773438 77.671875 23.773438 L 77.671875 17.445312 L 72.917969 17.445312 L 72.917969 14.269531 L 76.089844 14.269531 L 76.089844 4.753906 L 66.578125 4.753906 L 66.578125 14.269531 L 69.75 14.269531 L 69.75 17.445312 L 64.988281 17.445312 L 64.988281 34.878906 L 61.824219 34.878906 L 61.824219 26.222656 C 61.824219 23.109375 59.597656 20.480469 56.523438 19.96875 L 52.316406 19.269531 L 52.316406 17.445312 L 52.265625 17.445312 C 54.207031 15.988281 55.480469 13.695312 55.480469 11.089844 L 55.480469 7.921875 C 55.480469 3.550781 51.925781 0 47.558594 0 C 43.1875 0 39.636719 3.550781 39.636719 7.921875 L 39.636719 11.089844 C 39.636719 13.695312 40.90625 15.988281 42.855469 17.445312 L 42.804688 17.445312 L 42.804688 19.269531 L 38.59375 19.96875 C 35.519531 20.480469 33.289062 23.109375 33.289062 26.222656 L 33.289062 34.878906 L 31.707031 34.878906 L 31.707031 26.222656 C 31.707031 23.109375 29.480469 20.480469 26.410156 19.96875 L 22.191406 19.269531 L 22.191406 17.445312 L 22.140625 17.445312 C 24.085938 15.988281 25.363281 13.695312 25.363281 11.089844 L 25.363281 7.921875 C 25.363281 3.550781 21.808594 0 17.445312 0 C 13.066406 0 9.507812 3.550781 9.507812 7.921875 L 9.507812 11.089844 C 9.507812 13.695312 10.789062 15.988281 12.726562 17.445312 L 12.683594 17.445312 L 12.683594 19.269531 L 8.464844 19.96875 C 5.394531 20.480469 3.171875 23.109375 3.171875 26.222656 L 3.171875 34.878906 L 0 34.878906 L 0 98.28125 L 98.28125 98.28125 L 98.28125 34.878906 Z M 69.75 7.921875 L 72.917969 7.921875 L 72.917969 11.089844 L 69.75 11.089844 Z M 74.507812 20.613281 L 74.507812 23.773438 L 68.160156 23.773438 L 68.160156 20.613281 Z M 83.589844 59.292969 C 84.28125 60.46875 84.808594 61.734375 85.148438 63.058594 L 85.386719 64.035156 L 88.773438 64.707031 L 88.773438 68.457031 L 85.386719 69.125 L 85.148438 70.089844 C 84.808594 71.421875 84.28125 72.6875 83.589844 73.855469 L 83.078125 74.714844 L 84.984375 77.578125 L 82.335938 80.238281 L 79.464844 78.3125 L 78.605469 78.824219 C 77.449219 79.519531 76.179688 80.050781 74.855469 80.390625 L 73.882812 80.636719 L 73.210938 84.015625 L 69.464844 84.015625 L 68.785156 80.636719 L 67.820312 80.390625 C 66.496094 80.050781 65.222656 79.519531 64.0625 78.832031 L 63.195312 78.324219 L 60.324219 80.238281 L 57.679688 77.585938 L 59.59375 74.714844 L 59.085938 73.859375 C 58.386719 72.6875 57.863281 71.421875 57.519531 70.089844 L 57.277344 69.125 L 53.894531 68.457031 L 53.894531 64.707031 L 57.277344 64.035156 L 57.519531 63.0625 C 57.863281 61.734375 58.386719 60.476562 59.085938 59.292969 L 59.589844 58.445312 L 57.679688 55.570312 L 60.324219 52.925781 L 63.191406 54.839844 L 64.054688 54.332031 C 64.355469 54.152344 64.675781 54.023438 64.988281 53.855469 L 64.988281 62.355469 L 71.332031 70.800781 L 77.671875 62.355469 L 77.671875 61.839844 C 78.683594 63.191406 79.269531 64.851562 79.269531 66.578125 C 79.269531 68.226562 78.746094 69.816406 77.789062 71.164062 L 80.367188 73.007812 C 81.71875 71.109375 82.433594 68.894531 82.433594 66.578125 C 82.433594 62.957031 80.625 59.566406 77.671875 57.496094 L 77.671875 53.855469 C 77.992188 54.011719 78.308594 54.144531 78.605469 54.332031 L 79.464844 54.832031 L 82.335938 52.925781 L 84.984375 55.570312 L 83.078125 58.445312 Z M 68.160156 58.652344 L 74.507812 58.652344 L 74.507812 61.292969 L 71.332031 65.519531 L 68.160156 61.292969 Z M 74.507812 55.480469 L 68.160156 55.480469 L 68.160156 26.949219 L 74.507812 26.949219 Z M 42.804688 7.921875 C 42.804688 5.296875 44.933594 3.171875 47.558594 3.171875 C 50.183594 3.171875 52.316406 5.296875 52.316406 7.921875 L 52.316406 11.089844 C 52.316406 13.71875 50.183594 15.851562 47.558594 15.851562 C 44.933594 15.851562 42.804688 13.71875 42.804688 11.089844 Z M 36.460938 26.222656 C 36.460938 24.664062 37.574219 23.347656 39.109375 23.09375 L 45.96875 21.953125 L 45.96875 18.863281 C 46.480469 18.957031 47.015625 19.019531 47.558594 19.019531 C 48.101562 19.019531 48.625 18.957031 49.140625 18.863281 L 49.140625 21.953125 L 56.003906 23.09375 C 57.535156 23.347656 58.652344 24.664062 58.652344 26.222656 L 58.652344 34.878906 L 36.460938 34.878906 Z M 12.683594 7.921875 C 12.683594 5.296875 14.820312 3.171875 17.445312 3.171875 C 20.054688 3.171875 22.191406 5.296875 22.191406 7.921875 L 22.191406 11.089844 C 22.191406 13.71875 20.054688 15.851562 17.445312 15.851562 C 14.820312 15.851562 12.683594 13.71875 12.683594 11.089844 Z M 6.339844 26.222656 C 6.339844 24.664062 7.457031 23.347656 8.992188 23.09375 L 15.851562 21.953125 L 15.851562 18.863281 C 16.363281 18.957031 16.894531 19.019531 17.445312 19.019531 C 17.980469 19.019531 18.507812 18.957031 19.019531 18.863281 L 19.019531 21.953125 L 25.886719 23.09375 C 27.414062 23.347656 28.53125 24.664062 28.53125 26.222656 L 28.53125 34.878906 L 6.339844 34.878906 Z M 95.109375 95.109375 L 3.171875 95.109375 L 3.171875 38.054688 L 64.988281 38.054688 L 64.988281 50.359375 C 64.425781 50.585938 63.859375 50.828125 63.316406 51.109375 L 59.914062 48.855469 L 53.601562 55.167969 L 55.863281 58.5625 C 55.414062 59.445312 55.027344 60.363281 54.722656 61.304688 L 50.722656 62.113281 L 50.722656 71.050781 L 54.722656 71.851562 C 55.027344 72.800781 55.414062 73.71875 55.863281 74.597656 L 53.601562 77.996094 L 59.914062 84.308594 L 63.316406 82.042969 C 64.199219 82.503906 65.113281 82.882812 66.066406 83.183594 L 66.863281 87.1875 L 75.804688 87.1875 L 76.605469 83.183594 C 77.550781 82.882812 78.46875 82.503906 79.355469 82.042969 L 82.746094 84.308594 L 89.074219 77.996094 L 86.804688 74.597656 C 87.257812 73.710938 87.644531 72.800781 87.941406 71.851562 L 91.941406 71.050781 L 91.941406 62.109375 L 87.941406 61.304688 C 87.644531 60.363281 87.257812 59.441406 86.804688 58.5625 L 89.074219 55.167969 L 82.746094 48.847656 L 79.355469 51.109375 C 78.808594 50.824219 78.246094 50.578125 77.671875 50.359375 L 77.671875 26.949219 C 79.425781 26.949219 80.84375 28.371094 80.84375 30.121094 L 80.84375 41.210938 C 80.84375 43.835938 82.980469 45.96875 85.597656 45.96875 L 88.773438 45.96875 L 88.773438 42.804688 L 85.597656 42.804688 C 84.730469 42.804688 84.015625 42.085938 84.015625 41.210938 L 84.015625 38.054688 L 95.109375 38.054688 Z M 95.109375 95.109375 "/>
<path style=" stroke:none;fill-rule:nonzero;fill:rgb(0%,0%,0%);fill-opacity:1;" d="M 47.558594 42.804688 L 50.722656 42.804688 L 50.722656 45.96875 L 47.558594 45.96875 Z M 47.558594 42.804688 "/>
<path style=" stroke:none;fill-rule:nonzero;fill:rgb(0%,0%,0%);fill-opacity:1;" d="M 41.210938 42.804688 L 44.382812 42.804688 L 44.382812 45.96875 L 41.210938 45.96875 Z M 41.210938 42.804688 "/>
<path style=" stroke:none;fill-rule:nonzero;fill:rgb(0%,0%,0%);fill-opacity:1;" d="M 34.878906 42.804688 L 38.054688 42.804688 L 38.054688 45.96875 L 34.878906 45.96875 Z M 34.878906 42.804688 "/>
<path style=" stroke:none;fill-rule:nonzero;fill:rgb(0%,0%,0%);fill-opacity:1;" d="M 38.136719 65.179688 L 42.195312 57.070312 L 50.722656 57.070312 L 50.722656 53.894531 L 40.230469 53.894531 L 37.953125 58.464844 L 32.628906 49.140625 L 6.339844 49.140625 L 6.339844 52.316406 L 30.785156 52.316406 Z M 38.136719 65.179688 "/>
<path style=" stroke:none;fill-rule:nonzero;fill:rgb(0%,0%,0%);fill-opacity:1;" d="M 6.339844 55.480469 L 30.121094 55.480469 L 30.121094 58.652344 L 6.339844 58.652344 Z M 6.339844 55.480469 "/>
<path style=" stroke:none;fill-rule:nonzero;fill:rgb(0%,0%,0%);fill-opacity:1;" d="M 6.339844 61.824219 L 30.121094 61.824219 L 30.121094 64.988281 L 6.339844 64.988281 Z M 6.339844 61.824219 "/>
<path style=" stroke:none;fill-rule:nonzero;fill:rgb(0%,0%,0%);fill-opacity:1;" d="M 42.804688 80.84375 L 39.636719 80.84375 L 39.636719 88.773438 L 36.460938 88.773438 L 36.460938 76.089844 L 33.289062 76.089844 L 33.289062 88.773438 L 30.121094 88.773438 L 30.121094 68.160156 L 26.949219 68.160156 L 26.949219 88.773438 L 23.773438 88.773438 L 23.773438 76.089844 L 20.613281 76.089844 L 20.613281 88.773438 L 17.445312 88.773438 L 17.445312 80.84375 L 14.269531 80.84375 L 14.269531 88.773438 L 11.089844 88.773438 L 11.089844 91.941406 L 45.96875 91.941406 L 45.96875 88.773438 L 42.804688 88.773438 Z M 42.804688 80.84375 "/>
<path style=" stroke:none;fill-rule:nonzero;fill:rgb(0%,0%,0%);fill-opacity:1;" d="M 88.773438 88.773438 L 91.941406 88.773438 L 91.941406 91.941406 L 88.773438 91.941406 Z M 88.773438 88.773438 "/>
<path style=" stroke:none;fill-rule:nonzero;fill:rgb(0%,0%,0%);fill-opacity:1;" d="M 82.433594 88.773438 L 85.597656 88.773438 L 85.597656 91.941406 L 82.433594 91.941406 Z M 82.433594 88.773438 "/>
<path style=" stroke:none;fill-rule:nonzero;fill:rgb(0%,0%,0%);fill-opacity:1;" d="M 76.089844 88.773438 L 79.269531 88.773438 L 79.269531 91.941406 L 76.089844 91.941406 Z M 76.089844 88.773438 "/>
</g>
</svg>
