<?xml version="1.0" encoding="UTF-8"?>
<svg xmlns="http://www.w3.org/2000/svg" xmlns:xlink="http://www.w3.org/1999/xlink" width="110pt" height="119pt" viewBox="0 0 110 119" version="1.1">
<g id="surface1">
<path style=" stroke:none;fill-rule:nonzero;fill:rgb(0%,0%,0%);fill-opacity:1;" d="M 43.511719 8.050781 C 42.324219 8.195312 41.171875 8.777344 40.347656 9.628906 C 39.539062 10.476562 39.101562 11.402344 38.960938 12.632812 L 38.875 13.332031 L 35.566406 13.367188 L 32.261719 13.402344 L 32.019531 13.558594 C 31.605469 13.859375 31.578125 13.980469 31.578125 15.488281 C 31.578125 16.535156 31.554688 16.867188 31.484375 16.9375 C 31.414062 16.980469 29.65625 17.007812 25.53125 17.023438 L 19.667969 17.042969 L 19.265625 17.230469 C 18.523438 17.566406 17.957031 18.179688 17.6875 18.953125 C 17.550781 19.328125 17.550781 20.050781 17.550781 48.53125 C 17.550781 69.273438 17.570312 77.808594 17.632812 78 C 17.746094 78.421875 18.160156 79.117188 18.445312 79.351562 C 18.800781 79.660156 19.257812 79.898438 19.707031 80.023438 C 20.070312 80.128906 22.398438 80.136719 44.386719 80.125 L 68.660156 80.101562 L 69.203125 79.84375 C 69.816406 79.539062 70.234375 79.167969 70.511719 78.667969 C 70.941406 77.910156 70.917969 78.722656 70.917969 64.269531 L 70.917969 50.953125 L 71.542969 50.027344 C 71.882812 49.523438 72.261719 48.933594 72.390625 48.746094 C 72.523438 48.550781 72.9375 47.921875 73.332031 47.347656 C 73.710938 46.769531 74.148438 46.125 74.285156 45.910156 C 74.425781 45.703125 74.820312 45.109375 75.144531 44.617188 C 75.488281 44.113281 75.898438 43.5 76.0625 43.25 C 76.34375 42.835938 76.847656 42.078125 78.054688 40.28125 C 79.273438 38.457031 79.609375 37.953125 79.726562 37.746094 C 79.851562 37.542969 80.210938 37.304688 80.398438 37.304688 C 80.53125 37.304688 80.949219 36.769531 81.644531 35.71875 C 83.019531 33.65625 83.179688 33.402344 83.757812 32.546875 C 84.367188 31.640625 84.683594 31.140625 84.871094 30.804688 C 84.9375 30.695312 85.136719 30.410156 85.328125 30.171875 C 85.511719 29.921875 85.660156 29.695312 85.660156 29.652344 C 85.660156 29.601562 85.785156 29.40625 85.941406 29.214844 C 86.414062 28.585938 86.523438 28.425781 86.523438 28.355469 C 86.523438 28.316406 86.597656 28.195312 86.691406 28.085938 C 86.777344 27.980469 86.917969 27.785156 86.996094 27.628906 C 87.066406 27.488281 87.183594 27.300781 87.253906 27.21875 L 87.382812 27.050781 L 87.691406 27.203125 C 88.214844 27.46875 88.574219 27.683594 88.59375 27.757812 C 88.609375 27.796875 88.53125 27.925781 88.433594 28.035156 C 88.332031 28.148438 88.070312 28.507812 87.867188 28.835938 C 87.65625 29.164062 87.109375 29.984375 86.65625 30.65625 C 85.847656 31.851562 85.5625 32.285156 84.453125 33.945312 C 84.15625 34.386719 83.753906 35.003906 83.542969 35.3125 C 83.019531 36.089844 82.925781 36.273438 82.925781 36.582031 C 82.925781 37.199219 83.414062 37.652344 84.0625 37.652344 C 84.777344 37.652344 84.601562 37.847656 86.820312 34.539062 C 87.238281 33.925781 87.671875 33.273438 87.785156 33.089844 C 87.910156 32.910156 88.410156 32.152344 88.910156 31.410156 C 91.621094 27.371094 91.5 27.605469 91.214844 27 C 91.089844 26.707031 90.675781 26.320312 90.503906 26.320312 C 90.453125 26.320312 90.371094 26.261719 90.296875 26.191406 C 90.132812 26.042969 89.472656 25.613281 89.382812 25.613281 C 89.300781 25.613281 88.757812 25.179688 88.757812 25.113281 C 88.757812 25.074219 88.910156 24.824219 89.089844 24.554688 C 90.023438 23.164062 90.285156 21.683594 89.863281 20.25 C 89.464844 18.886719 88.828125 18.09375 87.390625 17.175781 C 85.671875 16.078125 85.226562 15.921875 83.757812 15.925781 C 82.785156 15.925781 82.632812 15.957031 82.160156 16.113281 C 80.941406 16.535156 80.054688 17.238281 79.300781 18.371094 C 79.0625 18.71875 78.71875 19.253906 78.507812 19.558594 C 78.148438 20.101562 77.40625 21.203125 76.929688 21.9375 C 76.796875 22.132812 76.445312 22.65625 76.152344 23.097656 C 75.859375 23.539062 75.472656 24.117188 75.292969 24.390625 C 75.113281 24.65625 74.617188 25.398438 74.191406 26.035156 C 73.761719 26.667969 73.214844 27.488281 72.96875 27.855469 C 72.726562 28.21875 72.25 28.921875 71.910156 29.433594 C 71.574219 29.921875 71.242188 30.441406 71.160156 30.5625 C 71.09375 30.691406 71.007812 30.796875 70.976562 30.796875 C 70.945312 30.796875 70.917969 28.316406 70.917969 25.277344 C 70.917969 22.222656 70.890625 19.597656 70.855469 19.375 C 70.695312 18.460938 70.074219 17.660156 69.214844 17.261719 L 68.722656 17.042969 L 62.832031 17.007812 L 56.925781 16.972656 L 56.894531 15.523438 C 56.855469 13.945312 56.839844 13.894531 56.359375 13.550781 C 56.167969 13.410156 56.0625 13.402344 52.84375 13.367188 L 49.519531 13.332031 L 49.476562 12.773438 C 49.414062 12.015625 49.316406 11.628906 49.011719 11 C 48.226562 9.355469 46.722656 8.277344 44.855469 8.050781 C 44.222656 7.972656 44.105469 7.972656 43.511719 8.050781 Z M 45.320312 10.460938 C 46.121094 10.773438 46.710938 11.386719 47.039062 12.210938 C 47.167969 12.5625 47.203125 12.816406 47.234375 13.75 C 47.273438 14.96875 47.324219 15.136719 47.710938 15.421875 C 47.910156 15.566406 48.007812 15.570312 51.234375 15.609375 C 53.058594 15.628906 54.566406 15.652344 54.582031 15.664062 C 54.589844 15.667969 54.589844 16.757812 54.582031 18.066406 L 54.550781 20.476562 L 44.277344 20.492188 C 36.742188 20.5 33.976562 20.484375 33.90625 20.425781 C 33.773438 20.316406 33.75 15.828125 33.886719 15.695312 C 33.960938 15.628906 34.78125 15.609375 37.164062 15.609375 C 40.21875 15.609375 40.363281 15.597656 40.636719 15.46875 C 41.105469 15.234375 41.171875 15.039062 41.214844 13.683594 C 41.257812 12.492188 41.257812 12.484375 41.511719 11.964844 C 42.214844 10.53125 43.851562 9.878906 45.320312 10.460938 Z M 84.714844 18.273438 C 85.179688 18.429688 86.59375 19.324219 86.988281 19.703125 C 87.136719 19.855469 87.363281 20.164062 87.488281 20.40625 C 87.699219 20.792969 87.714844 20.875 87.714844 21.554688 C 87.714844 22.441406 87.644531 22.617188 86.742188 23.9375 C 86.144531 24.8125 86.039062 24.976562 85.265625 26.140625 C 85.039062 26.480469 84.601562 27.132812 84.316406 27.574219 C 83.722656 28.464844 82.574219 30.207031 82.460938 30.382812 C 82.421875 30.441406 82.175781 30.808594 81.917969 31.1875 C 81.464844 31.851562 80.53125 33.238281 79.859375 34.230469 C 79.6875 34.503906 79.527344 34.714844 79.507812 34.714844 C 79.5 34.714844 79.253906 34.570312 78.992188 34.402344 C 78.722656 34.230469 78.183594 33.90625 77.792969 33.65625 C 76.148438 32.613281 75.304688 32.078125 74.5 31.574219 C 73.988281 31.257812 73.667969 31.003906 73.691406 30.953125 C 73.710938 30.863281 73.960938 30.507812 75.144531 28.730469 C 75.488281 28.226562 75.859375 27.660156 75.992188 27.46875 C 76.117188 27.269531 76.535156 26.640625 76.929688 26.074219 C 77.3125 25.496094 77.746094 24.84375 77.882812 24.636719 C 78.019531 24.425781 78.398438 23.859375 78.722656 23.375 C 80.039062 21.414062 80.875 20.164062 81.195312 19.667969 C 82.097656 18.296875 83.328125 17.808594 84.714844 18.273438 Z M 23.621094 19.328125 C 23.640625 19.421875 23.664062 31.867188 23.664062 46.980469 C 23.664062 70.453125 23.679688 74.503906 23.769531 74.660156 C 23.921875 74.964844 24.171875 75.152344 24.53125 75.230469 C 24.753906 75.285156 29.125 75.296875 38.589844 75.285156 C 50.003906 75.273438 52.359375 75.257812 52.503906 75.171875 C 52.816406 75.011719 64.527344 63.597656 64.628906 63.359375 C 64.792969 63.011719 64.761719 62.488281 64.566406 62.210938 C 64.21875 61.699219 64.609375 61.730469 57.808594 61.730469 C 51.003906 61.730469 51.386719 61.699219 51.023438 62.210938 L 50.851562 62.464844 L 50.851562 67.652344 C 50.851562 70.515625 50.828125 72.898438 50.808594 72.957031 C 50.765625 73.0625 49.910156 73.066406 41.652344 73.078125 C 28.269531 73.078125 26.078125 73.066406 26.023438 73.007812 C 25.960938 72.945312 25.941406 19.347656 26 19.246094 C 26.074219 19.140625 31.386719 19.15625 31.484375 19.261719 C 31.550781 19.316406 31.578125 19.726562 31.578125 20.667969 C 31.578125 21.890625 31.59375 22.011719 31.726562 22.238281 C 32.03125 22.714844 31.0625 22.679688 44.195312 22.679688 C 57.324219 22.679688 56.347656 22.714844 56.695312 22.242188 C 56.855469 22.019531 56.855469 21.933594 56.894531 20.613281 L 56.925781 19.210938 L 59.675781 19.1875 L 62.429688 19.175781 L 62.464844 19.328125 C 62.492188 19.421875 62.496094 25.097656 62.492188 31.949219 L 62.464844 44.410156 L 62.160156 44.855469 C 61.59375 45.679688 61.542969 45.878906 61.753906 46.480469 C 61.894531 46.847656 62.015625 46.605469 60.746094 48.492188 C 60.332031 49.109375 59.988281 49.644531 59.988281 49.664062 C 59.988281 49.683594 59.894531 49.832031 59.785156 49.988281 C 59.238281 50.765625 58.910156 51.285156 58.910156 51.355469 C 58.910156 51.402344 58.875 51.445312 58.832031 51.445312 C 58.792969 51.445312 58.707031 51.554688 58.648438 51.683594 C 58.589844 51.816406 58.523438 51.933594 58.496094 51.933594 C 58.464844 51.933594 58.347656 52.089844 58.226562 52.289062 C 58.109375 52.480469 57.945312 52.742188 57.859375 52.863281 C 57.78125 52.988281 57.59375 53.285156 57.433594 53.546875 C 57.28125 53.792969 57.105469 54.039062 57.070312 54.089844 C 57.015625 54.128906 56.953125 54.234375 56.925781 54.3125 C 56.90625 54.386719 56.855469 54.445312 56.828125 54.445312 C 56.789062 54.445312 56.5625 54.757812 56.316406 55.125 C 56.074219 55.503906 55.65625 56.132812 55.398438 56.515625 C 54.96875 57.152344 54.921875 57.253906 54.890625 57.632812 C 54.859375 58.238281 54.988281 58.390625 56.101562 59.105469 C 56.925781 59.652344 57.085938 59.722656 57.425781 59.753906 C 57.871094 59.789062 58.15625 59.671875 58.464844 59.324219 C 59.8125 57.773438 60.914062 57.066406 62.898438 56.472656 C 65.6875 55.636719 66.167969 55.441406 67.03125 54.769531 C 67.5 54.394531 68.378906 53.367188 68.460938 53.097656 C 68.472656 53.039062 68.519531 52.976562 68.554688 52.976562 C 68.589844 52.976562 68.617188 58.171875 68.617188 65.203125 L 68.617188 77.421875 L 68.125 77.898438 L 48.46875 77.910156 C 37.652344 77.917969 28.648438 77.933594 28.445312 77.941406 C 27.972656 77.957031 28.363281 77.96875 24.132812 77.925781 C 21.484375 77.898438 20.34375 77.859375 20.210938 77.808594 C 20.109375 77.757812 19.976562 77.609375 19.910156 77.476562 C 19.789062 77.246094 19.78125 75.71875 19.78125 48.539062 C 19.78125 25.71875 19.800781 19.804688 19.875 19.667969 C 19.921875 19.574219 20.078125 19.421875 20.203125 19.339844 C 20.445312 19.183594 20.507812 19.175781 22.011719 19.175781 C 23.570312 19.175781 23.574219 19.175781 23.621094 19.328125 Z M 68.175781 19.273438 C 68.640625 19.511719 68.617188 18.941406 68.617188 27.460938 L 68.617188 35.199219 L 68.023438 36.089844 C 67.6875 36.582031 67.230469 37.269531 67 37.617188 C 66.765625 37.964844 66.316406 38.644531 65.992188 39.125 C 65.667969 39.601562 65.316406 40.144531 65.195312 40.332031 C 65.078125 40.507812 64.945312 40.675781 64.898438 40.695312 C 64.828125 40.714844 64.804688 38.558594 64.804688 29.996094 C 64.804688 24.097656 64.828125 19.246094 64.855469 19.226562 C 64.878906 19.199219 65.59375 19.175781 66.441406 19.175781 C 67.636719 19.175781 68.023438 19.199219 68.175781 19.273438 Z M 73.519531 33.640625 C 74.886719 34.496094 75.191406 34.691406 76.347656 35.429688 C 76.980469 35.828125 77.578125 36.195312 77.664062 36.242188 C 77.875 36.351562 77.875 36.429688 77.65625 36.738281 C 77.566406 36.875 77.339844 37.207031 77.160156 37.476562 C 76.980469 37.746094 76.53125 38.421875 76.152344 38.984375 C 75.164062 40.464844 73.929688 42.324219 73.253906 43.324219 C 73.09375 43.574219 72.671875 44.207031 72.320312 44.726562 C 71.972656 45.242188 71.550781 45.871094 71.386719 46.125 C 71.21875 46.375 70.8125 46.980469 70.476562 47.484375 C 70.148438 47.984375 69.804688 48.503906 69.726562 48.617188 C 69.652344 48.746094 69.546875 48.847656 69.5 48.847656 C 69.382812 48.847656 68.957031 48.585938 67.160156 47.4375 C 66.519531 47.03125 65.949219 46.683594 65.90625 46.683594 C 65.855469 46.683594 65.8125 46.660156 65.8125 46.621094 C 65.8125 46.566406 64.996094 46.050781 64.894531 46.050781 C 64.828125 46.050781 64.375 45.742188 64.375 45.703125 C 64.375 45.679688 64.714844 45.160156 65.125 44.546875 C 66.34375 42.746094 67.484375 41.027344 67.933594 40.347656 C 68.164062 39.996094 68.597656 39.355469 68.890625 38.914062 C 69.1875 38.472656 69.566406 37.902344 69.730469 37.652344 C 70.074219 37.128906 70.925781 35.867188 71.996094 34.273438 C 72.402344 33.671875 72.75 33.171875 72.757812 33.171875 C 72.777344 33.171875 73.121094 33.386719 73.519531 33.640625 Z M 65.558594 49.128906 C 66.429688 49.679688 67.160156 50.136719 67.175781 50.152344 C 67.21875 50.203125 66.949219 51.128906 66.765625 51.503906 C 66.359375 52.359375 65.773438 52.964844 64.972656 53.355469 C 64.761719 53.460938 64.039062 53.714844 63.351562 53.925781 C 62.671875 54.140625 61.847656 54.414062 61.527344 54.539062 C 60.828125 54.792969 59.414062 55.5 59.0625 55.777344 C 58.757812 55.996094 58.480469 56.160156 58.480469 56.085938 C 58.480469 56.050781 58.671875 55.753906 59.808594 54.050781 C 59.960938 53.820312 60.417969 53.140625 60.820312 52.550781 C 61.210938 51.972656 61.632812 51.328125 61.746094 51.128906 C 61.871094 50.929688 62.167969 50.476562 62.414062 50.128906 C 62.664062 49.773438 62.863281 49.460938 62.863281 49.425781 C 62.863281 49.390625 63.003906 49.183594 63.1875 48.960938 C 63.371094 48.746094 63.511719 48.515625 63.511719 48.472656 C 63.511719 48.347656 63.796875 48.066406 63.902344 48.101562 C 63.945312 48.121094 64.6875 48.585938 65.558594 49.128906 Z M 60.703125 64.015625 C 60.703125 64.113281 53.265625 71.320312 53.175781 71.320312 C 53.101562 71.320312 53.082031 70.546875 53.082031 67.691406 C 53.082031 65.695312 53.101562 64.039062 53.132812 64.015625 C 53.195312 63.945312 60.703125 63.957031 60.703125 64.015625 Z M 60.703125 64.015625 "/>
<path style=" stroke:none;fill-rule:nonzero;fill:rgb(0%,0%,0%);fill-opacity:1;" d="M 30 26.320312 C 29.683594 26.382812 29.421875 26.582031 29.265625 26.878906 C 29.144531 27.101562 29.128906 27.414062 29.128906 32.359375 C 29.128906 38.226562 29.101562 37.925781 29.625 38.265625 L 29.875 38.421875 L 35.34375 38.421875 C 40.515625 38.421875 40.828125 38.417969 41.074219 38.296875 C 41.589844 38.023438 41.574219 38.308594 41.574219 32.363281 C 41.574219 27.183594 41.566406 27.039062 41.425781 26.816406 C 41.351562 26.691406 41.1875 26.527344 41.054688 26.449219 C 40.828125 26.320312 40.710938 26.320312 35.589844 26.320312 C 32.71875 26.328125 30.335938 26.320312 30.304688 26.300781 C 30.269531 26.28125 30.140625 26.292969 30 26.320312 Z M 39.226562 28.527344 C 39.328125 28.570312 39.34375 28.972656 39.34375 32.332031 C 39.34375 35.429688 39.328125 36.113281 39.242188 36.179688 C 39.171875 36.230469 38.085938 36.242188 35.3125 36.238281 L 31.472656 36.21875 L 31.449219 32.4375 C 31.441406 30.359375 31.449219 28.617188 31.472656 28.570312 C 31.484375 28.507812 32.324219 28.484375 35.3125 28.484375 C 37.40625 28.484375 39.164062 28.507812 39.226562 28.527344 Z M 39.226562 28.527344 "/>
<path style=" stroke:none;fill-rule:nonzero;fill:rgb(0%,0%,0%);fill-opacity:1;" d="M 44.488281 28.234375 C 44.371094 28.289062 44.179688 28.425781 44.050781 28.546875 C 43.882812 28.730469 43.839844 28.835938 43.816406 29.203125 C 43.796875 29.570312 43.816406 29.679688 43.964844 29.882812 C 44.324219 30.410156 43.773438 30.375 51.964844 30.375 C 58.804688 30.375 59.316406 30.367188 59.558594 30.25 C 59.921875 30.070312 60.128906 29.734375 60.128906 29.292969 C 60.128906 28.796875 59.953125 28.484375 59.558594 28.289062 L 59.238281 28.132812 L 51.964844 28.132812 C 46.054688 28.140625 44.660156 28.15625 44.488281 28.234375 Z M 44.488281 28.234375 "/>
<path style=" stroke:none;fill-rule:nonzero;fill:rgb(0%,0%,0%);fill-opacity:1;" d="M 44.375 34.492188 C 43.996094 34.671875 43.804688 35.007812 43.804688 35.480469 C 43.804688 35.980469 43.992188 36.28125 44.394531 36.464844 C 44.691406 36.601562 44.914062 36.601562 48.605469 36.601562 C 52.359375 36.601562 52.519531 36.601562 52.792969 36.464844 C 53.378906 36.179688 53.589844 35.546875 53.296875 34.960938 C 53.1875 34.734375 53.050781 34.597656 52.863281 34.503906 C 52.597656 34.371094 52.421875 34.363281 48.605469 34.363281 C 44.964844 34.363281 44.605469 34.378906 44.375 34.492188 Z M 44.375 34.492188 "/>
<path style=" stroke:none;fill-rule:nonzero;fill:rgb(0%,0%,0%);fill-opacity:1;" d="M 29.816406 42.234375 C 29.503906 42.375 29.378906 42.488281 29.253906 42.746094 C 29.144531 42.945312 29.128906 43.46875 29.128906 48.230469 C 29.128906 54.207031 29.097656 53.832031 29.707031 54.148438 L 30.019531 54.3125 L 35.414062 54.296875 C 41.378906 54.277344 41.082031 54.296875 41.410156 53.832031 L 41.574219 53.589844 L 41.574219 48.242188 C 41.574219 42.261719 41.609375 42.628906 41.046875 42.308594 L 40.730469 42.136719 L 35.378906 42.136719 C 30.929688 42.140625 29.992188 42.148438 29.816406 42.234375 Z M 39.328125 48.230469 L 39.34375 52.074219 L 31.429688 52.074219 L 31.429688 44.375 L 35.375 44.382812 L 39.304688 44.410156 Z M 39.328125 48.230469 "/>
<path style=" stroke:none;fill-rule:nonzero;fill:rgb(0%,0%,0%);fill-opacity:1;" d="M 44.375 44.148438 C 43.628906 44.507812 43.597656 45.71875 44.324219 46.109375 C 44.539062 46.21875 45.085938 46.226562 51.964844 46.226562 C 59.035156 46.226562 59.382812 46.21875 59.59375 46.101562 C 60.128906 45.773438 60.304688 45.074219 59.972656 44.503906 C 59.675781 43.992188 60.128906 44.015625 51.949219 44.015625 C 45.125 44.015625 44.617188 44.03125 44.375 44.148438 Z M 44.375 44.148438 "/>
<path style=" stroke:none;fill-rule:nonzero;fill:rgb(0%,0%,0%);fill-opacity:1;" d="M 44.40625 50.324219 C 43.628906 50.65625 43.574219 51.839844 44.324219 52.28125 C 44.550781 52.417969 44.691406 52.421875 48.585938 52.421875 C 52.347656 52.421875 52.636719 52.417969 52.863281 52.292969 C 53.167969 52.140625 53.441406 51.664062 53.441406 51.300781 C 53.441406 50.96875 53.175781 50.535156 52.863281 50.367188 C 52.617188 50.222656 52.503906 50.214844 48.660156 50.203125 C 44.964844 50.1875 44.683594 50.203125 44.40625 50.324219 Z M 44.40625 50.324219 "/>
<path style=" stroke:none;fill-rule:nonzero;fill:rgb(0%,0%,0%);fill-opacity:1;" d="M 29.625 58.179688 C 29.109375 58.515625 29.128906 58.214844 29.128906 64.109375 L 29.128906 69.390625 L 29.3125 69.65625 C 29.648438 70.144531 29.582031 70.132812 32.890625 70.128906 C 34.519531 70.128906 36.960938 70.128906 38.320312 70.128906 C 41.023438 70.128906 41.023438 70.128906 41.390625 69.707031 L 41.574219 69.484375 L 41.574219 58.695312 L 41.390625 58.460938 C 41.023438 58.003906 41.351562 58.019531 35.332031 58.019531 L 29.875 58.019531 Z M 39.304688 60.347656 C 39.328125 60.433594 39.339844 62.167969 39.328125 64.214844 L 39.304688 67.921875 L 31.472656 67.921875 L 31.449219 64.148438 C 31.441406 62.066406 31.449219 60.324219 31.472656 60.273438 C 31.484375 60.207031 32.34375 60.1875 35.378906 60.1875 L 39.273438 60.1875 Z M 39.304688 60.347656 "/>
<path style=" stroke:none;fill-rule:nonzero;fill:rgb(0%,0%,0%);fill-opacity:1;" d="M 16.222656 92.390625 C 15.953125 92.417969 15.703125 92.472656 15.667969 92.5 C 15.640625 92.539062 15.617188 94.496094 15.617188 96.941406 L 15.640625 101.304688 L 16.796875 101.304688 L 16.867188 97.457031 L 17.597656 97.464844 C 18.523438 97.476562 18.890625 97.597656 19.226562 98.003906 C 19.53125 98.371094 19.632812 98.648438 19.878906 99.65625 C 20.132812 100.695312 20.296875 101.226562 20.390625 101.285156 C 20.429688 101.316406 20.714844 101.347656 21.03125 101.347656 C 21.535156 101.347656 21.59375 101.328125 21.550781 101.214844 C 21.535156 101.152344 21.421875 100.71875 21.289062 100.253906 C 21.160156 99.796875 20.984375 99.128906 20.882812 98.792969 C 20.675781 98.042969 20.421875 97.605469 20.019531 97.316406 C 19.851562 97.207031 19.714844 97.085938 19.714844 97.058594 C 19.707031 97.035156 19.832031 96.941406 19.992188 96.863281 C 20.46875 96.628906 20.957031 96.097656 21.140625 95.636719 C 21.277344 95.289062 21.300781 95.121094 21.277344 94.621094 C 21.207031 93.386719 20.570312 92.691406 19.230469 92.417969 C 18.695312 92.304688 17.078125 92.296875 16.222656 92.390625 Z M 19.132812 93.414062 C 19.78125 93.714844 20.085938 94.175781 20.085938 94.863281 C 20.085938 96.015625 19.160156 96.621094 17.511719 96.566406 L 16.867188 96.546875 L 16.828125 93.304688 L 16.992188 93.273438 C 17.078125 93.253906 17.527344 93.242188 17.984375 93.253906 C 18.65625 93.261719 18.871094 93.289062 19.132812 93.414062 Z M 19.132812 93.414062 "/>
<path style=" stroke:none;fill-rule:nonzero;fill:rgb(0%,0%,0%);fill-opacity:1;" d="M 45.140625 92.59375 C 44.886719 92.894531 44.886719 93.273438 45.140625 93.5625 C 45.304688 93.753906 45.375 93.78125 45.675781 93.78125 C 46.125 93.78125 46.382812 93.578125 46.433594 93.191406 C 46.46875 92.972656 46.4375 92.851562 46.308594 92.664062 C 46.148438 92.445312 46.101562 92.417969 45.734375 92.394531 C 45.351562 92.375 45.320312 92.390625 45.140625 92.59375 Z M 45.140625 92.59375 "/>
<path style=" stroke:none;fill-rule:nonzero;fill:rgb(0%,0%,0%);fill-opacity:1;" d="M 86.09375 93.203125 C 85.875 93.257812 85.671875 93.332031 85.632812 93.363281 C 85.601562 93.398438 85.574219 93.703125 85.582031 94.042969 C 85.605469 94.894531 85.601562 94.90625 85.046875 94.90625 L 84.585938 94.90625 L 84.585938 95.804688 L 85.074219 95.832031 L 85.558594 95.84375 L 85.589844 98.046875 L 85.628906 100.253906 L 85.84375 100.675781 C 86.03125 101.023438 86.117188 101.121094 86.417969 101.269531 C 86.714844 101.417969 86.867188 101.445312 87.390625 101.445312 C 87.726562 101.445312 88.097656 101.417969 88.203125 101.390625 C 88.398438 101.347656 88.40625 101.328125 88.382812 100.910156 L 88.363281 100.472656 L 87.816406 100.464844 C 86.808594 100.464844 86.734375 100.253906 86.757812 97.660156 L 86.777344 95.84375 L 87.628906 95.832031 L 88.464844 95.804688 L 88.464844 94.90625 L 87.648438 94.90625 C 86.960938 94.90625 86.820312 94.878906 86.789062 94.789062 C 86.761719 94.726562 86.742188 94.320312 86.742188 93.886719 C 86.742188 92.980469 86.789062 93.023438 86.09375 93.203125 Z M 86.09375 93.203125 "/>
<path style=" stroke:none;fill-rule:nonzero;fill:rgb(0%,0%,0%);fill-opacity:1;" d="M 24.636719 94.890625 C 24.0625 95.097656 23.867188 95.21875 23.511719 95.585938 C 22.898438 96.214844 22.609375 96.902344 22.539062 97.933594 C 22.492188 98.699219 22.582031 99.257812 22.863281 99.84375 C 23.457031 101.066406 24.800781 101.648438 26.566406 101.429688 C 27.308594 101.332031 27.675781 101.242188 27.867188 101.113281 C 27.972656 101.03125 27.980469 100.992188 27.894531 100.675781 C 27.839844 100.476562 27.78125 100.308594 27.742188 100.289062 C 27.714844 100.265625 27.503906 100.308594 27.269531 100.390625 C 26.964844 100.496094 26.675781 100.53125 26.074219 100.53125 C 25.324219 100.539062 25.25 100.527344 24.855469 100.324219 C 24.171875 99.984375 23.75 99.339844 23.714844 98.605469 L 23.695312 98.371094 L 26 98.332031 L 28.300781 98.300781 L 28.320312 97.78125 C 28.375 96.496094 27.769531 95.394531 26.769531 94.949219 C 26.289062 94.742188 25.136719 94.707031 24.636719 94.890625 Z M 26.128906 95.71875 C 26.574219 95.863281 26.9375 96.25 27.082031 96.757812 C 27.140625 96.964844 27.1875 97.210938 27.175781 97.296875 L 27.15625 97.457031 L 23.773438 97.457031 L 23.75 97.304688 C 23.714844 97.066406 24.074219 96.355469 24.371094 96.070312 C 24.832031 95.632812 25.476562 95.496094 26.128906 95.71875 Z M 26.128906 95.71875 "/>
<path style=" stroke:none;fill-rule:nonzero;fill:rgb(0%,0%,0%);fill-opacity:1;" d="M 31.527344 94.863281 C 30.1875 95.28125 29.394531 96.519531 29.394531 98.195312 C 29.386719 99.359375 29.683594 100.125 30.382812 100.773438 C 30.984375 101.320312 31.316406 101.445312 32.1875 101.445312 C 32.828125 101.445312 32.957031 101.429688 33.359375 101.242188 C 33.605469 101.132812 33.917969 100.921875 34.050781 100.773438 C 34.183594 100.636719 34.316406 100.53125 34.34375 100.554688 C 34.367188 100.574219 34.382812 101.351562 34.382812 102.28125 L 34.371094 103.964844 L 35.566406 103.964844 L 35.589844 99.433594 L 35.601562 94.90625 L 34.476562 94.90625 L 34.4375 95.253906 C 34.398438 95.652344 34.328125 95.765625 34.230469 95.585938 C 34.097656 95.355469 33.816406 95.136719 33.464844 94.96875 C 33.042969 94.761719 32.007812 94.707031 31.527344 94.863281 Z M 33.46875 95.957031 C 34.167969 96.359375 34.382812 96.875 34.382812 98.085938 C 34.382812 99.074219 34.253906 99.496094 33.855469 99.917969 C 33.445312 100.351562 33.074219 100.527344 32.546875 100.53125 C 31.527344 100.53125 30.832031 99.851562 30.636719 98.671875 C 30.515625 97.839844 30.742188 96.875 31.222656 96.277344 C 31.367188 96.09375 31.78125 95.84375 32.148438 95.730469 C 32.492188 95.625 33.074219 95.722656 33.46875 95.957031 Z M 33.46875 95.957031 "/>
<path style=" stroke:none;fill-rule:nonzero;fill:rgb(0%,0%,0%);fill-opacity:1;" d="M 50.433594 94.945312 C 50.054688 95.125 49.484375 95.71875 49.484375 95.925781 C 49.484375 95.976562 49.457031 96.019531 49.414062 96.019531 C 49.378906 96.019531 49.34375 95.78125 49.324219 95.472656 L 49.304688 94.941406 L 48.238281 94.894531 L 48.285156 95.960938 C 48.3125 96.546875 48.335938 98 48.335938 99.191406 L 48.335938 101.347656 L 49.484375 101.347656 L 49.484375 99.5 C 49.484375 98.0625 49.507812 97.570312 49.59375 97.242188 C 49.820312 96.390625 50.328125 95.949219 51.117188 95.894531 L 51.582031 95.867188 L 51.554688 95.328125 L 51.539062 94.800781 L 51.171875 94.777344 C 50.902344 94.761719 50.726562 94.804688 50.433594 94.945312 Z M 50.433594 94.945312 "/>
<path style=" stroke:none;fill-rule:nonzero;fill:rgb(0%,0%,0%);fill-opacity:1;" d="M 54.269531 94.890625 C 53.824219 95.035156 53.328125 95.367188 53.023438 95.703125 C 52.125 96.699219 51.894531 98.511719 52.503906 99.84375 C 52.8125 100.527344 53.40625 101.023438 54.144531 101.234375 C 54.371094 101.300781 54.621094 101.378906 54.699219 101.402344 C 54.949219 101.488281 56.402344 101.429688 56.679688 101.328125 C 56.738281 101.300781 56.925781 101.265625 57.101562 101.25 C 57.472656 101.207031 57.65625 101.0625 57.578125 100.871094 C 57.550781 100.800781 57.503906 100.691406 57.492188 100.621094 C 57.421875 100.242188 57.375 100.226562 56.816406 100.414062 C 55.570312 100.800781 54.238281 100.472656 53.707031 99.648438 C 53.480469 99.308594 53.277344 98.597656 53.347656 98.429688 C 53.378906 98.355469 53.792969 98.332031 55.664062 98.320312 L 57.933594 98.300781 L 57.960938 97.710938 C 58.007812 96.34375 57.269531 95.199219 56.140625 94.863281 C 55.671875 94.726562 54.71875 94.742188 54.269531 94.890625 Z M 55.699219 95.679688 C 56.265625 95.835938 56.742188 96.453125 56.773438 97.101562 L 56.785156 97.457031 L 55.097656 97.457031 C 53.160156 97.457031 53.257812 97.503906 53.519531 96.824219 C 53.707031 96.34375 54.210938 95.8125 54.589844 95.695312 C 54.921875 95.597656 55.355469 95.589844 55.699219 95.679688 Z M 55.699219 95.679688 "/>
<path style=" stroke:none;fill-rule:nonzero;fill:rgb(0%,0%,0%);fill-opacity:1;" d="M 62 94.832031 C 61.945312 94.875 61.773438 94.941406 61.632812 94.972656 C 61.378906 95.042969 60.890625 95.4375 60.734375 95.703125 C 60.609375 95.90625 60.570312 95.832031 60.519531 95.328125 L 60.472656 94.894531 L 59.972656 94.914062 L 59.472656 94.941406 L 59.488281 96.09375 C 59.507812 96.730469 59.511719 98.160156 59.515625 99.277344 L 59.515625 101.304688 L 60.667969 101.304688 L 60.675781 99.308594 C 60.675781 98.210938 60.703125 97.191406 60.734375 97.035156 C 60.804688 96.6875 60.96875 96.375 61.164062 96.230469 C 61.246094 96.167969 61.40625 96.03125 61.507812 95.941406 C 61.703125 95.757812 62.367188 95.625 62.625 95.722656 C 62.925781 95.832031 63.296875 96.203125 63.457031 96.535156 C 63.613281 96.882812 63.617188 96.960938 63.640625 99.101562 L 63.65625 101.304688 L 64.804688 101.304688 L 64.820312 99.101562 L 64.84375 96.890625 L 65.078125 96.515625 C 65.425781 95.949219 65.722656 95.78125 66.367188 95.78125 C 67.007812 95.78125 67.199219 95.894531 67.5 96.476562 L 67.714844 96.898438 L 67.792969 101.304688 L 68.941406 101.304688 L 68.96875 99.417969 C 68.976562 98.324219 68.945312 97.273438 68.902344 96.933594 C 68.773438 95.921875 68.363281 95.273438 67.636719 94.925781 C 67.289062 94.761719 67.195312 94.746094 66.617188 94.777344 C 65.859375 94.8125 65.378906 95.027344 64.921875 95.550781 C 64.628906 95.878906 64.445312 95.972656 64.445312 95.792969 C 64.445312 95.660156 63.867188 95.066406 63.601562 94.945312 C 63.328125 94.8125 62.160156 94.738281 62 94.832031 Z M 62 94.832031 "/>
<path style=" stroke:none;fill-rule:nonzero;fill:rgb(0%,0%,0%);fill-opacity:1;" d="M 72.621094 94.863281 C 72.191406 94.988281 71.644531 95.324219 71.304688 95.6875 C 70.371094 96.699219 70.148438 98.699219 70.835938 99.984375 C 71.199219 100.664062 72.023438 101.234375 72.898438 101.414062 C 73.664062 101.566406 75.492188 101.375 75.796875 101.097656 C 75.863281 101.03125 75.863281 100.945312 75.8125 100.667969 C 75.769531 100.488281 75.695312 100.316406 75.664062 100.289062 C 75.621094 100.265625 75.414062 100.296875 75.207031 100.367188 C 74.035156 100.75 72.636719 100.515625 72.085938 99.835938 C 71.882812 99.59375 71.640625 98.933594 71.613281 98.617188 L 71.605469 98.371094 L 76.203125 98.300781 L 76.226562 97.710938 C 76.273438 96.476562 75.726562 95.464844 74.75 95 C 74.402344 94.832031 74.242188 94.800781 73.652344 94.785156 C 73.234375 94.777344 72.832031 94.804688 72.621094 94.863281 Z M 74.035156 95.71875 C 74.472656 95.863281 74.839844 96.25 74.988281 96.757812 C 75.046875 96.964844 75.085938 97.210938 75.074219 97.296875 L 75.054688 97.457031 L 73.367188 97.457031 C 71.429688 97.457031 71.527344 97.503906 71.789062 96.820312 C 71.96875 96.34375 72.472656 95.8125 72.859375 95.695312 C 73.230469 95.585938 73.652344 95.589844 74.035156 95.71875 Z M 74.035156 95.71875 "/>
<path style=" stroke:none;fill-rule:nonzero;fill:rgb(0%,0%,0%);fill-opacity:1;" d="M 80.21875 94.863281 C 79.8125 94.988281 79.46875 95.203125 79.164062 95.535156 C 79.019531 95.6875 78.886719 95.8125 78.867188 95.8125 C 78.847656 95.8125 78.832031 95.703125 78.832031 95.574219 C 78.832031 95.441406 78.8125 95.238281 78.785156 95.121094 L 78.746094 94.90625 L 77.714844 94.90625 L 77.742188 98.035156 C 77.746094 99.757812 77.765625 101.207031 77.792969 101.257812 C 77.808594 101.320312 77.972656 101.347656 78.378906 101.328125 L 78.9375 101.304688 L 78.976562 99.140625 L 79.007812 96.964844 L 79.21875 96.601562 C 79.613281 95.90625 80.5 95.570312 81.226562 95.839844 C 81.617188 95.976562 81.792969 96.167969 82.011719 96.617188 C 82.167969 96.957031 82.175781 97.042969 82.199219 99.164062 L 82.226562 101.347656 L 82.808594 101.328125 L 83.398438 101.304688 L 83.398438 99.066406 C 83.398438 96.59375 83.359375 96.328125 82.925781 95.675781 C 82.695312 95.316406 82.175781 94.949219 81.746094 94.839844 C 81.351562 94.738281 80.589844 94.746094 80.21875 94.863281 Z M 80.21875 94.863281 "/>
<path style=" stroke:none;fill-rule:nonzero;fill:rgb(0%,0%,0%);fill-opacity:1;" d="M 90.820312 94.925781 C 90.25 95.15625 89.953125 95.398438 89.761719 95.792969 C 89.535156 96.25 89.511719 96.621094 89.648438 97.101562 C 89.847656 97.761719 90.121094 97.96875 91.710938 98.671875 C 92.273438 98.917969 92.523438 99.199219 92.523438 99.621094 C 92.523438 100.1875 92.144531 100.5 91.414062 100.554688 C 90.929688 100.59375 90.371094 100.472656 89.945312 100.265625 C 89.828125 100.207031 89.71875 100.171875 89.691406 100.195312 C 89.648438 100.210938 89.570312 100.40625 89.496094 100.613281 C 89.375 100.996094 89.375 101.003906 89.511719 101.101562 C 89.828125 101.328125 90.429688 101.445312 91.273438 101.445312 C 92.015625 101.445312 92.144531 101.429688 92.515625 101.257812 C 93.335938 100.886719 93.78125 100.167969 93.703125 99.347656 C 93.617188 98.605469 93.238281 98.160156 92.273438 97.730469 C 91.089844 97.183594 90.964844 97.113281 90.820312 96.832031 C 90.6875 96.585938 90.6875 96.535156 90.777344 96.28125 C 90.964844 95.765625 91.480469 95.558594 92.238281 95.6875 C 92.476562 95.726562 92.761719 95.804688 92.871094 95.855469 C 92.976562 95.90625 93.09375 95.957031 93.136719 95.957031 C 93.230469 95.957031 93.453125 95.273438 93.398438 95.148438 C 93.335938 94.972656 92.460938 94.761719 91.824219 94.761719 C 91.375 94.761719 91.148438 94.804688 90.820312 94.925781 Z M 90.820312 94.925781 "/>
<path style=" stroke:none;fill-rule:nonzero;fill:rgb(0%,0%,0%);fill-opacity:1;" d="M 37.558594 97.332031 C 37.582031 99.683594 37.585938 99.777344 37.746094 100.167969 C 37.933594 100.609375 38.398438 101.113281 38.820312 101.320312 C 39.035156 101.417969 39.253906 101.445312 39.8125 101.445312 C 40.449219 101.441406 40.582031 101.417969 40.941406 101.25 C 41.179688 101.140625 41.480469 100.914062 41.644531 100.738281 C 41.804688 100.554688 41.960938 100.433594 41.972656 100.453125 C 42.007812 100.472656 42.042969 100.675781 42.070312 100.898438 L 42.113281 101.304688 L 43.117188 101.304688 L 43.117188 101.003906 C 43.117188 100.84375 43.105469 99.402344 43.101562 97.808594 L 43.085938 94.90625 L 41.859375 94.90625 L 41.859375 97.070312 C 41.859375 99.242188 41.859375 99.25 41.679688 99.589844 C 41.097656 100.703125 39.507812 100.816406 38.992188 99.773438 C 38.757812 99.300781 38.695312 98.757812 38.695312 96.734375 L 38.695312 94.90625 L 37.53125 94.90625 Z M 37.558594 97.332031 "/>
<path style=" stroke:none;fill-rule:nonzero;fill:rgb(0%,0%,0%);fill-opacity:1;" d="M 45.109375 98.101562 L 45.140625 101.304688 L 46.285156 101.304688 L 46.308594 98.101562 L 46.316406 94.90625 L 45.09375 94.90625 Z M 45.109375 98.101562 "/>
<path style=" stroke:none;fill-rule:nonzero;fill:rgb(0%,0%,0%);fill-opacity:1;" d="M 0 115.480469 L 0 118.976562 L 109.332031 118.976562 L 109.332031 111.980469 L 0 111.980469 Z M 5.574219 113.640625 C 5.828125 113.722656 6.070312 113.886719 6.421875 114.226562 L 6.902344 114.703125 L 6.902344 115.578125 C 6.902344 116.542969 6.835938 116.789062 6.554688 116.859375 C 6.453125 116.878906 6.179688 117.007812 5.957031 117.136719 C 5.179688 117.601562 4.246094 117.523438 3.578125 116.949219 C 2.644531 116.148438 2.707031 114.644531 3.695312 113.929688 C 3.890625 113.789062 4.148438 113.644531 4.273438 113.609375 C 4.621094 113.492188 5.191406 113.503906 5.574219 113.640625 Z M 8.917969 114.757812 C 8.921875 115.398438 8.933594 115.425781 9.039062 115.253906 C 9.160156 115.035156 9.480469 114.847656 9.753906 114.847656 C 9.941406 114.847656 10.425781 115.09375 10.425781 115.1875 C 10.425781 115.214844 10.246094 115.414062 10.019531 115.644531 C 9.613281 116.039062 9.605469 116.054688 9.820312 116.023438 C 9.941406 116 10.085938 115.960938 10.164062 115.933594 C 10.269531 115.890625 10.285156 115.917969 10.285156 116.085938 C 10.285156 116.570312 9.355469 116.59375 9.074219 116.109375 C 8.933594 115.863281 8.875 115.847656 8.8125 116.042969 C 8.742188 116.230469 8.363281 116.457031 8.105469 116.457031 C 7.398438 116.457031 7.003906 115.621094 7.46875 115.113281 C 7.667969 114.90625 7.722656 114.882812 8.089844 114.882812 L 8.484375 114.882812 L 8.484375 114.476562 C 8.484375 114.074219 8.484375 114.074219 8.703125 114.074219 L 8.917969 114.074219 Z M 18.703125 114.496094 L 18.703125 114.90625 L 18.984375 114.871094 C 19.21875 114.835938 19.273438 114.851562 19.378906 115.007812 C 19.46875 115.136719 19.921875 116.332031 19.921875 116.441406 C 19.921875 116.457031 19.824219 116.457031 19.695312 116.441406 C 19.484375 116.425781 19.457031 116.394531 19.289062 115.875 C 19.109375 115.316406 18.992188 115.1875 18.808594 115.339844 C 18.730469 115.398438 18.703125 115.574219 18.703125 115.945312 L 18.703125 116.457031 L 18.484375 116.457031 C 18.28125 116.457031 18.269531 116.441406 18.257812 116.160156 C 18.257812 115.929688 18.25 115.890625 18.195312 116.011719 C 18.167969 116.09375 18.042969 116.230469 17.929688 116.316406 C 17.761719 116.441406 17.664062 116.464844 17.359375 116.441406 L 16.972656 116.410156 L 16.972656 116.71875 C 16.972656 117.007812 16.96875 117.019531 16.757812 117.019531 L 16.542969 117.019531 L 16.542969 116.191406 C 16.542969 115.292969 16.597656 115.136719 16.972656 114.957031 C 17.394531 114.746094 18.039062 114.921875 18.195312 115.292969 C 18.242188 115.398438 18.257812 115.246094 18.257812 114.757812 L 18.269531 114.074219 L 18.484375 114.074219 C 18.703125 114.074219 18.703125 114.074219 18.703125 114.496094 Z M 16.035156 114.605469 C 16.035156 114.820312 16.0625 114.847656 16.21875 114.847656 C 16.371094 114.847656 16.398438 114.882812 16.398438 115.054688 C 16.398438 115.234375 16.371094 115.269531 16.21875 115.269531 C 16.046875 115.269531 16.035156 115.292969 16.035156 115.65625 C 16.035156 116.023438 16.046875 116.039062 16.21875 116.039062 C 16.371094 116.039062 16.398438 116.070312 16.398438 116.246094 C 16.398438 116.441406 16.382812 116.457031 16.148438 116.457031 C 15.742188 116.457031 15.605469 116.273438 15.605469 115.726562 C 15.605469 115.464844 15.578125 115.269531 15.539062 115.269531 C 15.496094 115.269531 15.464844 115.167969 15.464844 115.054688 C 15.464844 114.941406 15.496094 114.847656 15.539062 114.847656 C 15.578125 114.847656 15.605469 114.769531 15.605469 114.6875 C 15.605469 114.585938 15.667969 114.496094 15.769531 114.441406 C 16.019531 114.335938 16.035156 114.335938 16.035156 114.605469 Z M 22.011719 114.605469 C 22.011719 114.820312 22.03125 114.847656 22.1875 114.847656 C 22.339844 114.847656 22.367188 114.882812 22.367188 115.054688 C 22.367188 115.234375 22.339844 115.269531 22.1875 115.269531 C 22.019531 115.269531 22.011719 115.292969 22.011719 115.65625 C 22.011719 116.023438 22.019531 116.039062 22.1875 116.039062 C 22.339844 116.039062 22.367188 116.070312 22.367188 116.246094 C 22.367188 116.441406 22.347656 116.457031 22.117188 116.457031 C 21.714844 116.457031 21.578125 116.273438 21.578125 115.726562 C 21.578125 115.464844 21.546875 115.269531 21.503906 115.269531 C 21.46875 115.269531 21.433594 115.167969 21.433594 115.054688 C 21.433594 114.941406 21.46875 114.847656 21.503906 114.847656 C 21.546875 114.847656 21.578125 114.769531 21.578125 114.6875 C 21.578125 114.585938 21.644531 114.496094 21.742188 114.441406 C 21.984375 114.335938 22.011719 114.335938 22.011719 114.605469 Z M 11.839844 115.066406 C 11.929688 115.152344 12.007812 115.265625 12.007812 115.316406 C 12.007812 115.460938 12.136719 115.421875 12.179688 115.277344 C 12.222656 115.09375 12.636719 114.847656 12.898438 114.847656 C 13.71875 114.847656 14.054688 115.90625 13.363281 116.316406 C 13.234375 116.394531 13.039062 116.457031 12.914062 116.457031 C 12.644531 116.457031 12.226562 116.222656 12.179688 116.039062 C 12.148438 115.929688 12.105469 115.945312 11.859375 116.191406 C 11.59375 116.464844 11.574219 116.476562 11.222656 116.441406 L 10.863281 116.410156 L 10.863281 116.710938 C 10.863281 117.007812 10.851562 117.019531 10.648438 117.019531 L 10.425781 117.019531 L 10.425781 116.246094 C 10.425781 115.390625 10.507812 115.136719 10.847656 114.957031 C 11.117188 114.804688 11.617188 114.851562 11.839844 115.066406 Z M 14.675781 114.984375 C 14.851562 115.113281 14.851562 115.113281 14.714844 115.265625 C 14.625 115.363281 14.550781 115.390625 14.5 115.339844 C 14.464844 115.300781 14.386719 115.269531 14.335938 115.269531 C 14.175781 115.269531 14.234375 115.398438 14.4375 115.496094 C 14.707031 115.621094 14.824219 115.863281 14.730469 116.117188 C 14.609375 116.476562 14.183594 116.570312 13.871094 116.324219 C 13.695312 116.191406 13.695312 116.191406 13.839844 116.042969 C 13.933594 115.945312 14 115.917969 14.054688 115.96875 C 14.15625 116.070312 14.3125 116.058594 14.3125 115.945312 C 14.3125 115.90625 14.210938 115.824219 14.097656 115.769531 C 13.859375 115.667969 13.769531 115.441406 13.839844 115.167969 C 13.917969 114.851562 14.394531 114.757812 14.675781 114.984375 Z M 21.195312 115.082031 C 21.742188 115.617188 21.238281 116.570312 20.480469 116.429688 C 20.085938 116.359375 19.886719 116.109375 19.886719 115.65625 C 19.886719 115.269531 20.019531 115.039062 20.320312 114.914062 C 20.5625 114.804688 21.011719 114.894531 21.195312 115.082031 Z M 23.523438 114.957031 C 24.292969 115.339844 23.964844 116.457031 23.082031 116.457031 C 22.925781 116.457031 22.785156 116.394531 22.617188 116.222656 C 21.953125 115.578125 22.691406 114.535156 23.523438 114.957031 Z M 24.898438 114.984375 C 25.070312 115.113281 25.070312 115.113281 24.925781 115.265625 C 24.832031 115.363281 24.765625 115.390625 24.714844 115.339844 C 24.679688 115.300781 24.601562 115.269531 24.554688 115.269531 C 24.386719 115.269531 24.4375 115.414062 24.621094 115.476562 C 25.050781 115.628906 25.152344 115.996094 24.855469 116.28125 C 24.640625 116.488281 24.316406 116.515625 24.089844 116.324219 C 23.914062 116.191406 23.914062 116.191406 24.050781 116.042969 C 24.144531 115.945312 24.21875 115.917969 24.269531 115.96875 C 24.359375 116.058594 24.601562 116.058594 24.601562 115.96875 C 24.601562 115.933594 24.488281 115.847656 24.371094 115.789062 C 24.082031 115.652344 24.027344 115.574219 24.027344 115.316406 C 24.027344 114.914062 24.539062 114.703125 24.898438 114.984375 Z M 79.90625 115.050781 C 80.019531 115.253906 79.992188 115.660156 79.867188 115.789062 C 79.75 115.902344 79.195312 115.945312 79.179688 115.847656 C 79.179688 115.8125 79.171875 115.601562 79.15625 115.355469 L 79.128906 114.921875 L 79.476562 114.921875 C 79.761719 114.921875 79.851562 114.949219 79.90625 115.050781 Z M 79.90625 115.050781 "/>
<path style=" stroke:none;fill-rule:nonzero;fill:rgb(0%,0%,0%);fill-opacity:1;" d="M 4.589844 114.496094 C 4.515625 114.605469 4.417969 114.640625 4.199219 114.640625 C 3.722656 114.640625 3.671875 114.753906 3.671875 115.699219 C 3.671875 116.230469 3.695312 116.527344 3.753906 116.585938 C 3.808594 116.640625 4.230469 116.671875 5.152344 116.671875 C 6.25 116.671875 6.480469 116.652344 6.574219 116.558594 C 6.667969 116.476562 6.683594 116.28125 6.683594 115.65625 C 6.683594 114.71875 6.644531 114.640625 6.125 114.640625 C 5.871094 114.640625 5.742188 114.605469 5.648438 114.496094 C 5.546875 114.386719 5.429688 114.355469 5.097656 114.355469 C 4.753906 114.355469 4.664062 114.386719 4.589844 114.496094 Z M 5.539062 114.957031 C 6.273438 115.328125 5.972656 116.457031 5.144531 116.457031 C 4.648438 116.457031 4.273438 116.023438 4.335938 115.535156 C 4.417969 114.960938 5 114.683594 5.539062 114.957031 Z M 5.539062 114.957031 "/>
<path style=" stroke:none;fill-rule:nonzero;fill:rgb(0%,0%,0%);fill-opacity:1;" d="M 4.828125 115.085938 C 4.636719 115.191406 4.46875 115.441406 4.457031 115.644531 C 4.449219 116.027344 4.898438 116.375 5.308594 116.28125 C 5.894531 116.164062 5.992188 115.363281 5.460938 115.09375 C 5.210938 114.96875 5.046875 114.96875 4.828125 115.085938 Z M 5.53125 115.3125 C 5.742188 115.574219 5.722656 115.863281 5.492188 116.027344 C 5.386719 116.117188 5.21875 116.179688 5.132812 116.179688 C 4.898438 116.179688 4.601562 115.882812 4.601562 115.652344 C 4.601562 115.167969 5.234375 114.949219 5.53125 115.3125 Z M 5.53125 115.3125 "/>
</g>
</svg>
