<?xml version="1.0" encoding="UTF-8"?>
<svg xmlns="http://www.w3.org/2000/svg" xmlns:xlink="http://www.w3.org/1999/xlink" width="110pt" height="109pt" viewBox="0 0 110 109" version="1.1">
<g id="surface1">
<path style=" stroke:none;fill-rule:nonzero;fill:rgb(0%,0%,0%);fill-opacity:1;" d="M 48.425781 3.820312 C 48.0625 4.183594 47.996094 4.523438 47.996094 5.988281 L 47.996094 7.753906 L 46.367188 8.367188 L 44.761719 8.980469 L 43.753906 8.027344 C 42.511719 6.816406 41.914062 6.519531 41.164062 6.6875 C 40.390625 6.855469 32.65625 14.523438 32.460938 15.328125 C 32.289062 16.03125 32.59375 16.625 33.8125 17.878906 L 34.777344 18.875 L 34.15625 20.46875 L 33.535156 22.082031 L 31.773438 22.082031 C 28.992188 22.082031 29.140625 21.699219 29.140625 28.875 C 29.140625 36.054688 28.992188 35.667969 31.753906 35.667969 L 33.535156 35.667969 L 34.15625 37.285156 L 34.777344 38.875 L 33.8125 39.875 C 32.59375 41.105469 32.289062 41.703125 32.460938 42.441406 C 32.632812 43.207031 40.367188 50.875 41.183594 51.066406 C 41.886719 51.234375 42.488281 50.933594 43.753906 49.726562 L 44.761719 48.773438 L 46.367188 49.386719 L 47.996094 50 L 47.996094 51.746094 C 47.996094 54.503906 47.613281 54.355469 54.851562 54.355469 C 62.097656 54.355469 61.710938 54.503906 61.710938 51.746094 L 61.710938 50 L 63.339844 49.386719 L 64.945312 48.773438 L 65.953125 49.726562 C 67.21875 50.933594 67.820312 51.234375 68.523438 51.066406 C 69.335938 50.875 77.074219 43.207031 77.246094 42.441406 C 77.417969 41.703125 77.113281 41.105469 75.894531 39.875 L 74.933594 38.875 L 75.554688 37.285156 L 76.171875 35.667969 L 77.953125 35.667969 C 80.714844 35.667969 80.566406 36.054688 80.566406 28.875 C 80.566406 21.699219 80.714844 22.082031 77.953125 22.082031 L 76.171875 22.082031 L 75.554688 20.46875 L 74.933594 18.875 L 75.894531 17.878906 C 77.113281 16.625 77.417969 16.03125 77.246094 15.328125 C 77.054688 14.523438 69.316406 6.855469 68.546875 6.6875 C 67.796875 6.519531 67.195312 6.816406 65.972656 8.003906 L 64.96875 8.960938 L 63.339844 8.367188 L 61.710938 7.753906 L 61.710938 5.988281 C 61.710938 3.25 62.097656 3.394531 54.851562 3.394531 C 49.132812 3.394531 48.832031 3.421875 48.425781 3.820312 Z M 58.285156 8.382812 C 58.285156 10.316406 58.476562 10.574219 60.53125 11.234375 C 61.324219 11.488281 62.652344 12.039062 63.484375 12.460938 C 65.351562 13.375 65.933594 13.3125 67.28125 11.996094 L 68.265625 11.042969 L 70.5625 13.335938 L 72.851562 15.625 L 71.886719 16.5625 C 70.5625 17.859375 70.476562 18.453125 71.417969 20.300781 C 71.824219 21.105469 72.363281 22.421875 72.640625 23.246094 C 73.28125 25.246094 73.582031 25.480469 75.554688 25.480469 L 77.140625 25.480469 L 77.140625 32.273438 L 75.554688 32.273438 C 73.582031 32.273438 73.28125 32.503906 72.640625 34.503906 C 72.363281 35.308594 71.824219 36.644531 71.417969 37.453125 C 70.496094 39.277344 70.5625 39.851562 71.886719 41.191406 L 72.851562 42.167969 L 70.535156 44.441406 L 68.222656 46.710938 L 67.28125 45.753906 C 65.972656 44.441406 65.375 44.355469 63.484375 45.308594 C 62.652344 45.714844 61.324219 46.265625 60.511719 46.5 C 58.515625 47.136719 58.285156 47.433594 58.285156 49.386719 L 58.285156 50.957031 L 51.425781 50.957031 L 51.425781 49.386719 C 51.425781 47.433594 51.191406 47.136719 49.175781 46.5 C 48.359375 46.226562 47.011719 45.695312 46.199219 45.289062 C 44.332031 44.355469 43.734375 44.441406 42.425781 45.753906 L 41.484375 46.710938 L 39.167969 44.441406 L 36.855469 42.167969 L 37.820312 41.191406 C 39.144531 39.851562 39.210938 39.277344 38.289062 37.453125 C 37.882812 36.644531 37.347656 35.328125 37.066406 34.523438 C 36.382812 32.464844 36.125 32.273438 34.175781 32.273438 L 32.570312 32.273438 L 32.570312 25.480469 L 34.175781 25.480469 C 36.125 25.480469 36.382812 25.289062 37.066406 23.230469 C 37.347656 22.421875 37.882812 21.105469 38.289062 20.300781 C 39.210938 18.472656 39.144531 17.898438 37.820312 16.5625 L 36.855469 15.582031 L 41.484375 11.042969 L 42.425781 11.996094 C 43.734375 13.3125 44.332031 13.398438 46.199219 12.460938 C 47.011719 12.058594 48.339844 11.527344 49.152344 11.253906 C 51.230469 10.574219 51.425781 10.316406 51.425781 8.382812 L 51.425781 6.792969 L 58.285156 6.792969 Z M 58.285156 8.382812 "/>
<path style=" stroke:none;fill-rule:nonzero;fill:rgb(0%,0%,0%);fill-opacity:1;" d="M 50.824219 14.011719 C 45.574219 15.394531 41.203125 19.746094 39.851562 24.96875 C 39.554688 26.097656 39.425781 27.324219 39.425781 28.875 C 39.425781 33.292969 40.820312 36.628906 43.925781 39.703125 C 47.03125 42.78125 50.394531 44.164062 54.851562 44.164062 C 59.3125 44.164062 62.675781 42.78125 65.78125 39.703125 C 68.886719 36.628906 70.28125 33.292969 70.28125 28.875 C 70.28125 27.324219 70.152344 26.097656 69.851562 24.96875 C 68.503906 19.703125 64.109375 15.347656 58.796875 14.011719 C 56.589844 13.441406 53.011719 13.460938 50.824219 14.011719 Z M 58.820312 17.792969 C 62.113281 19 65.054688 21.957031 66.125 25.179688 C 66.707031 26.945312 66.707031 30.804688 66.125 32.570312 C 65.054688 35.796875 62.113281 38.769531 58.820312 39.960938 C 56.828125 40.660156 53.652344 40.742188 51.535156 40.109375 C 47.953125 39.070312 44.933594 36.265625 43.667969 32.804688 C 43.089844 31.214844 42.898438 28.027344 43.285156 26.351562 C 44.226562 22.144531 47.546875 18.726562 51.851562 17.496094 C 53.375 17.050781 57.230469 17.21875 58.820312 17.792969 Z M 58.820312 17.792969 "/>
<path style=" stroke:none;fill-rule:nonzero;fill:rgb(0%,0%,0%);fill-opacity:1;" d="M 56.675781 26.882812 L 53.03125 31.214844 L 51.167969 29.363281 L 49.28125 27.496094 L 47.933594 28.832031 L 46.601562 30.148438 L 49.410156 32.910156 C 52.050781 35.523438 52.261719 35.667969 53.050781 35.667969 C 53.507812 35.667969 54.019531 35.585938 54.167969 35.5 C 54.316406 35.394531 56.398438 32.996094 58.820312 30.128906 L 63.1875 24.945312 L 62.074219 23.929688 C 61.476562 23.378906 60.8125 22.820312 60.640625 22.71875 C 60.382812 22.589844 59.503906 23.503906 56.675781 26.882812 Z M 56.675781 26.882812 "/>
<path style=" stroke:none;fill-rule:nonzero;fill:rgb(0%,0%,0%);fill-opacity:1;" d="M 19.539062 58.199219 C 18 58.792969 16.457031 60.34375 15.855469 61.9375 C 15.191406 63.675781 15.300781 66.136719 16.09375 67.667969 L 16.671875 68.75 L 15.621094 69.410156 C 14.355469 70.234375 13.457031 71.28125 12.6875 72.828125 L 12.105469 73.996094 L 12.042969 80.472656 C 12 84.015625 12.042969 87.160156 12.105469 87.417969 C 12.191406 87.773438 12.6875 88.132812 13.820312 88.691406 L 15.429688 89.472656 L 15.429688 96.96875 C 15.429688 104.183594 15.449219 104.488281 15.855469 104.886719 C 16.261719 105.289062 16.5625 105.3125 22.28125 105.3125 C 28.003906 105.3125 28.304688 105.289062 28.714844 104.886719 C 29.117188 104.488281 29.140625 104.183594 29.140625 96.96875 L 29.140625 89.472656 L 30.660156 88.75 C 31.5 88.351562 32.269531 87.859375 32.375 87.648438 C 32.484375 87.457031 32.570312 84.464844 32.570312 81 C 32.570312 75.394531 32.527344 74.609375 32.164062 73.59375 C 31.582031 71.957031 30.574219 70.597656 29.164062 69.578125 L 27.941406 68.6875 L 28.5 67.628906 C 29.269531 66.136719 29.355469 63.65625 28.714844 61.9375 C 28.089844 60.300781 26.570312 58.792969 24.964844 58.199219 C 23.375 57.605469 21.109375 57.605469 19.539062 58.199219 Z M 23.953125 61.789062 C 26.742188 63.464844 25.542969 67.730469 22.28125 67.730469 C 19.027344 67.730469 17.828125 63.464844 20.613281 61.789062 C 21.535156 61.234375 23.03125 61.234375 23.953125 61.789062 Z M 25.820312 71.851562 C 26.957031 72.335938 28.027344 73.355469 28.585938 74.527344 C 28.992188 75.394531 29.03125 75.925781 29.097656 80.472656 L 29.183594 85.460938 L 27.640625 86.203125 C 26.785156 86.609375 26.015625 87.097656 25.90625 87.304688 C 25.800781 87.5 25.714844 90.875 25.714844 94.78125 L 25.714844 101.914062 L 18.855469 101.914062 L 18.855469 94.78125 C 18.855469 90.875 18.769531 87.5 18.664062 87.304688 C 18.554688 87.097656 17.785156 86.609375 16.925781 86.203125 L 15.386719 85.460938 L 15.46875 80.472656 C 15.554688 74.953125 15.664062 74.441406 16.992188 73.082031 C 18.367188 71.660156 19.539062 71.320312 22.820312 71.425781 C 24.191406 71.46875 25.261719 71.636719 25.820312 71.851562 Z M 25.820312 71.851562 "/>
<path style=" stroke:none;fill-rule:nonzero;fill:rgb(0%,0%,0%);fill-opacity:1;" d="M 52.109375 58.199219 C 50.566406 58.792969 49.023438 60.34375 48.425781 61.9375 C 47.761719 63.675781 47.867188 66.136719 48.660156 67.667969 L 49.238281 68.75 L 48.191406 69.410156 C 46.925781 70.234375 46.027344 71.28125 45.253906 72.828125 L 44.675781 73.996094 L 44.613281 80.472656 C 44.570312 84.015625 44.613281 87.160156 44.675781 87.417969 C 44.761719 87.773438 45.253906 88.132812 46.390625 88.691406 L 47.996094 89.472656 L 47.996094 96.96875 C 47.996094 104.183594 48.019531 104.488281 48.425781 104.886719 C 48.832031 105.289062 49.132812 105.3125 54.851562 105.3125 C 60.570312 105.3125 60.875 105.289062 61.28125 104.886719 C 61.6875 104.488281 61.710938 104.183594 61.710938 96.96875 L 61.710938 89.472656 L 63.230469 88.75 C 64.066406 88.351562 64.839844 87.859375 64.945312 87.648438 C 65.054688 87.457031 65.136719 84.464844 65.136719 81 C 65.136719 75.394531 65.097656 74.609375 64.734375 73.59375 C 64.152344 71.957031 63.144531 70.597656 61.730469 69.578125 L 60.511719 68.6875 L 61.070312 67.628906 C 61.839844 66.136719 61.925781 63.65625 61.28125 61.9375 C 60.65625 60.300781 59.140625 58.792969 57.535156 58.199219 C 55.945312 57.605469 53.675781 57.605469 52.109375 58.199219 Z M 56.523438 61.789062 C 59.3125 63.464844 58.113281 67.730469 54.851562 67.730469 C 53.03125 67.730469 51.640625 66.355469 51.640625 64.542969 C 51.640625 62.082031 54.402344 60.515625 56.523438 61.789062 Z M 58.390625 71.851562 C 59.527344 72.335938 60.597656 73.355469 61.152344 74.527344 C 61.5625 75.394531 61.601562 75.925781 61.667969 80.472656 L 61.753906 85.460938 L 60.210938 86.203125 C 59.355469 86.609375 58.582031 87.097656 58.476562 87.304688 C 58.371094 87.5 58.285156 90.875 58.285156 94.78125 L 58.285156 101.914062 L 51.425781 101.914062 L 51.425781 94.78125 C 51.425781 90.875 51.339844 87.5 51.230469 87.304688 C 51.125 87.097656 50.351562 86.609375 49.496094 86.203125 L 47.953125 85.460938 L 48.039062 80.472656 C 48.125 74.953125 48.234375 74.441406 49.5625 73.082031 C 50.933594 71.660156 52.109375 71.320312 55.390625 71.425781 C 56.761719 71.46875 57.832031 71.636719 58.390625 71.851562 Z M 58.390625 71.851562 "/>
<path style=" stroke:none;fill-rule:nonzero;fill:rgb(0%,0%,0%);fill-opacity:1;" d="M 84.679688 58.199219 C 83.136719 58.792969 81.59375 60.34375 80.996094 61.9375 C 80.332031 63.675781 80.4375 66.136719 81.230469 67.667969 L 81.808594 68.75 L 80.757812 69.410156 C 79.496094 70.234375 78.59375 71.28125 77.824219 72.828125 L 77.246094 73.996094 L 77.183594 80.472656 C 77.140625 84.015625 77.183594 87.160156 77.246094 87.417969 C 77.332031 87.773438 77.824219 88.132812 78.960938 88.691406 L 80.566406 89.472656 L 80.566406 96.96875 C 80.566406 104.183594 80.585938 104.488281 80.996094 104.886719 C 81.402344 105.289062 81.703125 105.3125 87.421875 105.3125 C 93.140625 105.3125 93.445312 105.289062 93.851562 104.886719 C 94.253906 104.488281 94.28125 104.183594 94.28125 96.96875 L 94.28125 89.472656 L 95.796875 88.75 C 96.636719 88.351562 97.40625 87.859375 97.515625 87.648438 C 97.621094 87.457031 97.707031 84.464844 97.707031 81 C 97.707031 75.394531 97.664062 74.609375 97.304688 73.59375 C 96.722656 71.957031 95.710938 70.597656 94.300781 69.578125 L 93.082031 68.6875 L 93.636719 67.628906 C 94.410156 66.136719 94.496094 63.65625 93.851562 61.9375 C 93.226562 60.300781 91.710938 58.792969 90.101562 58.199219 C 88.515625 57.605469 86.246094 57.605469 84.679688 58.199219 Z M 89.09375 61.789062 C 91.882812 63.464844 90.679688 67.730469 87.421875 67.730469 C 84.164062 67.730469 82.964844 63.464844 85.75 61.789062 C 86.675781 61.234375 88.171875 61.234375 89.09375 61.789062 Z M 90.960938 71.851562 C 92.09375 72.335938 93.167969 73.355469 93.722656 74.527344 C 94.128906 75.394531 94.167969 75.925781 94.238281 80.472656 L 94.324219 85.460938 L 92.78125 86.203125 C 91.925781 86.609375 91.152344 87.097656 91.046875 87.304688 C 90.9375 87.5 90.851562 90.875 90.851562 94.78125 L 90.851562 101.914062 L 83.992188 101.914062 L 83.992188 94.78125 C 83.992188 90.875 83.910156 87.5 83.800781 87.304688 C 83.695312 87.097656 82.921875 86.609375 82.066406 86.203125 L 80.523438 85.460938 L 80.609375 80.472656 C 80.695312 74.953125 80.800781 74.441406 82.132812 73.082031 C 83.503906 71.660156 84.679688 71.320312 87.960938 71.425781 C 89.332031 71.46875 90.398438 71.636719 90.960938 71.851562 Z M 90.960938 71.851562 "/>
</g>
</svg>
