<?xml version="1.0" encoding="UTF-8"?>
<svg xmlns="http://www.w3.org/2000/svg" xmlns:xlink="http://www.w3.org/1999/xlink" width="111pt" height="109pt" viewBox="0 0 111 109" version="1.1">
<g id="surface1">
<path style=" stroke:none;fill-rule:nonzero;fill:rgb(0%,0%,0%);fill-opacity:1;" d="M 64.953125 2.671875 C 54.890625 4.855469 46.441406 13.300781 44.578125 23.015625 L 43.9375 26.21875 L 19.636719 26.21875 L 19.636719 29.613281 L 43.695312 29.613281 L 43.9375 30.929688 C 44.378906 33.308594 45.5625 38.0625 45.90625 38.9375 C 46.246094 39.765625 45.164062 39.8125 27.300781 39.8125 L 8.347656 39.8125 L 8.347656 42.726562 L 47.867188 42.726562 L 49.585938 44.910156 C 53.023438 49.28125 59.011719 53.019531 64.707031 54.378906 L 67.261719 54.960938 L 67.261719 103.902344 L 17.917969 103.902344 L 10.703125 96.765625 L 3.4375 89.582031 L 3.4375 18.453125 L 43.695312 18.453125 L 43.695312 15.050781 L 0 15.050781 L 0 90.550781 L 8.492188 98.949219 L 16.9375 107.300781 L 70.699219 107.300781 L 70.699219 55.347656 L 71.824219 55.160156 C 72.414062 55.011719 74.035156 54.816406 75.460938 54.625 L 77.964844 54.378906 L 79.53125 57.730469 L 81.152344 61.128906 L 82.527344 60.398438 C 83.3125 60.007812 83.953125 59.574219 83.953125 59.429688 C 83.953125 59.332031 83.265625 57.875 82.429688 56.222656 C 81.253906 53.890625 81.054688 53.167969 81.59375 52.875 C 82.871094 52.046875 83.363281 52.535156 85.324219 56.808594 L 87.339844 61.175781 L 83.902344 62.875 C 82.035156 63.847656 80.515625 64.671875 80.515625 64.820312 C 80.515625 65.207031 97.796875 101.71875 98.191406 102.109375 C 98.582031 102.542969 109.773438 97.640625 110.019531 96.957031 C 110.070312 96.714844 106.191406 88.125 101.332031 77.878906 C 93.082031 60.351562 92.496094 59.1875 91.414062 59.476562 C 90.433594 59.722656 90.085938 59.285156 88.175781 55.253906 L 86.058594 50.738281 L 89.300781 47.585938 C 94.851562 42.191406 97.402344 36.023438 97.355469 28.15625 C 97.355469 20.730469 94.898438 15.148438 89.402344 9.714844 C 82.871094 3.351562 73.886719 0.773438 64.953125 2.671875 Z M 76.339844 6.070312 C 87.882812 9.078125 95.6875 20.34375 93.921875 31.460938 C 93.132812 36.171875 91.660156 39.71875 89.007812 42.96875 C 81.992188 51.511719 70.648438 54.039062 60.632812 49.328125 C 56.410156 47.339844 53.710938 45.054688 51.351562 41.515625 C 45.164062 32.335938 46.148438 20.875 53.710938 12.722656 C 59.453125 6.652344 68.289062 4.027344 76.339844 6.070312 Z M 76.339844 6.070312 "/>
<path style=" stroke:none;fill-rule:nonzero;fill:rgb(0%,0%,0%);fill-opacity:1;" d="M 65.445312 16.703125 C 64.3125 17.042969 62.398438 17.917969 61.222656 18.597656 C 58.914062 19.957031 53.710938 25.199219 52.578125 27.335938 C 51.894531 28.546875 51.992188 28.789062 53.761719 31.363281 C 56.265625 34.957031 59.453125 37.675781 63.332031 39.519531 C 66.128906 40.832031 67.015625 41.027344 70.699219 41.027344 C 74.234375 41.027344 75.3125 40.832031 77.71875 39.71875 C 79.289062 38.984375 81.5 37.675781 82.527344 36.851562 C 84.539062 35.25 88.859375 30.347656 88.859375 29.570312 C 88.859375 29.324219 88.222656 28.839844 87.390625 28.402344 C 86.601562 27.96875 85.914062 27.867188 85.914062 28.113281 C 85.914062 28.402344 84.589844 30.054688 82.921875 31.753906 C 75.210938 39.910156 66.226562 40.011719 58.71875 31.996094 C 57.195312 30.394531 55.96875 28.890625 55.96875 28.648438 C 55.96875 28.015625 59.847656 23.304688 60.386719 23.304688 C 60.679688 23.304688 60.875 24.421875 60.875 25.734375 C 60.875 28.839844 61.761719 30.878906 63.972656 32.96875 C 68.339844 37.097656 75.554688 36.222656 79.089844 31.167969 C 79.976562 29.90625 80.269531 28.648438 80.417969 26.121094 C 80.613281 23.304688 80.714844 22.867188 81.351562 23.355469 C 81.890625 23.835938 82.234375 23.742188 83.117188 22.914062 L 84.148438 21.851562 L 82.96875 20.632812 C 82.332031 19.957031 80.367188 18.695312 78.648438 17.867188 C 76.046875 16.605469 74.820312 16.3125 71.53125 16.167969 C 69.027344 16.070312 66.71875 16.261719 65.445312 16.703125 Z M 75.164062 21.316406 C 79.433594 25.535156 76.6875 32.191406 70.648438 32.191406 C 66.917969 32.191406 64.3125 29.425781 64.3125 25.492188 C 64.3125 23.453125 64.558594 22.964844 66.226562 21.316406 C 67.945312 19.617188 68.386719 19.417969 70.699219 19.417969 C 73.007812 19.417969 73.445312 19.617188 75.164062 21.316406 Z M 75.164062 21.316406 "/>
<path style=" stroke:none;fill-rule:nonzero;fill:rgb(0%,0%,0%);fill-opacity:1;" d="M 67.210938 22.285156 C 64.066406 25.394531 66.226562 30.734375 70.648438 30.734375 C 73.644531 30.734375 75.605469 28.789062 75.605469 25.828125 C 75.605469 22.867188 73.644531 20.875 70.699219 20.875 C 69.074219 20.875 68.339844 21.167969 67.210938 22.285156 Z M 67.210938 22.285156 "/>
<path style=" stroke:none;fill-rule:nonzero;fill:rgb(0%,0%,0%);fill-opacity:1;" d="M 8.347656 34.714844 L 8.347656 36.414062 L 41.734375 36.414062 L 41.734375 33.015625 L 8.347656 33.015625 Z M 8.347656 34.714844 "/>
<path style=" stroke:none;fill-rule:nonzero;fill:rgb(0%,0%,0%);fill-opacity:1;" d="M 28.128906 46.464844 L 8.347656 46.609375 L 8.347656 49.523438 L 48.109375 49.523438 L 48.109375 47.824219 C 48.109375 46.902344 48.0625 46.175781 48.015625 46.222656 C 47.917969 46.316406 38.980469 46.417969 28.128906 46.464844 Z M 28.128906 46.464844 "/>
<path style=" stroke:none;fill-rule:nonzero;fill:rgb(0%,0%,0%);fill-opacity:1;" d="M 8.347656 54.625 L 8.347656 56.324219 L 55.476562 56.324219 L 55.476562 52.921875 L 8.347656 52.921875 Z M 8.347656 54.625 "/>
<path style=" stroke:none;fill-rule:nonzero;fill:rgb(0%,0%,0%);fill-opacity:1;" d="M 8.347656 61.175781 L 8.347656 62.632812 L 62.347656 62.632812 L 62.347656 59.722656 L 8.347656 59.722656 Z M 8.347656 61.175781 "/>
<path style=" stroke:none;fill-rule:nonzero;fill:rgb(0%,0%,0%);fill-opacity:1;" d="M 8.347656 67.972656 L 8.347656 69.429688 L 62.347656 69.429688 L 62.347656 66.519531 L 8.347656 66.519531 Z M 8.347656 67.972656 "/>
<path style=" stroke:none;fill-rule:nonzero;fill:rgb(0%,0%,0%);fill-opacity:1;" d="M 8.347656 74.527344 L 8.347656 76.226562 L 62.347656 76.226562 L 62.347656 72.828125 L 8.347656 72.828125 Z M 8.347656 74.527344 "/>
<path style=" stroke:none;fill-rule:nonzero;fill:rgb(0%,0%,0%);fill-opacity:1;" d="M 8.347656 81.324219 L 8.347656 83.023438 L 51.058594 83.023438 L 51.058594 79.625 L 8.347656 79.625 Z M 8.347656 81.324219 "/>
<path style=" stroke:none;fill-rule:nonzero;fill:rgb(0%,0%,0%);fill-opacity:1;" d="M 35.347656 94.4375 L 35.347656 96.136719 L 62.347656 96.136719 L 62.347656 92.738281 L 35.347656 92.738281 Z M 35.347656 94.4375 "/>
</g>
</svg>
