<?xml version="1.0" encoding="UTF-8"?>
<svg xmlns="http://www.w3.org/2000/svg" xmlns:xlink="http://www.w3.org/1999/xlink" width="20pt" height="20pt" viewBox="0 0 20 20" version="1.1">
<g id="surface1">
<path style=" stroke:none;fill-rule:nonzero;fill:rgb(0%,0%,0%);fill-opacity:1;" d="M 2.492188 0.0664062 C 1.894531 0.292969 1.472656 0.773438 1.382812 1.359375 C 1.328125 1.660156 1.328125 16.519531 1.382812 16.820312 C 1.488281 17.519531 2.050781 18.066406 2.757812 18.179688 C 2.914062 18.210938 4.378906 18.222656 6.859375 18.222656 L 10.726562 18.222656 L 10.960938 18.457031 C 11.246094 18.734375 11.507812 18.894531 11.863281 18.996094 C 12.09375 19.074219 12.207031 19.082031 13.152344 19.082031 C 14.101562 19.082031 14.210938 19.074219 14.445312 18.996094 C 15.136719 18.789062 15.691406 18.238281 15.917969 17.546875 C 15.992188 17.335938 16 17.203125 16.015625 16.339844 L 16.03125 15.363281 L 16.257812 15.292969 C 16.738281 15.152344 17.277344 14.679688 17.496094 14.199219 C 17.667969 13.84375 17.714844 13.640625 17.714844 13.230469 C 17.714844 12.800781 17.636719 12.46875 17.449219 12.160156 C 17.40625 12.070312 16.894531 11.328125 16.324219 10.507812 L 15.28125 9.015625 L 15.273438 6.289062 L 15.257812 3.5625 L 15.175781 3.371094 C 15.054688 3.109375 12.183594 0.234375 11.90625 0.0898438 L 11.726562 0 L 7.195312 0 C 3.050781 0 2.652344 0.015625 2.492188 0.0664062 Z M 10.207031 3.09375 C 10.207031 4.027344 10.214844 4.109375 10.285156 4.304688 C 10.390625 4.589844 10.621094 4.832031 10.898438 4.957031 L 11.125 5.070312 L 13.191406 5.070312 L 13.191406 7.640625 L 13.027344 7.640625 C 12.492188 7.640625 11.808594 7.976562 11.464844 8.414062 C 11.179688 8.765625 8.894531 12.09375 8.804688 12.28125 C 8.652344 12.589844 8.59375 12.851562 8.59375 13.230469 C 8.59375 13.625 8.652344 13.882812 8.847656 14.25 C 9.097656 14.738281 9.5625 15.136719 10.074219 15.300781 L 10.285156 15.371094 L 10.285156 16.097656 L 3.425781 16.097656 L 3.425781 2.089844 L 10.207031 2.089844 Z M 13.355469 9.433594 C 13.460938 9.480469 15.902344 12.949219 15.964844 13.132812 C 15.984375 13.230469 15.976562 13.28125 15.933594 13.386719 C 15.8125 13.632812 15.753906 13.65625 14.972656 13.664062 L 14.273438 13.679688 L 14.273438 15.273438 C 14.273438 16.242188 14.257812 16.917969 14.234375 17 C 14.210938 17.074219 14.144531 17.179688 14.085938 17.234375 L 13.964844 17.332031 L 12.34375 17.332031 L 12.222656 17.234375 C 12.160156 17.179688 12.09375 17.074219 12.070312 17 C 12.050781 16.917969 12.035156 16.242188 12.035156 15.265625 L 12.035156 13.671875 L 11.425781 13.671875 C 10.703125 13.671875 10.613281 13.65625 10.472656 13.523438 C 10.359375 13.410156 10.3125 13.265625 10.359375 13.117188 C 10.375 13.046875 12.371094 10.148438 12.800781 9.570312 C 12.929688 9.398438 13.152344 9.34375 13.355469 9.433594 Z M 13.355469 9.433594 "/>
</g>
</svg>
