<?xml version="1.0" encoding="UTF-8"?>
<svg xmlns="http://www.w3.org/2000/svg" xmlns:xlink="http://www.w3.org/1999/xlink" width="100pt" height="100pt" viewBox="0 0 100 100" version="1.1">
<g id="surface1">
<path style=" stroke:none;fill-rule:nonzero;fill:rgb(0%,0%,0%);fill-opacity:1;" d="M 12.441406 0.46875 C 11.097656 1.382812 11.195312 -2.550781 11.195312 49.261719 C 11.195312 93.519531 11.214844 96.324219 11.527344 96.90625 C 11.722656 97.238281 12.148438 97.726562 12.5 97.980469 L 13.144531 98.429688 L 33.179688 98.484375 L 53.195312 98.523438 L 52.125 97.375 C 47.664062 92.546875 45.25 85.324219 45.953125 78.859375 C 47.21875 67.15625 56.019531 58.375 67.644531 57.226562 C 69.707031 57.011719 70.429688 57.03125 72.570312 57.285156 C 74.597656 57.539062 76.933594 58.101562 78.605469 58.746094 C 78.820312 58.824219 78.859375 55.785156 78.859375 41.394531 L 78.859375 23.972656 L 67.332031 23.910156 C 56.527344 23.851562 55.746094 23.832031 55.203125 23.503906 C 54.890625 23.304688 54.441406 22.898438 54.230469 22.625 C 53.859375 22.121094 53.839844 21.746094 53.78125 11.042969 L 53.742188 0 L 13.144531 0 Z M 64.472656 35.398438 C 66.222656 36.46875 66.203125 38.941406 64.410156 39.992188 C 63.960938 40.265625 61.863281 40.304688 44.589844 40.304688 C 23.289062 40.304688 24.535156 40.382812 23.753906 39.082031 C 23.269531 38.28125 23.269531 37.074219 23.753906 36.277344 C 24.144531 35.613281 24.671875 35.265625 25.605469 35.03125 C 25.9375 34.953125 34.640625 34.910156 44.980469 34.910156 L 63.769531 34.953125 Z M 64.238281 46.886719 C 66.203125 47.882812 66.300781 50.453125 64.410156 51.597656 C 63.789062 51.988281 63.378906 51.988281 44.628906 51.988281 C 23.910156 51.988281 25 52.046875 23.972656 50.9375 C 23.269531 50.195312 23.191406 48.796875 23.792969 47.898438 C 24.765625 46.441406 23.382812 46.535156 44.589844 46.535156 C 62.289062 46.535156 63.613281 46.558594 64.238281 46.886719 Z M 64.238281 46.886719 "/>
<path style=" stroke:none;fill-rule:nonzero;fill:rgb(0%,0%,0%);fill-opacity:1;" d="M 59.191406 9.929688 L 59.191406 18.496094 L 68.070312 18.496094 C 73.171875 18.496094 76.910156 18.417969 76.871094 18.320312 C 76.796875 18.109375 59.449219 1.363281 59.289062 1.363281 C 59.230469 1.363281 59.191406 5.21875 59.191406 9.929688 Z M 59.191406 9.929688 "/>
<path style=" stroke:none;fill-rule:nonzero;fill:rgb(0%,0%,0%);fill-opacity:1;" d="M 66.144531 62.890625 C 59.679688 64.253906 54.480469 68.734375 52.339844 74.828125 C 48.695312 85.089844 54.363281 96.070312 64.859375 99.128906 C 66.632812 99.632812 71.128906 99.847656 73.054688 99.515625 C 78.878906 98.503906 83.960938 94.726562 86.546875 89.46875 C 90.191406 82.089844 88.632812 73.289062 82.714844 67.644531 C 81.214844 66.203125 80.085938 65.421875 78.117188 64.472656 C 76.210938 63.535156 75.101562 63.164062 72.941406 62.796875 C 70.679688 62.402344 68.265625 62.445312 66.144531 62.890625 Z M 70.972656 66.707031 C 71.871094 67.136719 78.414062 73.796875 78.585938 74.457031 C 78.957031 75.976562 78.117188 77.496094 76.679688 77.925781 C 75.6875 78.21875 74.535156 77.769531 73.40625 76.621094 C 72.941406 76.132812 72.472656 75.742188 72.394531 75.742188 C 72.316406 75.742188 72.238281 77.128906 72.238281 78.800781 C 72.238281 82.285156 72.0625 82.949219 70.914062 83.609375 C 69.628906 84.351562 68.265625 84 67.292969 82.675781 C 66.925781 82.1875 66.886719 81.820312 66.824219 78.9375 C 66.785156 77.183594 66.691406 75.742188 66.59375 75.742188 C 66.496094 75.742188 66.164062 76.09375 65.832031 76.503906 C 65.035156 77.515625 63.691406 78.15625 62.796875 78.003906 C 61.355469 77.730469 60.382812 76.269531 60.65625 74.808594 C 60.75 74.207031 61.375 73.484375 64.316406 70.503906 C 66.261719 68.539062 68.132812 66.824219 68.441406 66.667969 C 69.222656 66.320312 70.191406 66.339844 70.972656 66.707031 Z M 76.679688 87.40625 C 78.605469 88.398438 78.605469 91.125 76.679688 92.117188 C 76 92.46875 75.453125 92.488281 69.085938 92.488281 C 62.796875 92.488281 62.152344 92.449219 61.53125 92.136719 C 60.867188 91.789062 59.972656 90.425781 59.972656 89.761719 C 59.972656 89.101562 60.867188 87.738281 61.53125 87.386719 C 62.152344 87.074219 62.796875 87.035156 69.085938 87.035156 C 75.453125 87.035156 76 87.054688 76.679688 87.40625 Z M 76.679688 87.40625 "/>
</g>
</svg>
