<?xml version="1.0" encoding="UTF-8"?>
<svg xmlns="http://www.w3.org/2000/svg" xmlns:xlink="http://www.w3.org/1999/xlink" width="100pt" height="100pt" viewBox="0 0 100 100" version="1.1">
<g id="surface1">
<path style=" stroke:none;fill-rule:nonzero;fill:rgb(0%,0%,0%);fill-opacity:1;" d="M 7.695312 0.449219 C 7.285156 0.683594 6.664062 1.265625 6.328125 1.714844 C 5.765625 2.53125 5.75 2.667969 5.6875 4.871094 C 5.609375 7.128906 5.628906 7.207031 6.117188 7.695312 C 6.640625 8.21875 7.128906 8.296875 7.871094 7.964844 C 8.550781 7.652344 8.628906 7.363281 8.765625 5.261719 C 8.863281 3.542969 8.898438 3.410156 9.347656 3.175781 C 9.972656 2.863281 51.699219 2.824219 53.855469 3.113281 C 58.203125 3.761719 61.164062 7.1875 61.164062 11.628906 C 61.164062 13.5 61.457031 14.589844 62.175781 15.464844 C 63.054688 16.515625 64.011719 16.945312 65.589844 16.945312 C 70.320312 16.945312 73.613281 19.109375 74.800781 22.96875 C 75.171875 24.152344 75.1875 24.816406 75.1875 39.582031 L 75.1875 54.972656 L 68.082031 64.789062 C 60.246094 75.597656 60.191406 75.675781 60.191406 76.316406 C 60.191406 76.925781 60.695312 77.859375 61.144531 78.113281 C 61.378906 78.230469 63.132812 78.308594 65.433594 78.308594 L 69.347656 78.308594 L 69.347656 96.8125 L 39.597656 96.8125 C 15.988281 96.8125 9.738281 96.753906 9.347656 96.554688 L 8.863281 96.304688 L 8.664062 12.625 L 8.199219 12.253906 C 7.574219 11.746094 6.605469 11.765625 6.078125 12.332031 L 5.648438 12.78125 L 5.6875 54.972656 L 5.75 97.160156 L 6.328125 98.019531 C 6.664062 98.46875 7.285156 99.050781 7.695312 99.285156 L 8.472656 99.734375 L 46.03125 99.734375 C 71.433594 99.734375 83.722656 99.675781 83.976562 99.539062 C 84.851562 99.050781 84.929688 98.546875 84.929688 92.472656 C 84.929688 86.957031 84.910156 86.722656 84.519531 86.214844 C 83.996094 85.535156 82.84375 85.515625 82.242188 86.160156 C 81.832031 86.605469 81.8125 86.742188 81.8125 91.707031 L 81.8125 96.8125 L 72.464844 96.8125 L 72.464844 86.664062 C 72.464844 80.136719 72.386719 76.394531 72.269531 76.164062 C 71.859375 75.421875 71.296875 75.285156 67.863281 75.1875 L 64.535156 75.09375 L 70.847656 66.367188 L 77.175781 57.660156 L 81.363281 63.445312 C 83.683594 66.636719 86.527344 70.554688 87.695312 72.167969 L 89.820312 75.09375 L 86.394531 75.1875 L 82.941406 75.285156 L 82.375 75.929688 C 81.832031 76.550781 81.8125 76.613281 81.8125 78.757812 C 81.8125 80.371094 81.890625 81.050781 82.105469 81.363281 C 82.707031 82.21875 84.269531 82.085938 84.714844 81.113281 C 84.832031 80.839844 84.929688 80.097656 84.929688 79.476562 L 84.929688 78.308594 L 92.957031 78.308594 L 93.519531 77.746094 C 94.359375 76.902344 94.296875 75.949219 93.347656 74.582031 C 91.105469 71.390625 79.164062 54.949219 78.773438 54.542969 L 78.324219 54.054688 L 78.210938 20.355469 L 77.589844 18.074219 C 76.28125 13.230469 73.847656 9.269531 70.089844 5.921875 C 66.929688 3.097656 62.800781 1.109375 58.457031 0.292969 C 57.054688 0.0390625 53.644531 0 32.644531 0 L 8.472656 0 Z M 66.167969 6.855469 C 67.902344 8.0625 70.632812 10.847656 71.761719 12.605469 C 72.734375 14.121094 73.492188 15.582031 73.378906 15.699219 C 73.339844 15.738281 72.792969 15.523438 72.152344 15.195312 C 70.59375 14.398438 69.230469 14.0625 66.851562 13.910156 C 64.378906 13.730469 64.28125 13.652344 64.28125 11.394531 C 64.28125 9.445312 63.875 7.753906 63.074219 6.175781 C 62.722656 5.515625 62.410156 4.890625 62.371094 4.8125 C 62.238281 4.519531 64.730469 5.863281 66.167969 6.855469 Z M 66.167969 6.855469 "/>
<path style=" stroke:none;fill-rule:nonzero;fill:rgb(0%,0%,0%);fill-opacity:1;" d="M 28.089844 27.46875 C 27.332031 27.644531 26.609375 28.265625 26.296875 29.023438 C 26.160156 29.375 26.082031 30.40625 26.144531 31.828125 L 26.199219 34.089844 L 26.941406 34.8125 L 27.660156 35.546875 L 47.199219 35.609375 C 66.402344 35.648438 66.734375 35.648438 67.359375 35.257812 C 68.488281 34.558594 68.761719 33.878906 68.761719 31.554688 C 68.761719 29.277344 68.503906 28.480469 67.535156 27.777344 C 66.992188 27.367188 66.871094 27.367188 47.859375 27.332031 C 37.339844 27.332031 28.441406 27.367188 28.089844 27.46875 Z M 65.644531 31.460938 L 65.644531 32.527344 L 29.21875 32.527344 L 29.21875 30.386719 L 65.644531 30.386719 Z M 65.644531 31.460938 "/>
<path style=" stroke:none;fill-rule:nonzero;fill:rgb(0%,0%,0%);fill-opacity:1;" d="M 16.421875 39.152344 C 15.410156 39.753906 15.195312 40.417969 15.195312 42.796875 C 15.195312 45.230469 15.464844 46.007812 16.578125 46.59375 C 17.199219 46.925781 18.386719 46.945312 41.9375 46.945312 C 69.015625 46.945312 67.398438 47.019531 68.273438 45.8125 C 68.605469 45.386719 68.683594 44.917969 68.722656 43.128906 C 68.839844 39.464844 68.234375 38.761719 65.023438 38.761719 C 63.230469 38.761719 63.132812 38.785156 62.742188 39.269531 C 62.214844 39.933594 62.214844 40.519531 62.742188 41.179688 C 63.097656 41.628906 63.269531 41.6875 64.398438 41.6875 L 65.644531 41.6875 L 65.644531 43.828125 L 18.308594 43.828125 L 18.308594 41.6875 L 38.082031 41.6875 C 57.597656 41.6875 57.855469 41.6875 58.242188 41.296875 C 58.476562 41.0625 58.632812 40.652344 58.632812 40.222656 C 58.632812 39.796875 58.476562 39.386719 58.242188 39.152344 C 57.855469 38.761719 57.597656 38.761719 37.460938 38.761719 C 17.550781 38.761719 17.023438 38.785156 16.421875 39.152344 Z M 16.421875 39.152344 "/>
<path style=" stroke:none;fill-rule:nonzero;fill:rgb(0%,0%,0%);fill-opacity:1;" d="M 16.402344 50.453125 C 15.464844 51.035156 15.195312 51.855469 15.195312 54.152344 C 15.195312 56.453125 15.464844 57.269531 16.402344 57.855469 C 17.042969 58.242188 17.316406 58.242188 41.882812 58.242188 C 65.566406 58.242188 66.757812 58.222656 67.378906 57.894531 C 68.46875 57.308594 68.761719 56.507812 68.761719 54.191406 C 68.761719 51.855469 68.488281 51.035156 67.554688 50.453125 C 66.914062 50.0625 66.636719 50.0625 41.980469 50.0625 C 17.316406 50.0625 17.042969 50.0625 16.402344 50.453125 Z M 65.644531 54.152344 L 65.644531 55.128906 L 18.308594 55.128906 L 18.308594 53.175781 L 65.644531 53.175781 Z M 65.644531 54.152344 "/>
<path style=" stroke:none;fill-rule:nonzero;fill:rgb(0%,0%,0%);fill-opacity:1;" d="M 16.402344 61.746094 C 15.464844 62.332031 15.195312 63.152344 15.195312 65.449219 C 15.195312 67.746094 15.464844 68.566406 16.402344 69.152344 C 17.042969 69.542969 17.335938 69.542969 36.523438 69.542969 C 55.246094 69.542969 56.023438 69.519531 56.609375 69.171875 C 57.5625 68.582031 57.855469 67.726562 57.855469 65.449219 C 57.855469 63.152344 57.582031 62.371094 56.585938 61.746094 C 55.964844 61.359375 55.671875 61.359375 36.503906 61.359375 C 17.335938 61.359375 17.042969 61.359375 16.402344 61.746094 Z M 54.738281 65.449219 L 54.738281 66.425781 L 18.308594 66.425781 L 18.308594 64.476562 L 54.738281 64.476562 Z M 54.738281 65.449219 "/>
</g>
</svg>
