<svg height="512pt" viewBox="-55 0 512 512" width="512pt" xmlns="http://www.w3.org/2000/svg"><path d="m398.804688 99.363281-97.167969-97.167969c-1.339844-1.339843-3.261719-2.195312-5.304688-2.195312h-273.332031c-12.683594 0-23 10.316406-23 23v466c0 12.683594 10.316406 23 23 23h160c4.140625 0 7.5-3.355469 7.5-7.5s-3.359375-7.5-7.5-7.5h-160c-4.410156 0-8-3.589844-8-8v-466c0-4.410156 3.589844-8 8-8h265.832031v74.167969c0 12.679687 10.316407 23 23 23h74.167969v126.332031c0 4.140625 3.355469 7.5 7.5 7.5 4.140625 0 7.5-3.359375 7.5-7.5v-133.832031c0-1.878907-.753906-3.859375-2.195312-5.304688zm-86.972657-2.199219c-4.410156 0-8-3.585937-8-7.996093v-63.558594l71.558594 71.554687zm0 0"/><path d="m226.875 93.054688c4.140625 0 7.5-3.355469 7.5-7.5 0-4.140626-3.359375-7.5-7.5-7.5h-57.027344c-4.144531 0-7.5 3.359374-7.5 7.5 0 4.144531 3.355469 7.5 7.5 7.5zm0 0"/><path d="m238.503906 311.558594c16.222656 0 29.054688-14.292969 26.878906-30.703125l57.253907-75.632813c13.136719-1.875 23.273437-13.195312 23.273437-26.847656 0-14.953125-12.164062-27.121094-27.121094-27.121094-16.253906 0-29.050781 14.324219-26.878906 30.703125l-55.890625 73.835938-50.707031-47.222657c-.582031-14.445312-12.507812-26.019531-27.09375-26.019531s-26.511719 11.574219-27.09375 26.019531l-52.367188 48.765626c-15.378906-.464844-27.945312 11.910156-27.945312 27.101562 0 14.953125 12.164062 27.121094 27.121094 27.121094 14.585937 0 26.515625-11.574219 27.09375-26.023438l52.363281-48.761718c.945313.027343.707031.027343 1.652344 0l52.367187 48.765624c.578125 14.445313 12.507813 26.019532 27.09375 26.019532zm0-15c-6.683594 0-12.121094-5.4375-12.121094-12.121094 0-6.6875 5.5-12.121094 12.121094-12.121094.011719 0 .046875.003906.054688.003906 6.613281.03125 12.066406 5.488282 12.066406 12.117188 0 6.683594-5.4375 12.121094-12.121094 12.121094zm80.285156-130.300782c6.683594 0 12.121094 5.4375 12.121094 12.117188 0 7.832031-7.367187 13.660156-15.003906 11.761719-5.335938-1.308594-9.238281-6.167969-9.238281-11.761719 0-6.679688 5.4375-12.117188 12.121093-12.117188zm-12.757812 36.046876-47.972656 63.371093c-1.972656-2.058593-4.265625-3.808593-6.796875-5.164062l47.96875-63.371094c1.976562 2.054687 4.265625 3.804687 6.800781 5.164063zm-147.8125-4.753907c6.683594 0 12.121094 5.441407 12.121094 12.121094 0 6.78125-5.597656 12.121094-12.121094 12.121094-6.59375 0-12.121094-5.414063-12.121094-12.121094 0-6.679687 5.4375-12.121094 12.121094-12.121094zm-80.285156 99.007813c-6.683594 0-12.121094-5.4375-12.121094-12.121094s5.4375-12.121094 12.121094-12.121094c6.578125 0 12.121094 5.394532 12.121094 12.121094 0 6.683594-5.4375 12.121094-12.121094 12.121094zm22.503906-27.246094c-1.601562-2.375-3.574219-4.476562-5.828125-6.238281l41.105469-38.28125c1.601562 2.378906 3.574218 4.484375 5.824218 6.246093zm80.285156-44.515625 41.101563 38.277344c-2.25 1.761719-4.222657 3.867187-5.824219 6.242187l-41.105469-38.277344c2.253907-1.761718 4.226563-3.867187 5.828125-6.242187zm0 0"/><path d="m179.617188 344.664062h-111.496094c-4.140625 0-7.5 3.359376-7.5 7.5 0 4.144532 3.359375 7.5 7.5 7.5h111.496094c4.144531 0 7.5-3.355468 7.5-7.5 0-4.140624-3.355469-7.5-7.5-7.5zm0 0"/><path d="m179.617188 379.652344h-111.496094c-4.140625 0-7.5 3.355468-7.5 7.5 0 4.144531 3.359375 7.5 7.5 7.5h111.496094c4.144531 0 7.5-3.355469 7.5-7.5 0-4.144532-3.355469-7.5-7.5-7.5zm0 0"/><path d="m179.617188 414.640625h-111.496094c-4.140625 0-7.5 3.355469-7.5 7.5 0 4.140625 3.359375 7.5 7.5 7.5h111.496094c4.144531 0 7.5-3.359375 7.5-7.5 0-4.144531-3.355469-7.5-7.5-7.5zm0 0"/><path d="m328.601562 344.664062h-111.496093c-4.144531 0-7.5 3.359376-7.5 7.5 0 4.144532 3.355469 7.5 7.5 7.5h111.492187c4.144532 0 7.5-3.355468 7.5-7.5 0-4.140624-3.355468-7.5-7.496094-7.5zm0 0"/><path d="m328.601562 379.652344h-111.496093c-4.144531 0-7.5 3.355468-7.5 7.5 0 4.144531 3.355469 7.5 7.5 7.5h111.492187c4.144532 0 7.5-3.355469 7.5-7.5 0-4.144532-3.355468-7.5-7.496094-7.5zm0 0"/><path d="m217.105469 429.640625h111.492187c4.144532 0 7.5-3.359375 7.5-7.5 0-4.144531-3.355468-7.5-7.5-7.5h-111.492187c-4.144531 0-7.5 3.355469-7.5 7.5 0 4.140625 3.355469 7.5 7.5 7.5zm0 0"/><path d="m393.5 266c-4.144531 0-7.5 3.355469-7.5 7.5v215.5c0 4.410156-3.589844 8-8 8h-160c-4.144531 0-7.5 3.355469-7.5 7.5s3.355469 7.5 7.5 7.5h160c12.683594 0 23-10.316406 23-23v-215.5c0-4.140625-3.359375-7.5-7.5-7.5zm0 0"/></svg>