<svg height="512pt" viewBox="-70 0 512 512.001" width="512pt" xmlns="http://www.w3.org/2000/svg"><path d="m149.261719 81.921875h72.839843c4.144532 0 7.5-3.359375 7.5-7.5 0-4.144531-3.355468-7.5-7.5-7.5h-72.839843c-4.140625 0-7.5 3.355469-7.5 7.5 0 4.140625 3.359375 7.5 7.5 7.5zm0 0"/><path d="m229.601562 135.472656c0-4.140625-3.355468-7.5-7.5-7.5h-72.839843c-4.140625 0-7.5 3.359375-7.5 7.5 0 4.144532 3.359375 7.5 7.5 7.5h72.839843c4.144532 0 7.5-3.355468 7.5-7.5zm0 0"/><path d="m222.101562 173.363281h-62.402343c-4.140625 0-7.5 3.359375-7.5 7.5 0 4.144531 3.359375 7.503907 7.5 7.503907h62.402343c4.144532 0 7.5-3.359376 7.5-7.503907 0-4.140625-3.355468-7.5-7.5-7.5zm0 0"/><path d="m152.199219 207.808594c0 4.140625 3.359375 7.5 7.5 7.5h118.257812c4.144531 0 7.5-3.359375 7.5-7.5 0-4.144532-3.355469-7.5-7.5-7.5h-118.257812c-4.140625 0-7.5 3.355468-7.5 7.5zm0 0"/><path d="m159.699219 260.875h62.402343c4.144532 0 7.5-3.359375 7.5-7.5 0-4.144531-3.355468-7.503906-7.5-7.503906h-62.402343c-4.140625 0-7.5 3.359375-7.5 7.503906 0 4.140625 3.359375 7.5 7.5 7.5zm0 0"/><path d="m277.957031 272.816406h-118.257812c-4.140625 0-7.5 3.355469-7.5 7.5 0 4.140625 3.359375 7.5 7.5 7.5h118.257812c4.144531 0 7.5-3.359375 7.5-7.5 0-4.144531-3.359375-7.5-7.5-7.5zm0 0"/><path d="m159.699219 333.382812h62.402343c4.144532 0 7.5-3.359374 7.5-7.5 0-4.144531-3.355468-7.5-7.5-7.5h-62.402343c-4.140625 0-7.5 3.355469-7.5 7.5 0 4.140626 3.359375 7.5 7.5 7.5zm0 0"/><path d="m277.957031 345.324219h-118.257812c-4.140625 0-7.5 3.359375-7.5 7.5s3.359375 7.5 7.5 7.5h118.257812c4.144531 0 7.5-3.359375 7.5-7.5s-3.359375-7.5-7.5-7.5zm0 0"/><path d="m159.699219 405.890625h62.402343c4.144532 0 7.5-3.359375 7.5-7.5 0-4.144531-3.355468-7.5-7.5-7.5h-62.402343c-4.140625 0-7.5 3.355469-7.5 7.5 0 4.140625 3.359375 7.5 7.5 7.5zm0 0"/><path d="m277.957031 417.832031h-118.257812c-4.140625 0-7.5 3.359375-7.5 7.5 0 4.144531 3.359375 7.5 7.5 7.5h118.257812c4.144531 0 7.5-3.355469 7.5-7.5 0-4.140625-3.359375-7.5-7.5-7.5zm0 0"/><path d="m120.429688 235.238281h-25.070313c-10.515625 0-19.070313 8.554688-19.070313 19.070313v25.070312c0 10.515625 8.554688 19.070313 19.070313 19.070313h25.070313c10.515624 0 19.070312-8.554688 19.070312-19.070313v-25.070312c0-10.515625-8.554688-19.070313-19.070312-19.070313zm4.070312 44.140625c0 2.207032-1.863281 4.070313-4.070312 4.070313h-25.070313c-2.203125 0-4.066406-1.863281-4.066406-4.070313v-25.070312c0-2.207032 1.863281-4.070313 4.066406-4.070313h25.070313c2.207031 0 4.070312 1.863281 4.070312 4.070313zm0 0"/><path d="m120.269531 307.746094h-25.070312c-10.515625 0-19.070313 8.554687-19.070313 19.070312v25.070313c0 10.515625 8.554688 19.070312 19.070313 19.070312h25.070312c10.515625 0 19.070313-8.554687 19.070313-19.070312v-25.070313c0-10.515625-8.554688-19.070312-19.070313-19.070312zm4.070313 44.140625c0 2.207031-1.863282 4.070312-4.070313 4.070312h-25.070312c-2.207031 0-4.070313-1.863281-4.070313-4.070312v-25.070313c0-2.203125 1.863282-4.070312 4.070313-4.070312h25.070312c2.207031 0 4.070313 1.867187 4.070313 4.070312zm0 0"/><path d="m120.269531 380.253906h-25.070312c-10.515625 0-19.070313 8.554688-19.070313 19.074219v25.066406c0 10.515625 8.554688 19.074219 19.070313 19.074219h25.070312c10.515625 0 19.070313-8.558594 19.070313-19.074219v-25.066406c0-10.519531-8.554688-19.074219-19.070313-19.074219zm4.070313 44.144532c0 2.203124-1.863282 4.070312-4.070313 4.070312h-25.070312c-2.207031 0-4.070313-1.867188-4.070313-4.070312v-25.070313c0-2.207031 1.863282-4.070313 4.070313-4.070313h25.070312c2.207031 0 4.070313 1.863282 4.070313 4.070313zm0 0"/><path d="m133.46875 167.585938-.175781.175781c-3.398438-3.113281-7.90625-5.03125-12.863281-5.03125h-25.070313c-10.515625 0-19.070313 8.554687-19.070313 19.070312v25.070313c0 10.515625 8.554688 19.070312 19.070313 19.070312h25.070313c10.515624 0 19.070312-8.554687 19.070312-19.070312v-24.199219l4.460938-4.363281c2.960937-2.894532 3.011718-7.644532.117187-10.605469s-7.644531-3.015625-10.609375-.117187zm-8.96875 39.285156c0 2.207031-1.863281 4.070312-4.070312 4.070312h-25.070313c-2.203125 0-4.066406-1.863281-4.066406-4.070312v-25.070313c0-2.207031 1.863281-4.070312 4.066406-4.070312h25.070313c.75 0 1.449218.226562 2.058593.597656l-11.960937 11.699219-4.722656-4.976563c-2.851563-3.003906-7.601563-3.125-10.605469-.277343-3.003907 2.851562-3.125 7.601562-.273438 10.605468l9.964844 10.496094c2.878906 3.03125 7.6875 3.128906 10.683594.199219l8.925781-8.730469zm0 0"/><path d="m363.863281 291.359375c-4.144531 0-7.5 3.359375-7.5 7.5v177.296875c0 11.492188-9.351562 20.84375-20.84375 20.84375h-132.335937c-4.144532 0-7.5 3.355469-7.5 7.5 0 4.140625 3.355468 7.5 7.5 7.5h132.335937c19.765625 0 35.84375-16.078125 35.84375-35.84375v-177.296875c0-4.140625-3.359375-7.5-7.5-7.5zm0 0"/><path d="m371.363281 84.636719c0-19.765625-16.078125-35.84375-35.84375-35.84375h-77.425781c-2.65625-4.683594-7.675781-7.855469-13.433594-7.855469h-25.496094v-7.457031c0-18.460938-15.019531-33.480469-33.480468-33.480469-18.464844 0-33.484375 15.019531-33.484375 33.480469v7.460937h-25.496094c-5.753906 0-10.777344 3.167969-13.433594 7.851563h-77.425781c-19.765625 0-35.84375 16.078125-35.84375 35.84375v391.519531c0 19.765625 16.078125 35.84375 35.84375 35.84375h132.335938c4.144531 0 7.5-3.355469 7.5-7.5 0-4.140625-3.355469-7.5-7.5-7.5h-132.335938c-11.492188 0-20.84375-9.347656-20.84375-20.84375v-391.519531c0-11.496094 9.351562-20.84375 20.84375-20.84375h75.417969v16.492187h-69.746094c-5.527344 0-10.023437 4.496094-10.023437 10.019532v380.183593c0 5.523438 4.496093 10.019531 10.023437 10.019531h288.332031c5.527344 0 10.023438-4.496093 10.023438-10.019531v-380.183593c0-5.523438-4.496094-10.019532-10.023438-10.019532h-69.746094v-16.492187h75.417969c11.492188 0 20.84375 9.347656 20.84375 20.84375v179.21875c0 4.144531 3.355469 7.503906 7.5 7.503906 4.140625 0 7.5-3.359375 7.5-7.503906zm-204.160156-51.15625c0-10.1875 8.289063-18.480469 18.480469-18.480469 10.1875 0 18.476562 8.292969 18.476562 18.480469v7.460937h-36.957031zm-40.5 22.460937h117.957031c.222656 0 .429688.207032.4375.425782 0 .054687 0 .105468.003906.160156v35.933594c0 .226562-.214843.441406-.4375.441406h-117.960937c-.226563 0-.441406-.214844-.441406-.441406 0-13.300782 0-14.828126 0-35.898438 0-.007812.003906-.011719.003906-.019531 0-.019531-.003906-.039063-.003906-.054688v-.109375c0-.226562.214843-.4375.441406-.4375zm198.167969 409.566406h-278.378906v-370.222656h65.027343c1.378907 7.316406 7.824219 12.617188 15.183594 12.617188h117.957031c7.285156 0 13.820313-5.238282 15.183594-12.617188h65.027344zm0 0"/></svg>