<svg height="511pt" viewBox="1 -1 511.999 511" width="511pt" xmlns="http://www.w3.org/2000/svg"><path d="m284.898438 143.601562h-141.851563c-4.140625 0-7.5 3.355469-7.5 7.5 0 4.140626 3.359375 7.5 7.5 7.5h141.851563c4.144531 0 7.5-3.359374 7.5-7.5 0-4.144531-3.355469-7.5-7.5-7.5zm0 0"/><path d="m284.898438 180.4375h-141.851563c-4.140625 0-7.5 3.359375-7.5 7.5 0 4.144531 3.359375 7.5 7.5 7.5h141.851563c4.144531 0 7.5-3.355469 7.5-7.5 0-4.140625-3.355469-7.5-7.5-7.5zm0 0"/><path d="m180.535156 121.761719h74.976563c4.144531 0 7.5-3.355469 7.5-7.5s-3.355469-7.5-7.5-7.5h-74.976563c-4.140625 0-7.5 3.355469-7.5 7.5s3.359375 7.5 7.5 7.5zm0 0"/><path d="m284.898438 217.277344h-141.851563c-4.140625 0-7.5 3.359375-7.5 7.5 0 4.144531 3.359375 7.5 7.5 7.5h141.851563c4.144531 0 7.5-3.355469 7.5-7.5 0-4.140625-3.355469-7.5-7.5-7.5zm0 0"/><path d="m284.898438 254.117188h-141.851563c-4.140625 0-7.5 3.355468-7.5 7.5 0 4.140624 3.359375 7.5 7.5 7.5h141.851563c4.144531 0 7.5-3.359376 7.5-7.5 0-4.144532-3.355469-7.5-7.5-7.5zm0 0"/><path d="m447.65625 208.699219v-178.164063c0-16.5625-13.476562-30.035156-30.035156-30.035156h-323.242188c-16.5625 0-30.035156 13.476562-30.035156 30.039062v178.160157l-58.746094 88.667969c-3.460937 3.65625-5.597656 8.578124-5.597656 13.996093v177.5c0 11.253907 9.15625 20.410157 20.410156 20.410157h471.179688c11.253906 0 20.410156-9.15625 20.410156-20.410157v-71.25c0-4.144531-3.359375-7.5-7.5-7.5-4.144531 0-7.5 3.355469-7.5 7.5v71.25c0 2.980469-2.429688 5.40625-5.410156 5.40625h-69.679688v-5.945312c0-11.253907-9.152344-20.410157-20.40625-20.410157h-128.003906c-4.144531 0-7.5 3.359376-7.5 7.503907 0 4.140625 3.355469 7.5 7.5 7.5h128.003906c2.980469 0 5.40625 2.425781 5.40625 5.40625v5.945312h-301.820312v-5.945312c0-2.980469 2.425781-5.40625 5.40625-5.40625h128.003906c4.140625 0 7.5-3.359375 7.5-7.5 0-4.144531-3.359375-7.503907-7.5-7.503907h-128.003906c-11.253906 0-20.410156 9.15625-20.410156 20.410157v5.945312h-69.675782c-2.984375 0-5.410156-2.425781-5.410156-5.40625v-177.5c0-3.113281 2.613281-5.410156 5.410156-5.410156h471.179688c2.84375 0 5.410156 2.335937 5.410156 5.410156v71.25c0 4.140625 3.355469 7.5 7.5 7.5 4.140625 0 7.5-3.359375 7.5-7.5v-71.25c0-5.417969-2.136719-10.339843-5.597656-13.996093zm-35.820312-146.410157c-13.570313 0-24.40625-11.597656-23.316407-25.265624.476563-5.792969-4.136719-10.78125-9.972656-10.78125h-15.253906c-.558594-3.894532-1.882813-7.5625-3.726563-10.742188h58.054688c8.289062 0 15.035156 6.746094 15.035156 15.035156v260.417969h-10.742188v-218.660156c0-5.546875-4.5-10.003907-10.046874-10.003907-.003907 0-.007813 0-.015626 0m-347.507812 173.570313v55.09375h-36.503906zm263.441406-173.570313c-12.898437 0-23.394531-10.496093-23.394531-23.394531 0-.613281.027344-1.246093.078125-1.871093.476562-5.792969-4.136719-10.777344-9.976562-10.777344h-161.039063c-5.851563 0-10.449219 5-9.976563 10.773437.054688.628907.078126 1.261719.078126 1.875 0 12.898438-10.492188 23.394531-23.402344 23.394531 0 0-.015625 0-.019532 0-2.691406 0-5.214843 1.042969-7.113281 2.933594-1.890625 1.890625-2.933593 4.398438-2.933593 7.070313v218.660156h-10.742188c0-7.390625 0-248.140625 0-260.414063 0-8.292968 6.746094-15.039062 15.035156-15.039062h239.1875c8.292969 0 15.039063 6.746094 15.039063 15.039062v260.414063h-10.746094v-218.660156c0-2.671875-1.039063-5.179688-2.933594-7.070313s-4.421875-2.933594-7.109375-2.933594c0 0-.015625 0-.019531 0m-222.707031 228.664063v-213.976563c18.089844-2.328124 32.277344-17.292968 33.398437-35.730468h150.972657c1.121093 18.4375 15.308593 33.402344 33.398437 35.730468v213.976563zm258.515625 0v-249.707031h9.90625c1.121093 18.4375 15.308593 33.402344 33.398437 35.730468v213.976563zm84.050781 0v-55.09375l36.503906 55.09375zm0 0"/><path d="m349.511719 339.367188c-9.132813 0-16.566407 7.433593-16.566407 16.566406v65.625c0 9.132812 7.433594 16.566406 16.566407 16.566406h97.570312c9.132813 0 16.566407-7.433594 16.566407-16.566406v-65.625c0-9.132813-7.433594-16.566406-16.566407-16.566406zm99.132812 16.566406v65.625c0 .847656-.714843 1.566406-1.5625 1.566406h-97.570312c-.847657 0-1.566407-.71875-1.566407-1.566406v-65.625c0-.847656.71875-1.566406 1.566407-1.566406h97.570312c.847657 0 1.5625.71875 1.5625 1.566406zm0 0"/><path d="m427.4375 367.375h-58.28125c-4.144531 0-7.5 3.359375-7.5 7.5 0 4.144531 3.355469 7.5 7.5 7.5h58.28125c4.144531 0 7.5-3.355469 7.5-7.5 0-4.140625-3.355469-7.5-7.5-7.5zm0 0"/><path d="m427.4375 395.117188h-58.28125c-4.144531 0-7.5 3.355468-7.5 7.5 0 4.144531 3.355469 7.5 7.5 7.5h58.28125c4.144531 0 7.5-3.355469 7.5-7.5 0-4.144532-3.355469-7.5-7.5-7.5zm0 0"/></svg>