<svg height="512pt" viewBox="-40 0 512 512.001" width="512pt" xmlns="http://www.w3.org/2000/svg"><path d="m185.683594 0c-18.464844 0-33.484375 15.019531-33.484375 33.480469v7.460937h-25.496094c-5.757813 0-10.777344 3.167969-13.433594 7.851563h-77.425781c-19.765625 0-35.84375 16.078125-35.84375 35.84375v391.519531c0 19.765625 16.078125 35.84375 35.84375 35.84375h132.335938c4.144531 0 7.5-3.355469 7.5-7.5 0-4.140625-3.355469-7.5-7.5-7.5h-132.335938c-11.492188 0-20.84375-9.347656-20.84375-20.84375v-391.523438c0-11.492187 9.351562-20.839843 20.84375-20.839843h75.417969v16.488281h-69.746094c-5.527344 0-10.023437 4.496094-10.023437 10.023438v380.179687c0 5.527344 4.496093 10.023437 10.023437 10.023437h288.332031c5.527344 0 10.023438-4.496093 10.023438-10.023437v-24.0625l16.488281 16.488281v13.246094c0 11.492188-9.347656 20.84375-20.839844 20.84375h-132.335937c-4.144532 0-7.5 3.355469-7.5 7.5 0 4.140625 3.355468 7.5 7.5 7.5h132.335937c19.1875 0 34.902344-15.160156 35.800781-34.132812l19.078126 19.082031c7.460937 7.457031 19.601562 7.460937 27.0625-.003907l9.277343-9.273437c7.460938-7.460937 7.457031-19.601563 0-27.0625l-55.375-55.375v-106.375c0-4.140625-3.359375-7.5-7.5-7.5-4.144531 0-7.503906 3.359375-7.503906 7.5v91.375l-1.246094-1.25c-3.613281-3.613281-8.414062-5.601563-13.523437-5.605469l-1.71875-1.71875v-49.417968c2.304687-8.894532 3.496094-18.140626 3.496094-27.578126 0-9.433593-1.191407-18.683593-3.496094-27.574218v-186.785156c0-5.527344-4.496094-10.023438-10.023438-10.023438h-69.746094v-16.488281h75.417969c11.492188 0 20.84375 9.347656 20.84375 20.839843v179.222657c0 4.144531 3.355469 7.503906 7.5 7.503906 4.140625 0 7.5-3.359375 7.5-7.503906v-179.222657c0-19.761718-16.078125-35.839843-35.84375-35.839843h-77.425781c-2.65625-4.683594-7.675781-7.855469-13.429688-7.855469h-25.5v-7.457031c0-18.460938-15.019531-33.480469-33.480468-33.480469zm-18.480469 33.480469c0-10.1875 8.289063-18.480469 18.480469-18.480469s18.480468 8.292969 18.480468 18.480469v7.460937h-36.960937zm.8125 204.746093c17.6875-17.6875 41.296875-27.472656 66.441406-27.472656 52.640625 0 93.910157 42.628906 93.910157 93.910156 0 52.183594-42.242188 93.914063-93.910157 93.914063-83.445312 0-125.472656-101.320313-66.441406-160.351563zm146.980469 139.824219c.007812-.007812.015625-.015625.027344-.027343l11.992187 11.996093-7.207031 7.203125-11.996094-11.992187c.003906 0 .003906-.003907.003906-.003907 2.59375-2.363281 4.84375-4.617187 7.179688-7.175781zm101.132812 93.164063c1.613282 1.613281 1.613282 4.238281 0 5.851562l-9.273437 9.273438c-1.613281 1.613281-4.238281 1.613281-5.851563 0l-31.835937-31.835938c0-.003906 0-.003906-.003907-.003906l-39.78125-39.78125c-1.644531-1.648438-1.53125-4.320312 0-5.851562l9.273438-9.273438c1.40625-1.410156 4.058594-1.792969 5.847656 0zm-91.257812-227.394532c-19.730469-29.226562-52.808594-48.070312-90.414063-48.070312-17.125 0-33.636719 3.917969-48.511719 11.3125-.089843-.003906-.175781-.011719-.261718-.011719h-101.078125c-4.144531 0-7.503907 3.355469-7.503907 7.5 0 4.140625 3.359376 7.5 7.503907 7.5h78.800781c-6.757812 5.828125-13.027344 12.648438-18.449219 20.453125h-60.351562c-4.144531 0-7.503907 3.355469-7.503907 7.5 0 4.140625 3.359376 7.5 7.503907 7.5h51.625c-3.160157 6.601563-5.621094 13.453125-7.378907 20.453125h-44.246093c-4.144531 0-7.503907 3.355469-7.503907 7.5 0 4.140625 3.359376 7.5 7.503907 7.5h41.574219c-.417969 3.890625-.632813 7.800781-.632813 11.710938 0 2.914062.125 5.832031.355469 8.742187h-41.296875c-4.144531 0-7.503907 3.355469-7.503907 7.5 0 4.140625 3.359376 7.5 7.503907 7.5h43.542969c1.546874 6.976563 3.785156 13.832032 6.714843 20.453125h-50.257812c-4.144531 0-7.503907 3.355469-7.503907 7.5 0 4.140625 3.359376 7.5 7.503907 7.5h58.367187c4.996094 7.71875 10.667969 14.402344 17.136719 20.453125h-75.503906c-4.144531 0-7.503907 3.355469-7.503907 7.5 0 4.140625 3.359376 7.5 7.503907 7.5h95.808593c15.949219 9.125 34.046876 14.0625 52.917969 14.25h.050781c.359376.003906.714844.015625 1.074219.015625 22.300781 0 43.5625-6.640625 61.523438-18.96875l17.1875 17.1875c0 5.210938 2.128906 10.042969 5.605469 13.523438l6.097656 6.097656v34.085937h-278.378906v-370.222656h65.027343c1.339844 7.230469 7.75 12.617188 15.183594 12.617188h117.957031c7.421875 0 13.84375-5.382813 15.183594-12.617188h65.027344zm-79.773438-187.453124c0 .054687 0 .105468.003906.160156v35.933594c0 .136718-.085937.265624-.199218.347656-.070313.054687-.152344.09375-.242188.09375h-117.957031c-.089844 0-.175781-.042969-.246094-.097656-.113281-.082032-.195312-.207032-.195312-.34375 0-20.523438 0-15.417969 0-35.933594.003906-.054688.003906-.105469.003906-.160156.007813-.222657.214844-.425782.4375-.425782h117.960937c.21875 0 .425782.203125.433594.425782zm0 0"/><path d="m77.101562 179.097656c0 4.140625 3.359376 7.5 7.503907 7.5h202.15625c4.144531 0 7.5-3.359375 7.5-7.5 0-4.144531-3.355469-7.503906-7.5-7.503906h-202.15625c-4.144531 0-7.503907 3.359375-7.503907 7.503906zm0 0"/><path d="m135.144531 151.144531h101.078125c4.140625 0 7.5-3.359375 7.5-7.5 0-4.144531-3.359375-7.5-7.5-7.5h-101.078125c-4.144531 0-7.503906 3.355469-7.503906 7.5 0 4.140625 3.359375 7.5 7.503906 7.5zm0 0"/><path d="m84.605469 434.769531h202.15625c4.144531 0 7.5-3.359375 7.5-7.5 0-4.144531-3.355469-7.503906-7.5-7.503906h-202.15625c-4.144531 0-7.503907 3.359375-7.503907 7.503906 0 4.140625 3.359376 7.5 7.503907 7.5zm0 0"/><path d="m141.761719 74.421875c0 4.140625 3.359375 7.5 7.5 7.5h72.839843c4.144532 0 7.5-3.359375 7.5-7.5 0-4.144531-3.355468-7.5-7.5-7.5h-72.839843c-4.140625 0-7.5 3.355469-7.5 7.5zm0 0"/><path d="m289.234375 249.886719c-14.609375-14.609375-34.0625-22.65625-54.777344-22.65625-68.804687 0-103.445312 83.546875-54.78125 132.214843 14.613281 14.613282 34.066407 22.65625 54.78125 22.65625 68.800781 0 103.449219-83.546874 54.777344-132.214843zm-54.777344-7.65625c16.707031 0 32.394531 6.484375 44.171875 18.261719 39.230469 39.230468 11.332032 106.609374-44.171875 106.609374-16.707031 0-32.394531-6.488281-44.171875-18.265624-39.234375-39.230469-11.332031-106.605469 44.171875-106.605469zm0 0"/></svg>