<svg height="512pt" viewBox="0 -31 512 511" width="512pt" xmlns="http://www.w3.org/2000/svg"><path d="m497.609375 326.992188h-54.484375v-54.132813c0-7.828125-6.367188-14.191406-14.191406-14.191406h-165.433594v-43.464844h106.613281c11.125 0 20.179688-9.054687 20.179688-20.179687v-69.671876c0-4.140624-3.359375-7.5-7.5-7.5-4.144531 0-7.5 3.359376-7.5 7.5v69.671876c0 2.804687-2.371094 5.175781-5.179688 5.175781h-228.226562c-2.855469 0-5.179688-2.320313-5.179688-5.175781v-174.34375c0-2.855469 2.324219-5.179688 5.179688-5.179688h228.226562c2.808594 0 5.179688 2.375 5.179688 5.179688v69.667968c0 4.144532 3.355469 7.503906 7.5 7.503906s7.5-3.359374 7.5-7.503906v-69.667968c0-11.125-9.050781-20.179688-20.179688-20.179688h-228.226562c-11.128907 0-20.179688 9.050781-20.179688 20.179688v174.339843c0 11.128907 9.050781 20.179688 20.179688 20.179688h106.613281v43.464843h-165.433594c-7.824218 0-14.191406 6.367188-14.191406 14.195313v54.132813h-54.488281c-7.933594 0-14.386719 6.457031-14.386719 14.390624v94.703126c0 7.933593 6.453125 14.386718 14.386719 14.386718h123.976562c7.933594 0 14.390625-6.453125 14.390625-14.386718v-94.703126c0-7.933593-6.457031-14.390624-14.390625-14.390624h-54.488281v-53.324219h164.625v53.324219h-54.488281c-7.933594 0-14.386719 6.457031-14.386719 14.390624v94.703126c0 7.933593 6.453125 14.386718 14.386719 14.386718h44.488281c4.140625 0 7.5-3.359375 7.5-7.5s-3.359375-7.5-7.5-7.5h-43.875v-93.476562h122.75v93.476562h-43.875c-4.144531 0-7.5 3.359375-7.5 7.5s3.355469 7.5 7.5 7.5h44.488281c7.933594 0 14.386719-6.453125 14.386719-14.386718v-94.703126c0-7.933593-6.453125-14.390624-14.386719-14.390624h-54.488281v-53.324219h164.621094v53.324219h-54.484375c-7.9375 0-14.390625 6.457031-14.390625 14.390624v94.703126c0 7.933593 6.453125 14.386718 14.390625 14.386718h123.972656c7.9375 0 14.390625-6.453125 14.390625-14.386718v-94.703126c0-7.933593-6.453125-14.390624-14.390625-14.390624zm-359.859375 108.480468h-122.75v-93.476562h122.75zm359.25 0h-122.75v-93.476562h122.75zm0 0"/><path d="m342.640625 48.488281h-173.28125c-4.144531 0-7.5 3.359375-7.5 7.5 0 4.144531 3.355469 7.5 7.5 7.5h173.28125c4.144531 0 7.5-3.355469 7.5-7.5 0-4.140625-3.355469-7.5-7.5-7.5zm0 0"/><path d="m342.640625 83.0625h-173.28125c-4.144531 0-7.5 3.359375-7.5 7.5 0 4.144531 3.355469 7.5 7.5 7.5h173.28125c4.144531 0 7.5-3.355469 7.5-7.5 0-4.140625-3.355469-7.5-7.5-7.5zm0 0"/><path d="m342.640625 117.636719h-173.28125c-4.144531 0-7.5 3.359375-7.5 7.5 0 4.144531 3.355469 7.503906 7.5 7.503906h173.28125c4.144531 0 7.5-3.359375 7.5-7.503906 0-4.140625-3.355469-7.5-7.5-7.5zm0 0"/><path d="m342.640625 152.210938h-173.28125c-4.144531 0-7.5 3.359374-7.5 7.5 0 4.144531 3.355469 7.503906 7.5 7.503906h173.28125c4.144531 0 7.5-3.359375 7.5-7.503906 0-4.140626-3.355469-7.5-7.5-7.5zm0 0"/><path d="m421.761719 385.296875c-2.851563-3.003906-7.601563-3.125-10.601563-.277344-3.007812 2.855469-3.128906 7.601563-.277344 10.605469l10.03125 10.566406c2.882813 3.039063 7.695313 3.121094 10.683594.195313l28.570313-27.945313c2.960937-2.898437 3.015625-7.648437.117187-10.609375-2.894531-2.957031-7.644531-3.015625-10.605468-.117187l-23.128907 22.625zm0 0"/><path d="m280.546875 378.441406c2.960937-2.898437 3.011719-7.648437.113281-10.609375-2.890625-2.957031-7.644531-3.015625-10.605468-.117187l-23.128907 22.625-4.789062-5.042969c-2.851563-3.003906-7.597657-3.125-10.601563-.277344-3.003906 2.851563-3.128906 7.601563-.277344 10.605469l10.03125 10.566406c2.878907 3.03125 7.6875 3.128906 10.683594.195313zm0 0"/><path d="m62.515625 385.296875c-2.855469-3.003906-7.601563-3.125-10.605469-.277344-3.003906 2.855469-3.128906 7.601563-.273437 10.605469l10.027343 10.566406c2.878907 3.03125 7.691407 3.128906 10.6875.195313l28.570313-27.945313c2.960937-2.898437 3.011719-7.648437.117187-10.609375-2.894531-2.957031-7.644531-3.015625-10.605468-.117187l-23.128906 22.625zm0 0"/></svg>