<svg height="496pt" viewBox="-64 0 496 496" width="496pt" xmlns="http://www.w3.org/2000/svg"><path d="m360 0h-320c-4.425781 0-8 3.585938-8 8v24h-24c-4.425781 0-8 3.585938-8 8v448c0 4.414062 3.574219 8 8 8h320c4.425781 0 8-3.585938 8-8v-24h24c4.425781 0 8-3.585938 8-8v-448c0-4.414062-3.574219-8-8-8zm-344 211.3125 16-16v260.6875c0 4.414062 3.574219 8 8 8h236.6875l-16 16h-244.6875zm80 236.6875h-16v-64h16zm64 0h-16v-96h16zm64 0h-16v-144h16zm96 32h-36.6875l18.34375-18.34375c3.128906-3.128906 3.128906-8.183594 0-11.3125l-32-32-11.3125 11.3125 18.34375 18.34375h-36.6875v-152c0-4.414062-3.574219-8-8-8h-32c-4.425781 0-8 3.585938-8 8v152h-16v-104c0-4.414062-3.574219-8-8-8h-32c-4.425781 0-8 3.585938-8 8v104h-16v-72c0-4.414062-3.574219-8-8-8h-32c-4.425781 0-8 3.585938-8 8v72h-16v-252.6875l18.34375 18.34375 11.3125-11.3125-32-32c-3.128906-3.128906-8.183594-3.128906-11.3125 0l-18.34375 18.34375v-140.6875h304zm32-32h-16v-408c0-4.414062-3.574219-8-8-8h-280v-16h304zm0 0"/><path d="m264 112h32c4.425781 0 8-3.585938 8-8v-32c0-4.414062-3.574219-8-8-8h-32c-4.425781 0-8 3.585938-8 8v32c0 4.414062 3.574219 8 8 8zm8-32h16v16h-16zm0 0"/><path d="m264 176h32c4.425781 0 8-3.585938 8-8v-32c0-4.414062-3.574219-8-8-8h-32c-4.425781 0-8 3.585938-8 8v32c0 4.414062 3.574219 8 8 8zm8-32h16v16h-16zm0 0"/><path d="m264 240h32c4.425781 0 8-3.585938 8-8v-32c0-4.414062-3.574219-8-8-8h-32c-4.425781 0-8 3.585938-8 8v32c0 4.414062 3.574219 8 8 8zm8-32h16v16h-16zm0 0"/><path d="m160 224c44.113281 0 80-35.886719 80-80s-35.886719-80-80-80-80 35.886719-80 80 35.886719 80 80 80zm64-80c0 35.289062-28.710938 64-64 64-32.574219 0-59.488281-24.480469-63.449219-56h63.449219c2.214844 0 4.214844-.894531 5.664062-2.351562l44.832032-44.832032c8.433594 10.847656 13.503906 24.414063 13.503906 39.183594zm-56-63.449219c11.664062 1.464844 22.335938 6.074219 31.183594 12.953125l-31.183594 31.183594zm-16 0v55.449219h-55.449219c3.632813-28.894531 26.554688-51.816406 55.449219-55.449219zm0 0"/></svg>