<?xml version="1.0" encoding="iso-8859-1"?>
<!-- Generator: Adobe Illustrator 19.0.0, SVG Export Plug-In . SVG Version: 6.00 Build 0)  -->
<svg xmlns="http://www.w3.org/2000/svg" xmlns:xlink="http://www.w3.org/1999/xlink" version="1.1" id="Capa_1" x="0px" y="0px" viewBox="0 0 511.875 511.875" style="enable-background:new 0 0 511.875 511.875;" xml:space="preserve" width="512" height="512">
<g>
	<path d="M252.188,180c0-57.897-47.103-105-105-105s-105,47.103-105,105s47.103,105,105,105S252.188,237.897,252.188,180z    M147.188,270c-20.206,0-38.877-6.694-53.914-17.98L150.294,195h85.636C228.768,237.511,191.703,270,147.188,270z M237.188,180   h-82.5V90.315C200.817,94.139,237.188,132.9,237.188,180z M57.188,180c0-47.1,36.37-85.861,82.5-89.685v94.078l-57.644,57.644   C66.65,225.881,57.188,204.025,57.188,180z"/>
	<polygon points="139.688,0 139.688,60 154.688,60 154.688,15 454.688,15 454.688,496.875 154.688,496.875 154.688,300 139.688,300    139.688,511.875 469.688,511.875 469.688,0  "/>
	<rect x="192.188" y="45" width="82.5" height="15"/>
	<rect x="424.688" y="45" width="15" height="15"/>
	<rect x="394.688" y="45" width="15" height="15"/>
	<rect x="364.688" y="45" width="15" height="15"/>
	<rect x="282.188" y="97.5" width="60" height="15"/>
	<rect x="297.188" y="127.5" width="90" height="15"/>
	<rect x="297.188" y="157.5" width="22.5" height="15"/>
	<polygon points="267.188,292.5 267.188,300 257.813,300 257.813,315 439.688,315 439.688,300 432.188,300 432.188,217.5    417.188,217.5 417.188,300 402.188,300 402.188,232.5 387.188,232.5 387.188,300 372.188,300 372.188,247.5 357.188,247.5    357.188,300 342.188,300 342.188,262.5 327.188,262.5 327.188,300 312.188,300 312.188,277.5 297.188,277.5 297.188,300    282.188,300 282.188,292.5  "/>
	<rect x="297.188" y="187.5" width="52.5" height="15"/>
	<rect x="289.688" y="217.5" width="22.5" height="15"/>
	<rect x="184.688" y="360" width="15" height="15"/>
	<rect x="214.688" y="360" width="195" height="15"/>
	<rect x="184.688" y="390" width="15" height="15"/>
	<rect x="214.688" y="390" width="195" height="15"/>
	<rect x="184.688" y="420" width="15" height="15"/>
	<rect x="214.688" y="420" width="195" height="15"/>
	<rect x="417.188" y="465" width="15" height="15"/>
	<rect x="387.188" y="465" width="15" height="15"/>
	<rect x="357.188" y="465" width="15" height="15"/>
</g>















</svg>
