<svg height="512pt" viewBox="0 -20 512 512" width="512pt" xmlns="http://www.w3.org/2000/svg"><path d="m504.5 457.941406h-4.820312v-28.855468c0-4.144532-3.359376-7.5-7.5-7.5-4.144532 0-7.503907 3.355468-7.503907 7.5v28.855468h-80.496093v-87.699218c0-2.765626 2.25-5.015626 5.019531-5.015626h70.460937c2.769532 0 5.019532 2.25 5.019532 5.015626v23.84375c0 4.140624 3.355468 7.5 7.5 7.5 4.140624 0 7.5-3.359376 7.5-7.5v-23.84375c0-11.035157-8.980469-20.015626-20.019532-20.015626h-70.460937c-11.039063 0-20.019531 8.980469-20.019531 20.015626v87.699218h-15.121094v-166.800781c0-11.035156-8.976563-20.015625-20.015625-20.015625h-17.730469c-4.144531 0-7.5 3.355469-7.5 7.5 0 4.140625 3.355469 7.5 7.5 7.5h17.730469c2.765625 0 5.015625 2.25 5.015625 5.015625v166.800781h-80.496094v-166.800781c0-2.765625 2.25-5.015625 5.015625-5.015625h17.730469c4.144531 0 7.5-3.359375 7.5-7.5 0-4.144531-3.355469-7.5-7.5-7.5h-17.730469c-11.035156 0-20.015625 8.976562-20.015625 20.015625v166.800781h-15.121094v-245.902344c0-11.039062-8.980468-20.019531-20.015625-20.019531h-70.464843c-11.039063 0-20.019532 8.980469-20.019532 20.019531v245.902344h-15.121094v-325.007812c0-11.035156-8.976562-20.015625-20.015624-20.015625h-70.464844c-11.039063 0-20.019532 8.980469-20.019532 20.015625v325.007812h-4.820312c-4.144531 0-7.5 3.355469-7.5 7.5 0 4.144532 3.355469 7.5 7.5 7.5h497c4.144531 0 7.5-3.355468 7.5-7.5 0-4.144531-3.359375-7.5-7.5-7.5zm-477.175781 0v-325.007812c0-2.765625 2.25-5.015625 5.015625-5.015625h70.464844c2.765624 0 5.015624 2.25 5.015624 5.015625v325.007812zm125.617187 0v-245.902344c0-2.769531 2.25-5.019531 5.019532-5.019531h70.464843c2.765625 0 5.015625 2.25 5.015625 5.019531v245.902344zm0 0"/><path d="m408.910156 286.125c.089844 0 .179688-.003906.269532-.003906l43.09375-.925782c8.527343-.179687 14.253906-8.851562 11.070312-16.765624l-16.070312-39.996094c-3.675782-9.148438-16.117188-10.371094-21.527344-2.179688l-3.71875 5.636719-346.695313-228.953125c-8.175781-5.398438-19.21875-3.140625-24.621093 5.035156-5.410157 8.191406-3.160157 19.207032 5.039062 24.617188l346.691406 228.953125-3.71875 5.632812c-5.359375 8.113281.472656 18.949219 10.1875 18.949219zm-344.894531-266.050781c-1.277344-.84375-1.625-2.558594-.785156-3.835938.839843-1.273437 2.558593-1.625 3.835937-.785156l352.953125 233.085937c3.457031 2.28125 8.109375 1.332032 10.390625-2.125l4.925782-7.457031 12.589843 31.328125-33.757812.726563 4.925781-7.460938c2.28125-3.449219 1.332031-8.105469-2.125-10.390625zm0 0"/></svg>