<svg height="496pt" viewBox="0 0 496 496" width="496pt" xmlns="http://www.w3.org/2000/svg"><path d="m248 192c-26.472656 0-48 21.527344-48 48v16c0 26.472656 21.527344 48 48 48s48-21.527344 48-48v-16c0-26.472656-21.527344-48-48-48zm32 64c0 17.648438-14.351562 32-32 32s-32-14.351562-32-32v-16c0-17.648438 14.351562-32 32-32s32 14.351562 32 32zm0 0"/><path d="m488 0h-480c-4.425781 0-8 3.574219-8 8v288c0 4.425781 3.574219 8 8 8h128v56c0 4.425781 3.574219 8 8 8h48v128h16v-32h32v32h16v-32h32v32h16v-128h48c4.425781 0 8-3.574219 8-8v-56h128c4.425781 0 8-3.574219 8-8v-288c0-4.425781-3.574219-8-8-8zm-472 288v-16h120v16zm328 64h-48c-4.425781 0-8 3.574219-8 8v88h-80v-88c0-4.425781-3.574219-8-8-8h-48v-112h16v88c0 4.425781 3.574219 8 8 8h144c4.425781 0 8-3.574219 8-8v-88h16zm-24-128c-4.425781 0-8 3.574219-8 8v88h-128v-88c0-4.425781-3.574219-8-8-8h-32c-4.425781 0-8 3.574219-8 8v24h-120v-240h464v240h-120v-24c0-4.425781-3.574219-8-8-8zm40 64v-16h120v16zm0 0"/><path d="m104 32c-39.703125 0-72 32.296875-72 72s32.296875 72 72 72 72-32.296875 72-72-32.296875-72-72-72zm55.359375 64h-47.359375v-47.359375c24.472656 3.527344 43.832031 22.886719 47.359375 47.359375zm-88.832031-36.785156c7.320312-5.488282 16.007812-9.214844 25.472656-10.574219v36.046875zm33.472656 100.785156c-30.871094 0-56-25.128906-56-56 0-12.558594 4.207031-24.121094 11.214844-33.472656l39.121094 39.121094c1.449218 1.449218 3.449218 2.351562 5.664062 2.351562h55.359375c-3.902344 27.089844-27.207031 48-55.359375 48zm0 0"/><path d="m232 176h32c4.425781 0 8-3.574219 8-8v-48c0-4.425781-3.574219-8-8-8h-32c-4.425781 0-8 3.574219-8 8v48c0 4.425781 3.574219 8 8 8zm8-48h16v32h-16zm0 0"/><path d="m328 112h-32c-4.425781 0-8 3.574219-8 8v48c0 4.425781 3.574219 8 8 8h32c4.425781 0 8-3.574219 8-8v-48c0-4.425781-3.574219-8-8-8zm-8 48h-16v-32h16zm0 0"/><path d="m352 104v64c0 4.425781 3.574219 8 8 8h32c4.425781 0 8-3.574219 8-8v-64c0-4.425781-3.574219-8-8-8h-32c-4.425781 0-8 3.574219-8 8zm16 8h16v48h-16zm0 0"/><path d="m424 176h32c4.425781 0 8-3.574219 8-8v-128c0-4.425781-3.574219-8-8-8h-32c-4.425781 0-8 3.574219-8 8v128c0 4.425781 3.574219 8 8 8zm8-128h16v112h-16zm0 0"/><path d="m312 88c0 2.878906 1.542969 5.535156 4.054688 6.960938 1.226562.695312 2.585937 1.039062 3.945312 1.039062 1.425781 0 2.847656-.382812 4.121094-1.144531l40-24c2.398437-1.441407 3.878906-4.039063 3.878906-6.855469s-1.480469-5.414062-3.878906-6.855469l-40-24c-2.472656-1.488281-5.546875-1.519531-8.066406-.105469-2.511719 1.425782-4.054688 4.082032-4.054688 6.960938v16h-88v16h88zm16-33.863281 16.457031 9.863281-16.457031 9.863281zm0 0"/></svg>